<svg width="11" height="11" viewBox="0 0 11 11" fill="none" xmlns="http://www.w3.org/2000/svg">
<g clip-path="url(#clip0_333_3151)">
<path d="M1.83299 6.41536C1.74627 6.41566 1.66125 6.39134 1.5878 6.34524C1.51435 6.29914 1.45549 6.23314 1.41806 6.15492C1.38063 6.07669 1.36616 5.98945 1.37634 5.90333C1.38651 5.81721 1.42092 5.73574 1.47555 5.6684L6.01233 0.994137C6.04636 0.954855 6.09274 0.928311 6.14385 0.91886C6.19495 0.909409 6.24775 0.917613 6.29358 0.942126C6.33941 0.966639 6.37554 1.006 6.39605 1.05376C6.41656 1.10152 6.42022 1.15483 6.40644 1.20494L5.52658 3.96367C5.50063 4.03311 5.49192 4.1078 5.50118 4.18135C5.51045 4.25489 5.53742 4.32509 5.57978 4.38592C5.62213 4.44675 5.67862 4.4964 5.74438 4.53061C5.81014 4.56482 5.88322 4.58256 5.95734 4.58232H9.16517C9.25189 4.58203 9.33691 4.60634 9.41036 4.65244C9.48381 4.69855 9.54267 4.76455 9.5801 4.84277C9.61753 4.92099 9.632 5.00823 9.62183 5.09435C9.61165 5.18048 9.57725 5.26194 9.52261 5.32929L4.98583 10.0035C4.9518 10.0428 4.90542 10.0694 4.85432 10.0788C4.80321 10.0883 4.75041 10.0801 4.70458 10.0556C4.65875 10.031 4.62262 9.99168 4.60211 9.94392C4.5816 9.89617 4.57794 9.84286 4.59172 9.79275L5.47158 7.03402C5.49753 6.96458 5.50624 6.88988 5.49698 6.81634C5.48771 6.7428 5.46074 6.6726 5.41839 6.61176C5.37603 6.55093 5.31955 6.50128 5.25378 6.46707C5.18802 6.43287 5.11495 6.41512 5.04082 6.41536H1.83299Z" stroke="#4F46E5" stroke-width="0.916522" stroke-linecap="round" stroke-linejoin="round"/>
</g>
<defs>
<clipPath id="clip0_333_3151">
<rect width="10.9983" height="10.9983" fill="white"/>
</clipPath>
</defs>
</svg>
