<svg width="28" height="28" viewBox="0 0 28 28" fill="none" xmlns="http://www.w3.org/2000/svg">
<path d="M0 13.9974C0 6.26685 6.26685 0 13.9974 0C21.7279 0 27.9948 6.26685 27.9948 13.9974C27.9948 21.7279 21.7279 27.9948 13.9974 27.9948C6.26685 27.9948 0 21.7279 0 13.9974Z" fill="url(#paint0_linear_461_223)"/>
<path d="M11.8145 12.1985C11.5866 12.1985 11.3831 12.2473 11.2041 12.345C11.0251 12.4394 10.8721 12.5777 10.7451 12.76C10.6182 12.9423 10.5205 13.1653 10.4521 13.429C10.387 13.6894 10.3545 13.9856 10.3545 14.3176C10.3545 14.7668 10.4115 15.1444 10.5254 15.4504C10.6393 15.7564 10.8118 15.9875 11.043 16.1438C11.2773 16.3 11.5703 16.3782 11.9219 16.3782C12.2409 16.3782 12.5469 16.3342 12.8398 16.2463C13.1361 16.1584 13.4339 16.0527 13.7334 15.929V17.5598C13.4176 17.6998 13.0938 17.8007 12.7617 17.8625C12.4329 17.9244 12.083 17.9553 11.7119 17.9553C10.9372 17.9553 10.3024 17.8023 9.80762 17.4963C9.31608 17.1871 8.95312 16.759 8.71875 16.2122C8.48763 15.6653 8.37207 15.0305 8.37207 14.3079C8.37207 13.7675 8.44694 13.2727 8.59668 12.8235C8.74967 12.3743 8.97266 11.9853 9.26562 11.6565C9.55859 11.3245 9.91992 11.0689 10.3496 10.8899C10.7826 10.7076 11.2773 10.6165 11.834 10.6165C12.179 10.6165 12.542 10.6571 12.9229 10.7385C13.307 10.8167 13.6813 10.9436 14.0459 11.1194L13.4551 12.6379C13.1947 12.5142 12.931 12.4101 12.6641 12.3254C12.3971 12.2408 12.1139 12.1985 11.8145 12.1985ZM19.7979 15.6897C19.7979 16.0771 19.7002 16.4449 19.5049 16.7932C19.3096 17.1383 19.0052 17.4182 18.5918 17.6331C18.1816 17.8479 17.651 17.9553 17 17.9553C16.6745 17.9553 16.388 17.9407 16.1406 17.9114C15.8965 17.8821 15.6686 17.8349 15.457 17.7698C15.2454 17.7014 15.0257 17.6135 14.7979 17.5061V15.7874C15.1852 15.9827 15.5758 16.1324 15.9697 16.2366C16.3636 16.3375 16.7201 16.3879 17.0391 16.3879C17.2311 16.3879 17.3874 16.3652 17.5078 16.3196C17.6315 16.274 17.7227 16.2122 17.7812 16.134C17.8398 16.0527 17.8691 15.9599 17.8691 15.8557C17.8691 15.732 17.8252 15.6278 17.7373 15.5432C17.6527 15.4553 17.516 15.3642 17.3271 15.2698C17.1383 15.1754 16.8893 15.0582 16.5801 14.9182C16.3164 14.7945 16.0771 14.6676 15.8623 14.5374C15.6507 14.4071 15.4684 14.259 15.3154 14.093C15.1657 13.9237 15.0501 13.7268 14.9688 13.5022C14.8874 13.2776 14.8467 13.0123 14.8467 12.7063C14.8467 12.2473 14.959 11.8632 15.1836 11.554C15.4115 11.2415 15.7272 11.0071 16.1309 10.8508C16.5378 10.6946 17.0065 10.6165 17.5371 10.6165C18.0026 10.6165 18.4209 10.6685 18.792 10.7727C19.1663 10.8769 19.5016 10.9957 19.7979 11.1292L19.207 12.6184C18.901 12.4784 18.5999 12.3678 18.3037 12.2864C18.0075 12.2017 17.7324 12.1594 17.4785 12.1594C17.3125 12.1594 17.1758 12.1806 17.0684 12.2229C16.9642 12.262 16.8861 12.3157 16.834 12.384C16.7852 12.4524 16.7607 12.5305 16.7607 12.6184C16.7607 12.7291 16.8031 12.8284 16.8877 12.9163C16.9756 13.0042 17.1204 13.1002 17.3223 13.2043C17.5273 13.3053 17.8057 13.4371 18.1572 13.5999C18.5055 13.7561 18.8018 13.9254 19.0459 14.1077C19.29 14.2867 19.4756 14.5032 19.6025 14.7571C19.7327 15.0077 19.7979 15.3186 19.7979 15.6897Z" fill="white"/>
<defs>
<linearGradient id="paint0_linear_461_223" x1="0" y1="0" x2="27.9948" y2="27.9948" gradientUnits="userSpaceOnUse">
<stop stop-color="#6366F1"/>
<stop offset="1" stop-color="#A78BFA"/>
</linearGradient>
</defs>
</svg>
