<svg width="11" height="11" viewBox="0 0 11 11" fill="none" xmlns="http://www.w3.org/2000/svg">
<g clip-path="url(#clip0_461_210)">
<path d="M5.49902 3.20782V9.62348" stroke="#A5B4FC" stroke-width="0.916522" stroke-linecap="round" stroke-linejoin="round"/>
<path d="M1.37525 8.2487C1.25371 8.2487 1.13715 8.20042 1.05121 8.11448C0.965273 8.02854 0.916992 7.91198 0.916992 7.79044V1.83305C0.916992 1.71151 0.965273 1.59495 1.05121 1.50901C1.13715 1.42307 1.25371 1.37479 1.37525 1.37479H3.66656C4.15271 1.37479 4.61895 1.56791 4.96272 1.91167C5.30648 2.25543 5.4996 2.72168 5.4996 3.20783C5.4996 2.72168 5.69273 2.25543 6.03649 1.91167C6.38025 1.56791 6.84649 1.37479 7.33265 1.37479H9.62395C9.74549 1.37479 9.86205 1.42307 9.94799 1.50901C10.0339 1.59495 10.0822 1.71151 10.0822 1.83305V7.79044C10.0822 7.91198 10.0339 8.02854 9.94799 8.11448C9.86205 8.20042 9.74549 8.2487 9.62395 8.2487H6.87439C6.50977 8.2487 6.16009 8.39354 5.90227 8.65137C5.64444 8.90919 5.4996 9.25887 5.4996 9.62348C5.4996 9.25887 5.35476 8.90919 5.09694 8.65137C4.83912 8.39354 4.48943 8.2487 4.12482 8.2487H1.37525Z" stroke="#A5B4FC" stroke-width="0.916522" stroke-linecap="round" stroke-linejoin="round"/>
</g>
<defs>
<clipPath id="clip0_461_210">
<rect width="10.9983" height="10.9983" fill="white"/>
</clipPath>
</defs>
</svg>
