<svg width="13" height="13" viewBox="0 0 13 13" fill="none" xmlns="http://www.w3.org/2000/svg">
<g clip-path="url(#clip0_461_249)">
<path d="M8.66276 4.3316C9.52437 4.3316 10.3507 4.67388 10.9599 5.28313C11.5692 5.89237 11.9115 6.71869 11.9115 7.5803V11.3704H9.74566V7.5803C9.74566 7.2931 9.63157 7.01766 9.42849 6.81458C9.2254 6.61149 8.94996 6.4974 8.66276 6.4974C8.37556 6.4974 8.10012 6.61149 7.89704 6.81458C7.69395 7.01766 7.57986 7.2931 7.57986 7.5803V11.3704H5.41406V7.5803C5.41406 6.71869 5.75634 5.89237 6.36558 5.28313C6.97483 4.67388 7.80115 4.3316 8.66276 4.3316Z" stroke="white" stroke-opacity="0.5" stroke-width="1.0829" stroke-linecap="round" stroke-linejoin="round"/>
<path d="M3.24881 4.87305H1.08301V11.3704H3.24881V4.87305Z" stroke="white" stroke-opacity="0.5" stroke-width="1.0829" stroke-linecap="round" stroke-linejoin="round"/>
<path d="M2.16591 3.24868C2.76398 3.24868 3.24881 2.76385 3.24881 2.16579C3.24881 1.56772 2.76398 1.08289 2.16591 1.08289C1.56784 1.08289 1.08301 1.56772 1.08301 2.16579C1.08301 2.76385 1.56784 3.24868 2.16591 3.24868Z" stroke="white" stroke-opacity="0.5" stroke-width="1.0829" stroke-linecap="round" stroke-linejoin="round"/>
</g>
<defs>
<clipPath id="clip0_461_249">
<rect width="12.9948" height="12.9948" fill="white"/>
</clipPath>
</defs>
</svg>
