<svg width="13" height="13" viewBox="0 0 13 13" fill="none" xmlns="http://www.w3.org/2000/svg">
<g clip-path="url(#clip0_461_257)">
<path d="M9.74642 4.33158C10.6435 4.33158 11.3708 3.60434 11.3708 2.70723C11.3708 1.81013 10.6435 1.08289 9.74642 1.08289C8.84932 1.08289 8.12207 1.81013 8.12207 2.70723C8.12207 3.60434 8.84932 4.33158 9.74642 4.33158Z" stroke="white" stroke-opacity="0.5" stroke-width="1.0829" stroke-linecap="round" stroke-linejoin="round"/>
<path d="M3.24837 8.12174C4.14548 8.12174 4.87272 7.3945 4.87272 6.4974C4.87272 5.60029 4.14548 4.87305 3.24837 4.87305C2.35127 4.87305 1.62402 5.60029 1.62402 6.4974C1.62402 7.3945 2.35127 8.12174 3.24837 8.12174Z" stroke="white" stroke-opacity="0.5" stroke-width="1.0829" stroke-linecap="round" stroke-linejoin="round"/>
<path d="M9.74642 11.9119C10.6435 11.9119 11.3708 11.1847 11.3708 10.2876C11.3708 9.39045 10.6435 8.66321 9.74642 8.66321C8.84932 8.66321 8.12207 9.39045 8.12207 10.2876C8.12207 11.1847 8.84932 11.9119 9.74642 11.9119Z" stroke="white" stroke-opacity="0.5" stroke-width="1.0829" stroke-linecap="round" stroke-linejoin="round"/>
<path d="M4.65137 7.315L8.34947 9.46997" stroke="white" stroke-opacity="0.5" stroke-width="1.0829" stroke-linecap="round" stroke-linejoin="round"/>
<path d="M8.34405 3.52484L4.65137 5.67981" stroke="white" stroke-opacity="0.5" stroke-width="1.0829" stroke-linecap="round" stroke-linejoin="round"/>
</g>
<defs>
<clipPath id="clip0_461_257">
<rect width="12.9948" height="12.9948" fill="white"/>
</clipPath>
</defs>
</svg>
