<svg width="32" height="32" viewBox="0 0 32 32" fill="none" xmlns="http://www.w3.org/2000/svg">
<mask id="path-1-inside-1_145_2659" fill="white">
<path d="M0 10C0 4.47715 4.47715 0 10 0H21.9965C27.5194 0 31.9965 4.47715 31.9965 10V21.9965C31.9965 27.5194 27.5194 31.9965 21.9965 31.9965H10C4.47715 31.9965 0 27.5194 0 21.9965V10Z"/>
</mask>
<path d="M0 10C0 4.47715 4.47715 0 10 0H21.9965C27.5194 0 31.9965 4.47715 31.9965 10V21.9965C31.9965 27.5194 27.5194 31.9965 21.9965 31.9965H10C4.47715 31.9965 0 27.5194 0 21.9965V10Z" fill="#18181B"/>
<path d="M10 0V0.555556H21.9965V0V-0.555556H10V0ZM31.9965 10H31.441V21.9965H31.9965H32.5521V10H31.9965ZM21.9965 31.9965V31.441H10V31.9965V32.5521H21.9965V31.9965ZM0 21.9965H0.555556V10H0H-0.555556V21.9965H0ZM10 31.9965V31.441C4.78398 31.441 0.555556 27.2125 0.555556 21.9965H0H-0.555556C-0.555556 27.8262 4.17033 32.5521 10 32.5521V31.9965ZM31.9965 21.9965H31.441C31.441 27.2125 27.2125 31.441 21.9965 31.441V31.9965V32.5521C27.8262 32.5521 32.5521 27.8262 32.5521 21.9965H31.9965ZM21.9965 0V0.555556C27.2125 0.555556 31.441 4.78398 31.441 10H31.9965H32.5521C32.5521 4.17033 27.8262 -0.555556 21.9965 -0.555556V0ZM10 0V-0.555556C4.17033 -0.555556 -0.555556 4.17033 -0.555556 10H0H0.555556C0.555556 4.78398 4.78398 0.555556 10 0.555556V0Z" fill="white" fill-opacity="0.06" mask="url(#path-1-inside-1_145_2659)"/>
<g clip-path="url(#clip0_145_2659)">
<path d="M16.4823 10.2728C16.3304 10.2035 16.1653 10.1676 15.9983 10.1676C15.8314 10.1676 15.6663 10.2035 15.5144 10.2728L10.5177 12.5466C10.4143 12.5922 10.3263 12.667 10.2646 12.7617C10.2028 12.8564 10.1699 12.967 10.1699 13.0801C10.1699 13.1932 10.2028 13.3038 10.2646 13.3985C10.3263 13.4933 10.4143 13.568 10.5177 13.6136L15.5203 15.8933C15.6722 15.9626 15.8372 15.9985 16.0042 15.9985C16.1712 15.9985 16.3362 15.9626 16.4881 15.8933L21.4906 13.6194C21.5941 13.5738 21.682 13.4991 21.7438 13.4044C21.8056 13.3097 21.8384 13.199 21.8384 13.0859C21.8384 12.9729 21.8056 12.8622 21.7438 12.7675C21.682 12.6728 21.5941 12.5981 21.4906 12.5525L16.4823 10.2728Z" stroke="white" stroke-width="1.16609" stroke-linecap="round" stroke-linejoin="round"/>
<path d="M10.1677 15.9983C10.1675 16.1098 10.1992 16.2191 10.2591 16.3131C10.319 16.4071 10.4047 16.482 10.5059 16.5289L15.5201 18.8086C15.6712 18.877 15.8352 18.9124 16.0011 18.9124C16.167 18.9124 16.331 18.877 16.4821 18.8086L21.4846 16.5347C21.5878 16.4883 21.6753 16.4129 21.7364 16.3176C21.7975 16.2224 21.8295 16.1114 21.8286 15.9983" stroke="white" stroke-width="1.16609" stroke-linecap="round" stroke-linejoin="round"/>
<path d="M10.1677 18.9135C10.1675 19.025 10.1992 19.1342 10.2591 19.2283C10.319 19.3223 10.4047 19.3972 10.5059 19.444L15.5201 21.7237C15.6712 21.7922 15.8352 21.8276 16.0011 21.8276C16.167 21.8276 16.331 21.7922 16.4821 21.7237L21.4846 19.4499C21.5878 19.4035 21.6753 19.3281 21.7364 19.2328C21.7975 19.1376 21.8295 19.0266 21.8286 18.9135" stroke="white" stroke-width="1.16609" stroke-linecap="round" stroke-linejoin="round"/>
</g>
<defs>
<clipPath id="clip0_145_2659">
<rect width="13.9931" height="13.9931" fill="white" transform="translate(9.00171 9.00171)"/>
</clipPath>
</defs>
</svg>
