<svg width="32" height="32" viewBox="0 0 32 32" fill="none" xmlns="http://www.w3.org/2000/svg">
<mask id="path-1-inside-1_145_2713" fill="white">
<path d="M0 10C0 4.47715 4.47715 0 10 0H21.9965C27.5194 0 31.9965 4.47715 31.9965 10V21.9965C31.9965 27.5194 27.5194 31.9965 21.9965 31.9965H10C4.47715 31.9965 0 27.5194 0 21.9965V10Z"/>
</mask>
<path d="M0 10C0 4.47715 4.47715 0 10 0H21.9965C27.5194 0 31.9965 4.47715 31.9965 10V21.9965C31.9965 27.5194 27.5194 31.9965 21.9965 31.9965H10C4.47715 31.9965 0 27.5194 0 21.9965V10Z" fill="#18181B"/>
<path d="M10 0V0.555556H21.9965V0V-0.555556H10V0ZM31.9965 10H31.441V21.9965H31.9965H32.5521V10H31.9965ZM21.9965 31.9965V31.441H10V31.9965V32.5521H21.9965V31.9965ZM0 21.9965H0.555556V10H0H-0.555556V21.9965H0ZM10 31.9965V31.441C4.78398 31.441 0.555556 27.2125 0.555556 21.9965H0H-0.555556C-0.555556 27.8262 4.17033 32.5521 10 32.5521V31.9965ZM31.9965 21.9965H31.441C31.441 27.2125 27.2125 31.441 21.9965 31.441V31.9965V32.5521C27.8262 32.5521 32.5521 27.8262 32.5521 21.9965H31.9965ZM21.9965 0V0.555556C27.2125 0.555556 31.441 4.78398 31.441 10H31.9965H32.5521C32.5521 4.17033 27.8262 -0.555556 21.9965 -0.555556V0ZM10 0V-0.555556C4.17033 -0.555556 -0.555556 4.17033 -0.555556 10H0H0.555556C0.555556 4.78398 4.78398 0.555556 10 0.555556V0Z" fill="white" fill-opacity="0.06" mask="url(#path-1-inside-1_145_2713)"/>
<g clip-path="url(#clip0_145_2713)">
<path d="M21.8286 15.9983H20.3827C20.1278 15.9977 19.8799 16.0807 19.6767 16.2344C19.4734 16.3881 19.3262 16.6042 19.2574 16.8495L17.8872 21.7238C17.8784 21.7541 17.86 21.7807 17.8348 21.7996C17.8095 21.8185 17.7788 21.8287 17.7473 21.8287C17.7158 21.8287 17.6851 21.8185 17.6598 21.7996C17.6346 21.7807 17.6162 21.7541 17.6074 21.7238L14.389 10.2728C14.3801 10.2425 14.3617 10.2159 14.3365 10.197C14.3113 10.1781 14.2806 10.1678 14.249 10.1678C14.2175 10.1678 14.1868 10.1781 14.1616 10.197C14.1363 10.2159 14.1179 10.2425 14.1091 10.2728L12.7389 15.147C12.6704 15.3914 12.524 15.6068 12.322 15.7604C12.12 15.914 11.8733 15.9976 11.6195 15.9983H10.1677" stroke="white" stroke-width="1.16609" stroke-linecap="round" stroke-linejoin="round"/>
</g>
<defs>
<clipPath id="clip0_145_2713">
<rect width="13.9931" height="13.9931" fill="white" transform="translate(9.00171 9.00171)"/>
</clipPath>
</defs>
</svg>
