<svg width="32" height="32" viewBox="0 0 32 32" fill="none" xmlns="http://www.w3.org/2000/svg">
<mask id="path-1-inside-1_145_2704" fill="white">
<path d="M0 10C0 4.47715 4.47715 0 10 0H21.9965C27.5194 0 31.9965 4.47715 31.9965 10V21.9965C31.9965 27.5194 27.5194 31.9965 21.9965 31.9965H10C4.47715 31.9965 0 27.5194 0 21.9965V10Z"/>
</mask>
<path d="M0 10C0 4.47715 4.47715 0 10 0H21.9965C27.5194 0 31.9965 4.47715 31.9965 10V21.9965C31.9965 27.5194 27.5194 31.9965 21.9965 31.9965H10C4.47715 31.9965 0 27.5194 0 21.9965V10Z" fill="#18181B"/>
<path d="M10 0V0.555556H21.9965V0V-0.555556H10V0ZM31.9965 10H31.441V21.9965H31.9965H32.5521V10H31.9965ZM21.9965 31.9965V31.441H10V31.9965V32.5521H21.9965V31.9965ZM0 21.9965H0.555556V10H0H-0.555556V21.9965H0ZM10 31.9965V31.441C4.78398 31.441 0.555556 27.2125 0.555556 21.9965H0H-0.555556C-0.555556 27.8262 4.17033 32.5521 10 32.5521V31.9965ZM31.9965 21.9965H31.441C31.441 27.2125 27.2125 31.441 21.9965 31.441V31.9965V32.5521C27.8262 32.5521 32.5521 27.8262 32.5521 21.9965H31.9965ZM21.9965 0V0.555556C27.2125 0.555556 31.441 4.78398 31.441 10H31.9965H32.5521C32.5521 4.17033 27.8262 -0.555556 21.9965 -0.555556V0ZM10 0V-0.555556C4.17033 -0.555556 -0.555556 4.17033 -0.555556 10H0H0.555556C0.555556 4.78398 4.78398 0.555556 10 0.555556V0Z" fill="white" fill-opacity="0.06" mask="url(#path-1-inside-1_145_2704)"/>
<path d="M11.3556 11.735C11.3326 11.6819 11.3261 11.6231 11.3369 11.5663C11.3477 11.5094 11.3754 11.4571 11.4163 11.4162C11.4572 11.3753 11.5095 11.3476 11.5664 11.3368C11.6232 11.3259 11.682 11.3324 11.7351 11.3555L21.0638 15.1452C21.1206 15.1684 21.1686 15.2087 21.201 15.2607C21.2335 15.3126 21.2488 15.3735 21.2447 15.4346C21.2407 15.4957 21.2175 15.554 21.1784 15.6011C21.1393 15.6483 21.0864 15.682 21.0271 15.6974L17.4566 16.6186C17.2548 16.6705 17.0706 16.7754 16.9232 16.9226C16.7758 17.0697 16.6704 17.2536 16.6181 17.4553L15.6975 21.027C15.6821 21.0863 15.6484 21.1392 15.6013 21.1783C15.5541 21.2173 15.4958 21.2405 15.4347 21.2446C15.3736 21.2487 15.3127 21.2334 15.2608 21.2009C15.2089 21.1684 15.1685 21.1204 15.1454 21.0637L11.3556 11.735Z" stroke="white" stroke-width="1.16609" stroke-linecap="round" stroke-linejoin="round"/>
</svg>
