<svg width="32" height="32" viewBox="0 0 32 32" fill="none" xmlns="http://www.w3.org/2000/svg">
<mask id="path-1-inside-1_145_2670" fill="white">
<path d="M0 10C0 4.47715 4.47715 0 10 0H21.9965C27.5194 0 31.9965 4.47715 31.9965 10V21.9965C31.9965 27.5194 27.5194 31.9965 21.9965 31.9965H10C4.47715 31.9965 0 27.5194 0 21.9965V10Z"/>
</mask>
<path d="M0 10C0 4.47715 4.47715 0 10 0H21.9965C27.5194 0 31.9965 4.47715 31.9965 10V21.9965C31.9965 27.5194 27.5194 31.9965 21.9965 31.9965H10C4.47715 31.9965 0 27.5194 0 21.9965V10Z" fill="#E5E7EB"/>
<path d="M10 0V0.555556H21.9965V0V-0.555556H10V0ZM31.9965 10H31.441V21.9965H31.9965H32.5521V10H31.9965ZM21.9965 31.9965V31.441H10V31.9965V32.5521H21.9965V31.9965ZM0 21.9965H0.555556V10H0H-0.555556V21.9965H0ZM10 31.9965V31.441C4.78398 31.441 0.555556 27.2125 0.555556 21.9965H0H-0.555556C-0.555556 27.8262 4.17033 32.5521 10 32.5521V31.9965ZM31.9965 21.9965H31.441C31.441 27.2125 27.2125 31.441 21.9965 31.441V31.9965V32.5521C27.8262 32.5521 32.5521 27.8262 32.5521 21.9965H31.9965ZM21.9965 0V0.555556C27.2125 0.555556 31.441 4.78398 31.441 10H31.9965H32.5521C32.5521 4.17033 27.8262 -0.555556 21.9965 -0.555556V0ZM10 0V-0.555556C4.17033 -0.555556 -0.555556 4.17033 -0.555556 10H0H0.555556C0.555556 4.78398 4.78398 0.555556 10 0.555556V0Z" fill="white" fill-opacity="0.06" mask="url(#path-1-inside-1_145_2670)"/>
<g clip-path="url(#clip0_145_2670)">
<path d="M21.6188 11.124L20.8725 10.3777C20.8069 10.3114 20.7288 10.2588 20.6427 10.2229C20.5566 10.1869 20.4643 10.1685 20.371 10.1685C20.2778 10.1685 20.1855 10.1869 20.0994 10.2229C20.0133 10.2588 19.9352 10.3114 19.8696 10.3777L10.3777 19.8696C10.3114 19.9352 10.2588 20.0133 10.2229 20.0994C10.1869 20.1855 10.1685 20.2778 10.1685 20.371C10.1685 20.4643 10.1869 20.5566 10.2229 20.6427C10.2588 20.7288 10.3114 20.8069 10.3777 20.8725L11.124 21.6188C11.1892 21.6858 11.2671 21.739 11.3532 21.7754C11.4394 21.8117 11.5319 21.8305 11.6254 21.8305C11.7189 21.8305 11.8114 21.8117 11.8975 21.7754C11.9836 21.739 12.0616 21.6858 12.1268 21.6188L21.6188 12.1268C21.6858 12.0616 21.739 11.9836 21.7754 11.8975C21.8117 11.8114 21.8305 11.7189 21.8305 11.6254C21.8305 11.5319 21.8117 11.4394 21.7754 11.3532C21.739 11.2671 21.6858 11.1892 21.6188 11.124Z" stroke="#9CA3AF" stroke-width="1.16609" stroke-linecap="round" stroke-linejoin="round"/>
<path d="M17.1643 13.083L18.9134 14.8321" stroke="#9CA3AF" stroke-width="1.16609" stroke-linecap="round" stroke-linejoin="round"/>
<path d="M11.917 12.5V14.8322" stroke="#9CA3AF" stroke-width="1.16609" stroke-linecap="round" stroke-linejoin="round"/>
<path d="M20.0796 17.1643V19.4965" stroke="#9CA3AF" stroke-width="1.16609" stroke-linecap="round" stroke-linejoin="round"/>
<path d="M14.832 10.1678V11.3339" stroke="#9CA3AF" stroke-width="1.16609" stroke-linecap="round" stroke-linejoin="round"/>
<path d="M13.0829 13.666H10.7507" stroke="#9CA3AF" stroke-width="1.16609" stroke-linecap="round" stroke-linejoin="round"/>
<path d="M21.2458 18.3304H18.9136" stroke="#9CA3AF" stroke-width="1.16609" stroke-linecap="round" stroke-linejoin="round"/>
<path d="M15.4151 10.7509H14.249" stroke="#9CA3AF" stroke-width="1.16609" stroke-linecap="round" stroke-linejoin="round"/>
</g>
<defs>
<clipPath id="clip0_145_2670">
<rect width="13.9931" height="13.9931" fill="white" transform="translate(9.00171 9.00171)"/>
</clipPath>
</defs>
</svg>
