<svg width="36" height="36" viewBox="0 0 36 36" fill="none" xmlns="http://www.w3.org/2000/svg">
<mask id="path-1-inside-1_193_1669" fill="white">
<path d="M0 14C0 6.26801 6.26801 0 14 0H21.9983C29.7303 0 35.9983 6.26801 35.9983 14V21.9983C35.9983 29.7303 29.7303 35.9983 21.9983 35.9983H14C6.26801 35.9983 0 29.7303 0 21.9983V14Z"/>
</mask>
<path d="M0 14C0 6.26801 6.26801 0 14 0H21.9983C29.7303 0 35.9983 6.26801 35.9983 14V21.9983C35.9983 29.7303 29.7303 35.9983 21.9983 35.9983H14C6.26801 35.9983 0 29.7303 0 21.9983V14Z" fill="#A78BFA" fill-opacity="0.08"/>
<path d="M14 0V1.11111H21.9983V0V-1.11111H14V0ZM35.9983 14H34.8872V21.9983H35.9983H37.1094V14H35.9983ZM21.9983 35.9983V34.8872H14V35.9983V37.1094H21.9983V35.9983ZM0 21.9983H1.11111V14H0H-1.11111V21.9983H0ZM14 35.9983V34.8872C6.88166 34.8872 1.11111 29.1166 1.11111 21.9983H0H-1.11111C-1.11111 30.3439 5.65436 37.1094 14 37.1094V35.9983ZM35.9983 21.9983H34.8872C34.8872 29.1166 29.1166 34.8872 21.9983 34.8872V35.9983V37.1094C30.3439 37.1094 37.1094 30.3439 37.1094 21.9983H35.9983ZM21.9983 0V1.11111C29.1166 1.11111 34.8872 6.88166 34.8872 14H35.9983H37.1094C37.1094 5.65437 30.3439 -1.11111 21.9983 -1.11111V0ZM14 0V-1.11111C5.65437 -1.11111 -1.11111 5.65436 -1.11111 14H0H1.11111C1.11111 6.88166 6.88166 1.11111 14 1.11111V0Z" fill="#A78BFA" fill-opacity="0.157" mask="url(#path-1-inside-1_193_1669)"/>
<g clip-path="url(#clip0_193_1669)">
<path d="M12.3293 19.4156C12.1952 19.4161 12.0638 19.3785 11.9503 19.3073C11.8368 19.236 11.7459 19.134 11.688 19.0131C11.6302 18.8923 11.6078 18.7574 11.6235 18.6243C11.6393 18.4913 11.6924 18.3654 11.7769 18.2613L18.7879 11.0378C18.8405 10.9771 18.9122 10.936 18.9912 10.9214C19.0702 10.9068 19.1518 10.9195 19.2226 10.9574C19.2934 10.9953 19.3492 11.0561 19.3809 11.1299C19.4126 11.2037 19.4183 11.2861 19.397 11.3635L18.0373 15.6268C17.9972 15.7341 17.9837 15.8496 17.998 15.9632C18.0123 16.0769 18.054 16.1854 18.1195 16.2794C18.1849 16.3734 18.2722 16.4501 18.3738 16.503C18.4755 16.5558 18.5884 16.5833 18.703 16.5829H23.6603C23.7943 16.5824 23.9257 16.62 24.0392 16.6912C24.1527 16.7625 24.2437 16.8645 24.3015 16.9854C24.3594 17.1063 24.3817 17.2411 24.366 17.3742C24.3503 17.5073 24.2971 17.6332 24.2127 17.7372L17.2016 24.9608C17.149 25.0215 17.0773 25.0625 16.9984 25.0771C16.9194 25.0917 16.8378 25.079 16.767 25.0411C16.6961 25.0032 16.6403 24.9424 16.6086 24.8686C16.5769 24.7948 16.5713 24.7124 16.5926 24.635L17.9523 20.3717C17.9924 20.2644 18.0058 20.149 17.9915 20.0353C17.9772 19.9216 17.9355 19.8132 17.8701 19.7191C17.8046 19.6251 17.7173 19.5484 17.6157 19.4955C17.5141 19.4427 17.4011 19.4153 17.2866 19.4156H12.3293Z" stroke="#A78BFA" stroke-width="1.41638" stroke-linecap="round" stroke-linejoin="round"/>
</g>
<defs>
<clipPath id="clip0_193_1669">
<rect width="16.9965" height="16.9965" fill="white" transform="translate(9.49652 9.50098)"/>
</clipPath>
</defs>
</svg>
