<svg width="36" height="36" viewBox="0 0 36 36" fill="none" xmlns="http://www.w3.org/2000/svg">
<mask id="path-1-inside-1_193_1568" fill="white">
<path d="M0 14C0 6.26801 6.26801 0 14 0H21.9983C29.7303 0 35.9983 6.26801 35.9983 14V21.9983C35.9983 29.7303 29.7303 35.9983 21.9983 35.9983H14C6.26801 35.9983 0 29.7303 0 21.9983V14Z"/>
</mask>
<path d="M0 14C0 6.26801 6.26801 0 14 0H21.9983C29.7303 0 35.9983 6.26801 35.9983 14V21.9983C35.9983 29.7303 29.7303 35.9983 21.9983 35.9983H14C6.26801 35.9983 0 29.7303 0 21.9983V14Z" fill="#6366F1" fill-opacity="0.08"/>
<path d="M14 0V1.11111H21.9983V0V-1.11111H14V0ZM35.9983 14H34.8872V21.9983H35.9983H37.1094V14H35.9983ZM21.9983 35.9983V34.8872H14V35.9983V37.1094H21.9983V35.9983ZM0 21.9983H1.11111V14H0H-1.11111V21.9983H0ZM14 35.9983V34.8872C6.88166 34.8872 1.11111 29.1166 1.11111 21.9983H0H-1.11111C-1.11111 30.3439 5.65436 37.1094 14 37.1094V35.9983ZM35.9983 21.9983H34.8872C34.8872 29.1166 29.1166 34.8872 21.9983 34.8872V35.9983V37.1094C30.3439 37.1094 37.1094 30.3439 37.1094 21.9983H35.9983ZM21.9983 0V1.11111C29.1166 1.11111 34.8872 6.88166 34.8872 14H35.9983H37.1094C37.1094 5.65437 30.3439 -1.11111 21.9983 -1.11111V0ZM14 0V-1.11111C5.65437 -1.11111 -1.11111 5.65436 -1.11111 14H0H1.11111C1.11111 6.88166 6.88166 1.11111 14 1.11111V0Z" fill="#6366F1" fill-opacity="0.157" mask="url(#path-1-inside-1_193_1568)"/>
<g clip-path="url(#clip0_193_1568)">
<path d="M18.5826 11.0448C18.3981 10.9607 18.1976 10.9171 17.9948 10.9171C17.792 10.9171 17.5915 10.9607 17.407 11.0448L11.3378 13.8068C11.2121 13.8622 11.1053 13.9529 11.0303 14.068C10.9553 14.183 10.9153 14.3174 10.9153 14.4548C10.9153 14.5921 10.9553 14.7265 11.0303 14.8415C11.1053 14.9566 11.2121 15.0474 11.3378 15.1028L17.4141 17.8718C17.5986 17.9559 17.799 17.9995 18.0019 17.9995C18.2047 17.9995 18.4051 17.9559 18.5897 17.8718L24.6659 15.1098C24.7916 15.0544 24.8984 14.9637 24.9734 14.8486C25.0485 14.7336 25.0884 14.5992 25.0884 14.4619C25.0884 14.3245 25.0485 14.1901 24.9734 14.0751C24.8984 13.96 24.7916 13.8693 24.6659 13.8139L18.5826 11.0448Z" stroke="#6366F1" stroke-width="1.41638" stroke-linecap="round" stroke-linejoin="round"/>
<path d="M10.9129 17.9993C10.9126 18.1347 10.9511 18.2674 11.0239 18.3817C11.0967 18.4959 11.2007 18.5868 11.3237 18.6437L17.4141 21.4127C17.5976 21.4959 17.7968 21.5389 17.9983 21.5389C18.1998 21.5389 18.399 21.4959 18.5826 21.4127L24.6588 18.6508C24.7842 18.5945 24.8905 18.5029 24.9646 18.3872C25.0388 18.2715 25.0778 18.1367 25.0767 17.9993" stroke="#6366F1" stroke-width="1.41638" stroke-linecap="round" stroke-linejoin="round"/>
<path d="M10.9129 21.5402C10.9126 21.6756 10.9511 21.8083 11.0239 21.9225C11.0967 22.0368 11.2007 22.1277 11.3237 22.1846L17.4141 24.9536C17.5976 25.0368 17.7968 25.0797 17.9983 25.0797C18.1998 25.0797 18.399 25.0368 18.5826 24.9536L24.6588 22.1917C24.7842 22.1354 24.8905 22.0437 24.9646 21.9281C25.0388 21.8124 25.0778 21.6776 25.0767 21.5402" stroke="#6366F1" stroke-width="1.41638" stroke-linecap="round" stroke-linejoin="round"/>
</g>
<defs>
<clipPath id="clip0_193_1568">
<rect width="16.9965" height="16.9965" fill="white" transform="translate(9.49652 9.50098)"/>
</clipPath>
</defs>
</svg>
