<svg width="36" height="36" viewBox="0 0 36 36" fill="none" xmlns="http://www.w3.org/2000/svg">
<mask id="path-1-inside-1_193_1442" fill="white">
<path d="M0 14C0 6.26801 6.26801 0 14 0H21.9983C29.7303 0 35.9983 6.26801 35.9983 14V21.9983C35.9983 29.7303 29.7303 35.9983 21.9983 35.9983H14C6.26801 35.9983 0 29.7303 0 21.9983V14Z"/>
</mask>
<path d="M0 14C0 6.26801 6.26801 0 14 0H21.9983C29.7303 0 35.9983 6.26801 35.9983 14V21.9983C35.9983 29.7303 29.7303 35.9983 21.9983 35.9983H14C6.26801 35.9983 0 29.7303 0 21.9983V14Z" fill="#F97316" fill-opacity="0.08"/>
<path d="M14 0V1.11111H21.9983V0V-1.11111H14V0ZM35.9983 14H34.8872V21.9983H35.9983H37.1094V14H35.9983ZM21.9983 35.9983V34.8872H14V35.9983V37.1094H21.9983V35.9983ZM0 21.9983H1.11111V14H0H-1.11111V21.9983H0ZM14 35.9983V34.8872C6.88166 34.8872 1.11111 29.1166 1.11111 21.9983H0H-1.11111C-1.11111 30.3439 5.65436 37.1094 14 37.1094V35.9983ZM35.9983 21.9983H34.8872C34.8872 29.1166 29.1166 34.8872 21.9983 34.8872V35.9983V37.1094C30.3439 37.1094 37.1094 30.3439 37.1094 21.9983H35.9983ZM21.9983 0V1.11111C29.1166 1.11111 34.8872 6.88166 34.8872 14H35.9983H37.1094C37.1094 5.65437 30.3439 -1.11111 21.9983 -1.11111V0ZM14 0V-1.11111C5.65437 -1.11111 -1.11111 5.65436 -1.11111 14H0H1.11111C1.11111 6.88166 6.88166 1.11111 14 1.11111V0Z" fill="#F97316" fill-opacity="0.157" mask="url(#path-1-inside-1_193_1442)"/>
<g clip-path="url(#clip0_193_1442)">
<path d="M23.6603 10.9174H12.3293C11.547 10.9174 10.9129 11.5515 10.9129 12.3337V15.1665C10.9129 15.9487 11.547 16.5829 12.3293 16.5829H23.6603C24.4425 16.5829 25.0767 15.9487 25.0767 15.1665V12.3337C25.0767 11.5515 24.4425 10.9174 23.6603 10.9174Z" stroke="#F97316" stroke-width="1.41638" stroke-linecap="round" stroke-linejoin="round"/>
<path d="M23.6603 19.4156H12.3293C11.547 19.4156 10.9129 20.0498 10.9129 20.832V23.6648C10.9129 24.447 11.547 25.0812 12.3293 25.0812H23.6603C24.4425 25.0812 25.0767 24.447 25.0767 23.6648V20.832C25.0767 20.0498 24.4425 19.4156 23.6603 19.4156Z" stroke="#F97316" stroke-width="1.41638" stroke-linecap="round" stroke-linejoin="round"/>
<path d="M13.7457 13.7501H13.7527" stroke="#F97316" stroke-width="1.41638" stroke-linecap="round" stroke-linejoin="round"/>
<path d="M13.7457 22.2484H13.7527" stroke="#F97316" stroke-width="1.41638" stroke-linecap="round" stroke-linejoin="round"/>
</g>
<defs>
<clipPath id="clip0_193_1442">
<rect width="16.9965" height="16.9965" fill="white" transform="translate(9.49652 9.50098)"/>
</clipPath>
</defs>
</svg>
