<svg width="36" height="36" viewBox="0 0 36 36" fill="none" xmlns="http://www.w3.org/2000/svg">
<path d="M0 14C0 6.26802 6.26801 0 14 0H21.9983C29.7303 0 35.9983 6.26802 35.9983 14V21.9983C35.9983 29.7303 29.7303 35.9983 21.9983 35.9983H14C6.26801 35.9983 0 29.7303 0 21.9983V14Z" fill="#4F46E5" fill-opacity="0.082"/>
<g clip-path="url(#clip0_193_1863)">
<path d="M24.6651 17.9992H23.0119C22.7206 17.9986 22.4371 18.0934 22.2048 18.2691C21.9724 18.4449 21.8041 18.6919 21.7254 18.9724L20.1589 24.5452C20.1488 24.5798 20.1278 24.6102 20.0989 24.6318C20.0701 24.6534 20.035 24.6651 19.9989 24.6651C19.9629 24.6651 19.9278 24.6534 19.8989 24.6318C19.8701 24.6102 19.849 24.5798 19.8389 24.5452L16.1593 11.4532C16.1492 11.4186 16.1282 11.3882 16.0993 11.3666C16.0705 11.3449 16.0354 11.3333 15.9994 11.3333C15.9633 11.3333 15.9282 11.3449 15.8994 11.3666C15.8705 11.3882 15.8495 11.4186 15.8394 11.4532L14.2729 17.026C14.1945 17.3054 14.0272 17.5516 13.7962 17.7272C13.5652 17.9029 13.2832 17.9984 12.993 17.9992H11.3332" stroke="#4F46E5" stroke-width="1.33319" stroke-linecap="round" stroke-linejoin="round"/>
</g>
<defs>
<clipPath id="clip0_193_1863">
<rect width="15.9983" height="15.9983" fill="white" transform="translate(10 10)"/>
</clipPath>
</defs>
</svg>
