<svg width="16" height="16" viewBox="0 0 16 16" fill="none" xmlns="http://www.w3.org/2000/svg">
<path d="M1.99979 4.66613V3.33294C1.99979 2.97936 2.14025 2.64026 2.39027 2.39024C2.64029 2.14022 2.97939 1.99976 3.33298 1.99976H4.66616" stroke="#A78BFA" stroke-width="1.33319" stroke-linecap="round" stroke-linejoin="round"/>
<path d="M11.3321 1.99976H12.6653C13.0189 1.99976 13.358 2.14022 13.608 2.39024C13.858 2.64026 13.9985 2.97936 13.9985 3.33294V4.66613" stroke="#A78BFA" stroke-width="1.33319" stroke-linecap="round" stroke-linejoin="round"/>
<path d="M13.9985 11.3322V12.6653C13.9985 13.0189 13.858 13.358 13.608 13.608C13.358 13.8581 13.0189 13.9985 12.6653 13.9985H11.3321" stroke="#A78BFA" stroke-width="1.33319" stroke-linecap="round" stroke-linejoin="round"/>
<path d="M4.66616 13.9985H3.33298C2.97939 13.9985 2.64029 13.8581 2.39027 13.608C2.14025 13.358 1.99979 13.0189 1.99979 12.6653V11.3322" stroke="#A78BFA" stroke-width="1.33319" stroke-linecap="round" stroke-linejoin="round"/>
</svg>
