<svg width="36" height="36" viewBox="0 0 36 36" fill="none" xmlns="http://www.w3.org/2000/svg">
<path d="M0 14C0 6.26801 6.26801 0 14 0H21.9983C29.7303 0 35.9983 6.26801 35.9983 14V21.9983C35.9983 29.7303 29.7303 35.9983 21.9983 35.9983H14C6.26801 35.9983 0 29.7303 0 21.9983V14Z" fill="#F97316" fill-opacity="0.082"/>
<path d="M12.691 13.125C12.6647 13.0643 12.6573 12.997 12.6697 12.932C12.682 12.867 12.7137 12.8073 12.7605 12.7605C12.8073 12.7137 12.867 12.682 12.932 12.6696C12.997 12.6573 13.0643 12.6647 13.125 12.691L23.7905 17.0239C23.8553 17.0503 23.9102 17.0965 23.9474 17.1559C23.9845 17.2152 24.002 17.2848 23.9973 17.3547C23.9927 17.4245 23.9661 17.4912 23.9215 17.5451C23.8768 17.599 23.8163 17.6375 23.7485 17.6551L19.6663 18.7084C19.4356 18.7677 19.2251 18.8877 19.0565 19.0559C18.8879 19.2241 18.7675 19.4344 18.7077 19.6649L17.6552 23.7485C17.6376 23.8163 17.5991 23.8768 17.5451 23.9214C17.4912 23.9661 17.4246 23.9926 17.3547 23.9973C17.2848 24.0019 17.2153 23.9845 17.1559 23.9473C17.0965 23.9102 17.0503 23.8553 17.0239 23.7905L12.691 13.125Z" stroke="#F97316" stroke-width="1.33319" stroke-linecap="round" stroke-linejoin="round"/>
</svg>
