<svg width="32" height="32" viewBox="0 0 32 32" fill="none" xmlns="http://www.w3.org/2000/svg">
<mask id="path-1-inside-1_193_10356" fill="white">
<path d="M0 10C0 4.47715 4.47715 0 10 0H21.9965C27.5194 0 31.9965 4.47715 31.9965 10V21.9965C31.9965 27.5194 27.5194 31.9965 21.9965 31.9965H10C4.47715 31.9965 0 27.5194 0 21.9965V10Z"/>
</mask>
<path d="M0 10C0 4.47715 4.47715 0 10 0H21.9965C27.5194 0 31.9965 4.47715 31.9965 10V21.9965C31.9965 27.5194 27.5194 31.9965 21.9965 31.9965H10C4.47715 31.9965 0 27.5194 0 21.9965V10Z" fill="#18181B"/>
<path d="M10 0V0.555556H21.9965V0V-0.555556H10V0ZM31.9965 10H31.441V21.9965H31.9965H32.5521V10H31.9965ZM21.9965 31.9965V31.441H10V31.9965V32.5521H21.9965V31.9965ZM0 21.9965H0.555556V10H0H-0.555556V21.9965H0ZM10 31.9965V31.441C4.78398 31.441 0.555556 27.2125 0.555556 21.9965H0H-0.555556C-0.555556 27.8262 4.17033 32.5521 10 32.5521V31.9965ZM31.9965 21.9965H31.441C31.441 27.2125 27.2125 31.441 21.9965 31.441V31.9965V32.5521C27.8262 32.5521 32.5521 27.8262 32.5521 21.9965H31.9965ZM21.9965 0V0.555556C27.2125 0.555556 31.441 4.78398 31.441 10H31.9965H32.5521C32.5521 4.17033 27.8262 -0.555556 21.9965 -0.555556V0ZM10 0V-0.555556C4.17033 -0.555556 -0.555556 4.17033 -0.555556 10H0H0.555556C0.555556 4.78398 4.78398 0.555556 10 0.555556V0Z" fill="white" fill-opacity="0.06" mask="url(#path-1-inside-1_193_10356)"/>
<g clip-path="url(#clip0_193_10356)">
<path d="M14.2495 11.3339V20.6626L16.5817 18.3304L18.9139 21.8287L20.08 21.2456L17.7478 17.7473H20.663L14.2495 11.3339Z" stroke="white" stroke-width="1.02033" stroke-linecap="round" stroke-linejoin="round"/>
<path opacity="0.35" d="M10.751 14.2491C10.751 13.012 11.2424 11.8256 12.1171 10.9509C12.9919 10.0761 14.1783 9.58472 15.4153 9.58472" stroke="white" stroke-width="1.16609" stroke-linecap="round" stroke-linejoin="round"/>
<path opacity="0.55" d="M11.917 14.2491C11.917 13.3213 12.2856 12.4315 12.9416 11.7755C13.5977 11.1194 14.4875 10.7509 15.4153 10.7509" stroke="white" stroke-width="1.16609" stroke-linecap="round" stroke-linejoin="round"/>
<path opacity="0.75" d="M13.0835 14.249C13.0835 13.6305 13.3292 13.0373 13.7666 12.5999C14.2039 12.1626 14.7971 11.9169 15.4157 11.9169" stroke="white" stroke-width="1.16609" stroke-linecap="round" stroke-linejoin="round"/>
</g>
<defs>
<clipPath id="clip0_193_10356">
<rect width="13.9931" height="13.9931" fill="white" transform="translate(9.00195 9.00171)"/>
</clipPath>
</defs>
</svg>
