<svg width="32" height="32" viewBox="0 0 32 32" fill="none" xmlns="http://www.w3.org/2000/svg">
<mask id="path-1-inside-1_193_10410" fill="white">
<path d="M0 10C0 4.47715 4.47715 0 10 0H21.9965C27.5194 0 31.9965 4.47715 31.9965 10V21.9965C31.9965 27.5194 27.5194 31.9965 21.9965 31.9965H10C4.47715 31.9965 0 27.5194 0 21.9965V10Z"/>
</mask>
<path d="M0 10C0 4.47715 4.47715 0 10 0H21.9965C27.5194 0 31.9965 4.47715 31.9965 10V21.9965C31.9965 27.5194 27.5194 31.9965 21.9965 31.9965H10C4.47715 31.9965 0 27.5194 0 21.9965V10Z" fill="#18181B"/>
<path d="M10 0V0.555556H21.9965V0V-0.555556H10V0ZM31.9965 10H31.441V21.9965H31.9965H32.5521V10H31.9965ZM21.9965 31.9965V31.441H10V31.9965V32.5521H21.9965V31.9965ZM0 21.9965H0.555556V10H0H-0.555556V21.9965H0ZM10 31.9965V31.441C4.78398 31.441 0.555556 27.2125 0.555556 21.9965H0H-0.555556C-0.555556 27.8262 4.17033 32.5521 10 32.5521V31.9965ZM31.9965 21.9965H31.441C31.441 27.2125 27.2125 31.441 21.9965 31.441V31.9965V32.5521C27.8262 32.5521 32.5521 27.8262 32.5521 21.9965H31.9965ZM21.9965 0V0.555556C27.2125 0.555556 31.441 4.78398 31.441 10H31.9965H32.5521C32.5521 4.17033 27.8262 -0.555556 21.9965 -0.555556V0ZM10 0V-0.555556C4.17033 -0.555556 -0.555556 4.17033 -0.555556 10H0H0.555556C0.555556 4.78398 4.78398 0.555556 10 0.555556V0Z" fill="white" fill-opacity="0.06" mask="url(#path-1-inside-1_193_10410)"/>
<path d="M14.2496 21.2456H17.7479M14.8326 21.2456V20.0795C14.2188 19.8116 13.7159 19.3405 13.4086 18.7455C13.1012 18.1504 13.0082 17.4677 13.145 16.812C13.2818 16.1564 13.6402 15.5679 14.1599 15.1455C14.6797 14.723 15.329 14.4924 15.9987 14.4924C16.6685 14.4924 17.3178 14.723 17.8375 15.1455C18.3572 15.5679 18.7156 16.1564 18.8524 16.812C18.9893 17.4677 18.8962 18.1504 18.5889 18.7455C18.2815 19.3405 17.7786 19.8116 17.1648 20.0795V21.2456" stroke="white" stroke-width="1.16609" stroke-linecap="round" stroke-linejoin="round"/>
<path opacity="0.6" d="M14.541 15.9983L15.1241 16.8729L15.9986 15.9983L16.8732 16.8729L17.7478 15.9983" stroke="white" stroke-width="0.874566" stroke-linecap="round" stroke-linejoin="round"/>
</svg>
