<svg width="32" height="32" viewBox="0 0 32 32" fill="none" xmlns="http://www.w3.org/2000/svg">
<mask id="path-1-inside-1_193_10369" fill="white">
<path d="M0 10C0 4.47715 4.47715 0 10 0H21.9965C27.5194 0 31.9965 4.47715 31.9965 10V21.9965C31.9965 27.5194 27.5194 31.9965 21.9965 31.9965H10C4.47715 31.9965 0 27.5194 0 21.9965V10Z"/>
</mask>
<path d="M0 10C0 4.47715 4.47715 0 10 0H21.9965C27.5194 0 31.9965 4.47715 31.9965 10V21.9965C31.9965 27.5194 27.5194 31.9965 21.9965 31.9965H10C4.47715 31.9965 0 27.5194 0 21.9965V10Z" fill="#18181B"/>
<path d="M10 0V0.555556H21.9965V0V-0.555556H10V0ZM31.9965 10H31.441V21.9965H31.9965H32.5521V10H31.9965ZM21.9965 31.9965V31.441H10V31.9965V32.5521H21.9965V31.9965ZM0 21.9965H0.555556V10H0H-0.555556V21.9965H0ZM10 31.9965V31.441C4.78398 31.441 0.555556 27.2125 0.555556 21.9965H0H-0.555556C-0.555556 27.8262 4.17033 32.5521 10 32.5521V31.9965ZM31.9965 21.9965H31.441C31.441 27.2125 27.2125 31.441 21.9965 31.441V31.9965V32.5521C27.8262 32.5521 32.5521 27.8262 32.5521 21.9965H31.9965ZM21.9965 0V0.555556C27.2125 0.555556 31.441 4.78398 31.441 10H31.9965H32.5521C32.5521 4.17033 27.8262 -0.555556 21.9965 -0.555556V0ZM10 0V-0.555556C4.17033 -0.555556 -0.555556 4.17033 -0.555556 10H0H0.555556C0.555556 4.78398 4.78398 0.555556 10 0.555556V0Z" fill="white" fill-opacity="0.06" mask="url(#path-1-inside-1_193_10369)"/>
<path opacity="0.3" d="M10.751 20.6626H21.2458" stroke="white" stroke-width="1.16609" stroke-linecap="round" stroke-linejoin="round"/>
<path opacity="0.5" d="M12.5001 15.9983H11.917C11.595 15.9983 11.334 16.2593 11.334 16.5813V20.0796C11.334 20.4016 11.595 20.6626 11.917 20.6626H12.5001C12.8221 20.6626 13.0831 20.4016 13.0831 20.0796V16.5813C13.0831 16.2593 12.8221 15.9983 12.5001 15.9983Z" stroke="white" stroke-width="1.16609" stroke-linecap="round" stroke-linejoin="round"/>
<path opacity="0.7" d="M15.9986 13.083H15.4156C15.0936 13.083 14.8325 13.344 14.8325 13.6661V20.0795C14.8325 20.4015 15.0936 20.6626 15.4156 20.6626H15.9986C16.3206 20.6626 16.5817 20.4015 16.5817 20.0795V13.6661C16.5817 13.344 16.3206 13.083 15.9986 13.083Z" stroke="white" stroke-width="1.16609" stroke-linecap="round" stroke-linejoin="round"/>
<path d="M19.4967 11.3339H18.9136C18.5916 11.3339 18.3306 11.5949 18.3306 11.9169V20.0795C18.3306 20.4015 18.5916 20.6626 18.9136 20.6626H19.4967C19.8187 20.6626 20.0797 20.4015 20.0797 20.0795V11.9169C20.0797 11.5949 19.8187 11.3339 19.4967 11.3339Z" stroke="white" stroke-width="1.16609" stroke-linecap="round" stroke-linejoin="round"/>
<path opacity="0.65" d="M10.751 18.3304L13.0832 16.5813L15.4153 17.7474L17.7475 14.8322L20.0797 15.4152" stroke="white" stroke-width="0.874566" stroke-linecap="round" stroke-linejoin="round"/>
</svg>
