<svg width="22" height="22" viewBox="0 0 22 22" fill="none" xmlns="http://www.w3.org/2000/svg">
<path d="M20.1634 10.9982H17.8905C17.4899 10.9974 17.1001 11.1277 16.7807 11.3694C16.4612 11.611 16.2297 11.9507 16.1216 12.3364L13.9678 19.9985C13.9539 20.0461 13.9249 20.0879 13.8853 20.1176C13.8456 20.1474 13.7974 20.1634 13.7478 20.1634C13.6982 20.1634 13.65 20.1474 13.6103 20.1176C13.5707 20.0879 13.5417 20.0461 13.5278 19.9985L8.46863 1.99798C8.45475 1.95039 8.4258 1.90858 8.38614 1.87883C8.34648 1.84909 8.29824 1.83301 8.24866 1.83301C8.19908 1.83301 8.15085 1.84909 8.11118 1.87883C8.07152 1.90858 8.04258 1.95039 8.0287 1.99798L5.87487 9.66011C5.76715 10.0443 5.53702 10.3828 5.21943 10.6243C4.90184 10.8658 4.51413 10.9971 4.11515 10.9982H1.83301" stroke="#A78BFA" stroke-width="1.83304" stroke-linecap="round" stroke-linejoin="round"/>
</svg>
