<svg width="22" height="22" viewBox="0 0 22 22" fill="none" xmlns="http://www.w3.org/2000/svg">
<path d="M3.7 4.29714C3.66382 4.21366 3.65359 4.12123 3.67061 4.03186C3.68764 3.94249 3.73114 3.8603 3.79548 3.79597C3.85981 3.73163 3.942 3.68813 4.03137 3.6711C4.12075 3.65408 4.21317 3.66431 4.29665 3.70049L18.961 9.65788C19.0502 9.69421 19.1256 9.7577 19.1767 9.83934C19.2277 9.92098 19.2517 10.0166 19.2454 10.1127C19.239 10.2088 19.2025 10.3004 19.1411 10.3745C19.0797 10.4487 18.9965 10.5016 18.9033 10.5258L13.2905 11.9739C12.9734 12.0555 12.6839 12.2204 12.4521 12.4517C12.2203 12.683 12.0547 12.9722 11.9725 13.2891L10.5253 18.9038C10.5011 18.9969 10.4482 19.0801 10.374 19.1416C10.2999 19.203 10.2083 19.2395 10.1122 19.2458C10.0161 19.2522 9.92049 19.2282 9.83885 19.1772C9.75721 19.1261 9.69372 19.0507 9.65739 18.9615L3.7 4.29714Z" stroke="#F97316" stroke-width="1.83304" stroke-linecap="round" stroke-linejoin="round"/>
</svg>
