<svg width="14" height="14" viewBox="0 0 14 14" fill="none" xmlns="http://www.w3.org/2000/svg">
<path d="M3.49816 1.16602L1.74902 3.49819V11.6608C1.74902 11.9701 1.87188 12.2667 2.09056 12.4854C2.30925 12.704 2.60585 12.8269 2.91511 12.8269H11.0777C11.387 12.8269 11.6836 12.704 11.9023 12.4854C12.121 12.2667 12.2438 11.9701 12.2438 11.6608V3.49819L10.4947 1.16602H3.49816Z" stroke="#EAB308" stroke-width="1.16609" stroke-linecap="round" stroke-linejoin="round"/>
<path d="M1.74902 3.49805H12.2438" stroke="#EAB308" stroke-width="1.16609" stroke-linecap="round" stroke-linejoin="round"/>
<path d="M9.32841 5.83008C9.32841 6.44861 9.0827 7.04181 8.64534 7.47918C8.20797 7.91654 7.61477 8.16225 6.99624 8.16225C6.37771 8.16225 5.78451 7.91654 5.34714 7.47918C4.90977 7.04181 4.66406 6.44861 4.66406 5.83008" stroke="#EAB308" stroke-width="1.16609" stroke-linecap="round" stroke-linejoin="round"/>
</svg>
