<svg width="14" height="14" viewBox="0 0 14 14" fill="none" xmlns="http://www.w3.org/2000/svg">
<path d="M4.0812 1.74902H2.33207C2.01006 1.74902 1.74902 2.01006 1.74902 2.33207V4.0812C1.74902 4.40321 2.01006 4.66424 2.33207 4.66424H4.0812C4.40321 4.66424 4.66424 4.40321 4.66424 4.0812V2.33207C4.66424 2.01006 4.40321 1.74902 4.0812 1.74902Z" stroke="#4F46E5" stroke-width="1.16609" stroke-linecap="round" stroke-linejoin="round"/>
<path d="M11.6608 1.74902H9.91166C9.58965 1.74902 9.32861 2.01006 9.32861 2.33207V4.0812C9.32861 4.40321 9.58965 4.66424 9.91166 4.66424H11.6608C11.9828 4.66424 12.2438 4.40321 12.2438 4.0812V2.33207C12.2438 2.01006 11.9828 1.74902 11.6608 1.74902Z" stroke="#4F46E5" stroke-width="1.16609" stroke-linecap="round" stroke-linejoin="round"/>
<path d="M4.0812 9.3291H2.33207C2.01006 9.3291 1.74902 9.59014 1.74902 9.91215V11.6613C1.74902 11.9833 2.01006 12.2443 2.33207 12.2443H4.0812C4.40321 12.2443 4.66424 11.9833 4.66424 11.6613V9.91215C4.66424 9.59014 4.40321 9.3291 4.0812 9.3291Z" stroke="#4F46E5" stroke-width="1.16609" stroke-linecap="round" stroke-linejoin="round"/>
<path d="M12.2438 9.3291H10.4947C10.1854 9.3291 9.88884 9.45196 9.67015 9.67064C9.45147 9.88932 9.32861 10.1859 9.32861 10.4952V12.2443" stroke="#4F46E5" stroke-width="1.16609" stroke-linecap="round" stroke-linejoin="round"/>
<path d="M12.2441 12.2441V12.25" stroke="#4F46E5" stroke-width="1.16609" stroke-linecap="round" stroke-linejoin="round"/>
<path d="M6.99627 4.08105V5.83019C6.99627 6.13945 6.87342 6.43605 6.65474 6.65474C6.43605 6.87342 6.13945 6.99627 5.83019 6.99627H4.08105" stroke="#4F46E5" stroke-width="1.16609" stroke-linecap="round" stroke-linejoin="round"/>
<path d="M1.74902 6.99609H1.75485" stroke="#4F46E5" stroke-width="1.16609" stroke-linecap="round" stroke-linejoin="round"/>
<path d="M6.99658 1.74902H7.00241" stroke="#4F46E5" stroke-width="1.16609" stroke-linecap="round" stroke-linejoin="round"/>
<path d="M6.99658 9.3291V9.33493" stroke="#4F46E5" stroke-width="1.16609" stroke-linecap="round" stroke-linejoin="round"/>
<path d="M9.32861 6.99609H9.91166" stroke="#4F46E5" stroke-width="1.16609" stroke-linecap="round" stroke-linejoin="round"/>
<path d="M12.2441 6.99609V7.00192" stroke="#4F46E5" stroke-width="1.16609" stroke-linecap="round" stroke-linejoin="round"/>
<path d="M6.99658 12.2442V11.6611" stroke="#4F46E5" stroke-width="1.16609" stroke-linecap="round" stroke-linejoin="round"/>
</svg>
