<svg width="14" height="14" viewBox="0 0 14 14" fill="none" xmlns="http://www.w3.org/2000/svg">
<path d="M11.6607 5.83037C11.6607 8.74151 8.43125 11.7733 7.34679 12.7097C7.24577 12.7857 7.12279 12.8267 6.99638 12.8267C6.86998 12.8267 6.747 12.7857 6.64597 12.7097C5.56151 11.7733 2.33203 8.74151 2.33203 5.83037C2.33203 4.5933 2.82345 3.40691 3.69819 2.53217C4.57292 1.65744 5.75932 1.16602 6.99638 1.16602C8.23345 1.16602 9.41984 1.65744 10.2946 2.53217C11.1693 3.40691 11.6607 4.5933 11.6607 5.83037Z" stroke="#A78BFA" stroke-width="1.16609" stroke-linecap="round" stroke-linejoin="round"/>
<path d="M6.9962 7.57932C7.96222 7.57932 8.74533 6.79621 8.74533 5.83019C8.74533 4.86417 7.96222 4.08105 6.9962 4.08105C6.03018 4.08105 5.24707 4.86417 5.24707 5.83019C5.24707 6.79621 6.03018 7.57932 6.9962 7.57932Z" stroke="#A78BFA" stroke-width="1.16609" stroke-linecap="round" stroke-linejoin="round"/>
</svg>
