<svg width="31" height="33" viewBox="0 0 31 33" fill="none" xmlns="http://www.w3.org/2000/svg">
<g filter="url(#filter0_d_244_1240)">
<g clip-path="url(#clip0_244_1240)">
<path d="M9.50234 16.7493C9.36045 16.7498 9.22134 16.71 9.10117 16.6346C8.981 16.5592 8.88469 16.4512 8.82345 16.3232C8.7622 16.1952 8.73853 16.0525 8.75518 15.9116C8.77183 15.7707 8.82812 15.6374 8.91751 15.5272L16.3404 7.87942C16.396 7.81515 16.4719 7.77171 16.5555 7.75625C16.6392 7.74079 16.7255 7.75421 16.8005 7.79432C16.8755 7.83443 16.9346 7.89883 16.9682 7.97697C17.0017 8.0551 17.0077 8.14233 16.9852 8.22432L15.5456 12.738C15.5031 12.8516 15.4889 12.9738 15.504 13.0942C15.5192 13.2145 15.5633 13.3293 15.6326 13.4289C15.7019 13.5284 15.7943 13.6096 15.9019 13.6656C16.0095 13.7216 16.1291 13.7506 16.2504 13.7502H21.4989C21.6408 13.7497 21.7799 13.7895 21.9 13.865C22.0202 13.9404 22.1165 14.0484 22.1778 14.1764C22.239 14.3043 22.2627 14.4471 22.246 14.588C22.2294 14.7289 22.1731 14.8622 22.0837 14.9724L14.6608 22.6201C14.6052 22.6844 14.5293 22.7279 14.4457 22.7433C14.3621 22.7588 14.2757 22.7454 14.2007 22.7052C14.1257 22.6651 14.0666 22.6007 14.033 22.5226C13.9995 22.4445 13.9935 22.3572 14.016 22.2753L15.4556 17.7616C15.4981 17.6479 15.5123 17.5257 15.4972 17.4054C15.482 17.2851 15.4379 17.1702 15.3686 17.0707C15.2993 16.9712 15.2069 16.8899 15.0993 16.834C14.9917 16.778 14.8721 16.749 14.7508 16.7493H9.50234Z" stroke="#4F46E5" stroke-width="1.49957" stroke-linecap="round" stroke-linejoin="round"/>
</g>
</g>
<defs>
<filter id="filter0_d_244_1240" x="-1.49658" y="-0.748047" width="33.9946" height="33.9951" filterUnits="userSpaceOnUse" color-interpolation-filters="sRGB">
<feFlood flood-opacity="0" result="BackgroundImageFix"/>
<feColorMatrix in="SourceAlpha" type="matrix" values="0 0 0 0 0 0 0 0 0 0 0 0 0 0 0 0 0 0 127 0" result="hardAlpha"/>
<feOffset dy="1"/>
<feGaussianBlur stdDeviation="4"/>
<feColorMatrix type="matrix" values="0 0 0 0 0.309804 0 0 0 0 0.27451 0 0 0 0 0.898039 0 0 0 0.5 0"/>
<feBlend mode="normal" in2="BackgroundImageFix" result="effect1_dropShadow_244_1240"/>
<feBlend mode="normal" in="SourceGraphic" in2="effect1_dropShadow_244_1240" result="shape"/>
</filter>
<clipPath id="clip0_244_1240">
<rect width="17.9948" height="17.9948" fill="white" transform="translate(6.50342 6.25195)"/>
</clipPath>
</defs>
</svg>
