<svg width="12" height="12" viewBox="0 0 12 12" fill="none" xmlns="http://www.w3.org/2000/svg">
<path d="M3.49893 1.5H1.99937C1.7233 1.5 1.49951 1.72379 1.49951 1.99986V3.49942C1.49951 3.77548 1.7233 3.99928 1.99937 3.99928H3.49893C3.775 3.99928 3.99879 3.77548 3.99879 3.49942V1.99986C3.99879 1.72379 3.775 1.5 3.49893 1.5Z" stroke="#F97316" stroke-width="0.999711" stroke-linecap="round" stroke-linejoin="round"/>
<path d="M9.99722 1.5H8.49766C8.2216 1.5 7.9978 1.72379 7.9978 1.99986V3.49942C7.9978 3.77548 8.2216 3.99928 8.49766 3.99928H9.99722C10.2733 3.99928 10.4971 3.77548 10.4971 3.49942V1.99986C10.4971 1.72379 10.2733 1.5 9.99722 1.5Z" stroke="#F97316" stroke-width="0.999711" stroke-linecap="round" stroke-linejoin="round"/>
<path d="M3.49893 7.99805H1.99937C1.7233 7.99805 1.49951 8.22184 1.49951 8.4979V9.99747C1.49951 10.2735 1.7233 10.4973 1.99937 10.4973H3.49893C3.775 10.4973 3.99879 10.2735 3.99879 9.99747V8.4979C3.99879 8.22184 3.775 7.99805 3.49893 7.99805Z" stroke="#F97316" stroke-width="0.999711" stroke-linecap="round" stroke-linejoin="round"/>
<path d="M10.4971 7.99805H8.99751C8.73237 7.99805 8.47809 8.10337 8.29061 8.29086C8.10313 8.47834 7.9978 8.73262 7.9978 8.99776V10.4973" stroke="#F97316" stroke-width="0.999711" stroke-linecap="round" stroke-linejoin="round"/>
<path d="M10.4971 10.4971V10.5021" stroke="#F97316" stroke-width="0.999711" stroke-linecap="round" stroke-linejoin="round"/>
<path d="M5.9983 3.49902V4.99859C5.9983 5.26373 5.89297 5.51801 5.70549 5.70549C5.51801 5.89297 5.26373 5.9983 4.99859 5.9983H3.49902" stroke="#F97316" stroke-width="0.999711" stroke-linecap="round" stroke-linejoin="round"/>
<path d="M1.49951 5.99805H1.50451" stroke="#F97316" stroke-width="0.999711" stroke-linecap="round" stroke-linejoin="round"/>
<path d="M5.99829 1.5H6.00329" stroke="#F97316" stroke-width="0.999711" stroke-linecap="round" stroke-linejoin="round"/>
<path d="M5.99829 7.99805V8.00305" stroke="#F97316" stroke-width="0.999711" stroke-linecap="round" stroke-linejoin="round"/>
<path d="M7.9978 5.99805H8.49766" stroke="#F97316" stroke-width="0.999711" stroke-linecap="round" stroke-linejoin="round"/>
<path d="M10.4971 5.99805V6.00305" stroke="#F97316" stroke-width="0.999711" stroke-linecap="round" stroke-linejoin="round"/>
<path d="M5.99829 10.4969V9.99707" stroke="#F97316" stroke-width="0.999711" stroke-linecap="round" stroke-linejoin="round"/>
</svg>
