<svg width="12" height="12" viewBox="0 0 12 12" fill="none" xmlns="http://www.w3.org/2000/svg">
<g clip-path="url(#clip0_333_3823)">
<path d="M10.9969 5.99855H9.75722C9.53877 5.99809 9.32618 6.06919 9.15196 6.20098C8.97774 6.33277 8.85148 6.518 8.7925 6.72834L7.61784 10.9071C7.61027 10.9331 7.59448 10.9559 7.57285 10.9721C7.55122 10.9883 7.52491 10.9971 7.49788 10.9971C7.47084 10.9971 7.44453 10.9883 7.4229 10.9721C7.40127 10.9559 7.38548 10.9331 7.37791 10.9071L4.61871 1.08997C4.61114 1.06402 4.59535 1.04122 4.57372 1.02499C4.55209 1.00877 4.52578 1 4.49874 1C4.4717 1 4.4454 1.00877 4.42377 1.02499C4.40213 1.04122 4.38635 1.06402 4.37878 1.08997L3.20412 5.26876C3.14537 5.47828 3.01986 5.66291 2.84665 5.79462C2.67344 5.92633 2.46199 5.99793 2.2444 5.99855H0.999756" stroke="#4F46E5" stroke-width="0.999711" stroke-linecap="round" stroke-linejoin="round"/>
</g>
<defs>
<clipPath id="clip0_333_3823">
<rect width="11.9965" height="11.9965" fill="white"/>
</clipPath>
</defs>
</svg>
