<svg width="40" height="40" viewBox="0 0 40 40" fill="none" xmlns="http://www.w3.org/2000/svg">
<path d="M0 14C0 6.26801 6.26801 0 14 0H26C33.732 0 40 6.26801 40 14V26C40 33.732 33.732 40 26 40H14C6.26801 40 0 33.732 0 26V14Z" fill="#18181B"/>
<path d="M22.995 14.752H13.9976C13.1694 14.752 12.498 15.4233 12.498 16.2515V22.2498C12.498 23.078 13.1694 23.7493 13.9976 23.7493H22.995C23.8232 23.7493 24.4946 23.078 24.4946 22.2498V16.2515C24.4946 15.4233 23.8232 14.752 22.995 14.752Z" stroke="white" stroke-width="1.49957" stroke-linecap="round" stroke-linejoin="round"/>
<path d="M24.4941 17.7505L27.4933 16.251V22.2492L24.4941 20.7497" stroke="white" stroke-width="1.49957" stroke-linecap="round" stroke-linejoin="round"/>
<path d="M25.9937 12.5029L26.3686 13.6276L27.4933 14.0025L26.3686 14.3774L25.9937 15.5021L25.6188 14.3774L24.4941 14.0025L25.6188 13.6276L25.9937 12.5029Z" fill="white"/>
<path opacity="0.55" d="M15.4971 17.751L17.7464 20.0003L15.4971 22.2497" stroke="white" stroke-width="1.12467" stroke-linecap="round" stroke-linejoin="round"/>
</svg>
