<svg width="40" height="40" viewBox="0 0 40 40" fill="none" xmlns="http://www.w3.org/2000/svg">
<path d="M0 14C0 6.26801 6.26801 0 14 0H26C33.732 0 40 6.26801 40 14V26C40 33.732 33.732 40 26 40H14C6.26801 40 0 33.732 0 26V14Z" fill="#18181B"/>
<path opacity="0.45" d="M21.1206 14.002H13.6227C13.0016 14.002 12.498 14.5055 12.498 15.1266V20.3751C12.498 20.9962 13.0016 21.4998 13.6227 21.4998H21.1206C21.7417 21.4998 22.2452 20.9962 22.2452 20.3751V15.1266C22.2452 14.5055 21.7417 14.002 21.1206 14.002Z" stroke="white" stroke-width="1.49957" stroke-linecap="round" stroke-linejoin="round"/>
<path d="M25.6186 17.751H18.1208C17.4996 17.751 16.9961 18.2545 16.9961 18.8757V24.1241C16.9961 24.7453 17.4996 25.2488 18.1208 25.2488H25.6186C26.2397 25.2488 26.7433 24.7453 26.7433 24.1241V18.8757C26.7433 18.2545 26.2397 17.751 25.6186 17.751Z" stroke="white" stroke-width="1.49957" stroke-linecap="round" stroke-linejoin="round"/>
<path opacity="0.8" d="M21.4951 21.5L22.6198 24.4991L23.7445 23.3745L24.8691 24.4991" stroke="white" stroke-width="1.12467" stroke-linecap="round" stroke-linejoin="round"/>
</svg>
