<svg width="40" height="40" viewBox="0 0 40 40" fill="none" xmlns="http://www.w3.org/2000/svg">
<path d="M0 14C0 6.26801 6.26801 0 14 0H26C33.732 0 40 6.26801 40 14V26C40 33.732 33.732 40 26 40H14C6.26801 40 0 33.732 0 26V14Z" fill="#18181B"/>
<path d="M25.9941 13.2529H13.9976C13.1694 13.2529 12.498 13.9243 12.498 14.7525V21.5005C12.498 22.3287 13.1694 23.0001 13.9976 23.0001H25.9941C26.8223 23.0001 27.4937 22.3287 27.4937 21.5005V14.7525C27.4937 13.9243 26.8223 13.2529 25.9941 13.2529Z" stroke="white" stroke-width="1.49957" stroke-linecap="round" stroke-linejoin="round"/>
<path d="M16.9961 26.748H22.9944" stroke="white" stroke-width="1.49957" stroke-linecap="round" stroke-linejoin="round"/>
<path d="M19.9951 22.999V26.7479" stroke="white" stroke-width="1.49957" stroke-linecap="round" stroke-linejoin="round"/>
<path opacity="0.7" d="M18.1207 17.751L16.6211 19.6254L18.1207 21.4999" stroke="white" stroke-width="1.49957" stroke-linecap="round" stroke-linejoin="round"/>
<path opacity="0.7" d="M21.8701 17.751L23.3697 19.6254L21.8701 21.4999" stroke="white" stroke-width="1.49957" stroke-linecap="round" stroke-linejoin="round"/>
</svg>
