<svg width="13" height="13" viewBox="0 0 13 13" fill="none" xmlns="http://www.w3.org/2000/svg">
<g clip-path="url(#clip0_244_7331)">
<path d="M8.6633 11.3708V10.2879C8.6633 9.71346 8.43512 9.16258 8.02896 8.75642C7.62279 8.35025 7.07191 8.12207 6.4975 8.12207H3.24881C2.6744 8.12207 2.12352 8.35025 1.71736 8.75642C1.31119 9.16258 1.08301 9.71346 1.08301 10.2879V11.3708" stroke="#4F46E5" stroke-width="1.0829" stroke-linecap="round" stroke-linejoin="round"/>
<path d="M4.87283 5.95562C6.06897 5.95562 7.03863 4.98596 7.03863 3.78982C7.03863 2.59368 6.06897 1.62402 4.87283 1.62402C3.67669 1.62402 2.70703 2.59368 2.70703 3.78982C2.70703 4.98596 3.67669 5.95562 4.87283 5.95562Z" stroke="#4F46E5" stroke-width="1.0829" stroke-linecap="round" stroke-linejoin="round"/>
<path d="M11.9115 11.3707V10.2878C11.9111 9.80792 11.7514 9.34176 11.4574 8.96249C11.1634 8.58323 10.7517 8.31235 10.2871 8.19238" stroke="#4F46E5" stroke-width="1.0829" stroke-linecap="round" stroke-linejoin="round"/>
<path d="M8.66309 1.69434C9.12896 1.81362 9.54188 2.08456 9.83675 2.46445C10.1316 2.84433 10.2917 3.31155 10.2917 3.79245C10.2917 4.27335 10.1316 4.74057 9.83675 5.12046C9.54188 5.50035 9.12896 5.77129 8.66309 5.89057" stroke="#4F46E5" stroke-width="1.0829" stroke-linecap="round" stroke-linejoin="round"/>
</g>
<defs>
<clipPath id="clip0_244_7331">
<rect width="12.9948" height="12.9948" fill="white"/>
</clipPath>
</defs>
</svg>
