<svg width="13" height="13" viewBox="0 0 13 13" fill="none" xmlns="http://www.w3.org/2000/svg">
<g clip-path="url(#clip0_244_7346)">
<path d="M2.16537 7.57986C2.06291 7.58021 1.96245 7.55148 1.87567 7.49701C1.78888 7.44253 1.71934 7.36456 1.67511 7.27213C1.63088 7.17971 1.61379 7.07663 1.62581 6.97488C1.63784 6.87312 1.67848 6.77687 1.74304 6.6973L7.10339 1.17451C7.1436 1.1281 7.19839 1.09674 7.25877 1.08557C7.31916 1.0744 7.38154 1.0841 7.43569 1.11306C7.48984 1.14202 7.53253 1.18853 7.55676 1.24496C7.58099 1.30138 7.58532 1.36437 7.56903 1.42358L6.52945 4.6831C6.4988 4.76515 6.4885 4.8534 6.49945 4.9403C6.5104 5.02719 6.54226 5.11014 6.59231 5.18201C6.64235 5.25389 6.70909 5.31255 6.78679 5.35297C6.86449 5.39338 6.95083 5.41435 7.03841 5.41406H10.8286C10.931 5.41371 11.0315 5.44244 11.1183 5.49692C11.205 5.55139 11.2746 5.62937 11.3188 5.72179C11.363 5.81422 11.3801 5.91729 11.3681 6.01905C11.3561 6.1208 11.3154 6.21705 11.2509 6.29663L5.89054 11.8194C5.85033 11.8658 5.79554 11.8972 5.73515 11.9084C5.67477 11.9195 5.61238 11.9098 5.55824 11.8809C5.50409 11.8519 5.4614 11.8054 5.43717 11.749C5.41294 11.6925 5.40861 11.6296 5.42489 11.5703L6.46448 8.31082C6.49513 8.22878 6.50543 8.14052 6.49448 8.05363C6.48353 7.96673 6.45167 7.88379 6.40162 7.81191C6.35157 7.74004 6.28484 7.68137 6.20714 7.64096C6.12944 7.60054 6.0431 7.57958 5.95551 7.57986H2.16537Z" stroke="#4F46E5" stroke-width="1.0829" stroke-linecap="round" stroke-linejoin="round"/>
</g>
<defs>
<clipPath id="clip0_244_7346">
<rect width="12.9948" height="12.9948" fill="white"/>
</clipPath>
</defs>
</svg>
