<svg width="15" height="15" viewBox="0 0 15 15" fill="none" xmlns="http://www.w3.org/2000/svg">
<path d="M2.52257 2.93043C2.49791 2.8735 2.49093 2.81047 2.50254 2.74952C2.51415 2.68858 2.54381 2.63253 2.58768 2.58866C2.63155 2.54479 2.6876 2.51512 2.74855 2.50351C2.80949 2.4919 2.87252 2.49888 2.92945 2.52355L12.9294 6.58605C12.9903 6.61082 13.0417 6.65412 13.0765 6.70979C13.1113 6.76546 13.1277 6.83068 13.1234 6.8962C13.119 6.96171 13.0941 7.02419 13.0522 7.07476C13.0104 7.12533 12.9536 7.16143 12.8901 7.17793L9.06258 8.16543C8.84632 8.22102 8.6489 8.33353 8.49085 8.49125C8.33279 8.64898 8.21987 8.84616 8.16382 9.0623L7.17695 12.8911C7.16045 12.9546 7.12435 13.0113 7.07378 13.0532C7.02321 13.0951 6.96073 13.12 6.89522 13.1243C6.82971 13.1287 6.76449 13.1123 6.70881 13.0775C6.65314 13.0427 6.60985 12.9912 6.58507 12.9304L2.52257 2.93043Z" stroke="#F97316" stroke-width="1.25" stroke-linecap="round" stroke-linejoin="round"/>
</svg>
