<svg width="15" height="15" viewBox="0 0 15 15" fill="none" xmlns="http://www.w3.org/2000/svg">
<path d="M4.375 1.875H2.5C2.15482 1.875 1.875 2.15482 1.875 2.5V4.375C1.875 4.72018 2.15482 5 2.5 5H4.375C4.72018 5 5 4.72018 5 4.375V2.5C5 2.15482 4.72018 1.875 4.375 1.875Z" stroke="#6366F1" stroke-width="1.25" stroke-linecap="round" stroke-linejoin="round"/>
<path d="M12.5 1.875H10.625C10.2798 1.875 10 2.15482 10 2.5V4.375C10 4.72018 10.2798 5 10.625 5H12.5C12.8452 5 13.125 4.72018 13.125 4.375V2.5C13.125 2.15482 12.8452 1.875 12.5 1.875Z" stroke="#6366F1" stroke-width="1.25" stroke-linecap="round" stroke-linejoin="round"/>
<path d="M4.375 10H2.5C2.15482 10 1.875 10.2798 1.875 10.625V12.5C1.875 12.8452 2.15482 13.125 2.5 13.125H4.375C4.72018 13.125 5 12.8452 5 12.5V10.625C5 10.2798 4.72018 10 4.375 10Z" stroke="#6366F1" stroke-width="1.25" stroke-linecap="round" stroke-linejoin="round"/>
<path d="M13.125 10H11.25C10.9185 10 10.6005 10.1317 10.3661 10.3661C10.1317 10.6005 10 10.9185 10 11.25V13.125" stroke="#6366F1" stroke-width="1.25" stroke-linecap="round" stroke-linejoin="round"/>
<path d="M13.125 13.125V13.1313" stroke="#6366F1" stroke-width="1.25" stroke-linecap="round" stroke-linejoin="round"/>
<path d="M7.5 4.375V6.25C7.5 6.58152 7.3683 6.89946 7.13388 7.13388C6.89946 7.3683 6.58152 7.5 6.25 7.5H4.375" stroke="#6366F1" stroke-width="1.25" stroke-linecap="round" stroke-linejoin="round"/>
<path d="M1.875 7.5H1.88125" stroke="#6366F1" stroke-width="1.25" stroke-linecap="round" stroke-linejoin="round"/>
<path d="M7.5 1.875H7.50625" stroke="#6366F1" stroke-width="1.25" stroke-linecap="round" stroke-linejoin="round"/>
<path d="M7.5 10V10.0063" stroke="#6366F1" stroke-width="1.25" stroke-linecap="round" stroke-linejoin="round"/>
<path d="M10 7.5H10.625" stroke="#6366F1" stroke-width="1.25" stroke-linecap="round" stroke-linejoin="round"/>
<path d="M13.125 7.5V7.50625" stroke="#6366F1" stroke-width="1.25" stroke-linecap="round" stroke-linejoin="round"/>
<path d="M7.5 13.125V12.5" stroke="#6366F1" stroke-width="1.25" stroke-linecap="round" stroke-linejoin="round"/>
</svg>
