<svg width="24" height="24" viewBox="0 0 24 24" fill="none" xmlns="http://www.w3.org/2000/svg">
<path d="M0 10C0 4.47716 4.47715 0 10 0H13.9931C19.5159 0 23.9931 4.47715 23.9931 10V13.9931C23.9931 19.5159 19.5159 23.9931 13.9931 23.9931H10C4.47716 23.9931 0 19.5159 0 13.9931V10Z" fill="url(#paint0_linear_244_3097)"/>
<g clip-path="url(#clip0_244_3097)">
<path d="M16.9942 11.9966H15.7545C15.5361 11.9961 15.3235 12.0672 15.1493 12.199C14.9751 12.3308 14.8488 12.516 14.7898 12.7264L13.6152 16.9052C13.6076 16.9311 13.5918 16.9539 13.5702 16.9702C13.5485 16.9864 13.5222 16.9952 13.4952 16.9952C13.4682 16.9952 13.4418 16.9864 13.4202 16.9702C13.3986 16.9539 13.3828 16.9311 13.3752 16.9052L10.616 7.08802C10.6085 7.06206 10.5927 7.03926 10.571 7.02304C10.5494 7.00682 10.5231 6.99805 10.4961 6.99805C10.469 6.99805 10.4427 7.00682 10.4211 7.02304C10.3994 7.03926 10.3837 7.06206 10.3761 7.08802L9.20143 11.2668C9.14268 11.4763 9.01718 11.661 8.84397 11.7927C8.67076 11.9244 8.45931 11.996 8.24171 11.9966H6.99707" stroke="white" stroke-width="0.999711" stroke-linecap="round" stroke-linejoin="round"/>
</g>
<defs>
<linearGradient id="paint0_linear_244_3097" x1="0" y1="0" x2="23.9931" y2="23.9931" gradientUnits="userSpaceOnUse">
<stop stop-color="#F97316"/>
<stop offset="1" stop-color="#6366F1"/>
</linearGradient>
<clipPath id="clip0_244_3097">
<rect width="11.9965" height="11.9965" fill="white" transform="translate(5.99805 5.99805)"/>
</clipPath>
</defs>
</svg>
