<svg width="48" height="48" viewBox="0 0 48 48" fill="none" xmlns="http://www.w3.org/2000/svg">
<path d="M0 16C0 7.16346 7.16345 0 16 0H31.9948C40.8313 0 47.9948 7.16345 47.9948 16V31.9948C47.9948 40.8313 40.8313 47.9948 31.9948 47.9948H16C7.16346 47.9948 0 40.8313 0 31.9948V16Z" fill="#A78BFA" fill-opacity="0.1"/>
<g clip-path="url(#clip0_193_2396)">
<path d="M32.3264 23.9976H30.2597C29.8955 23.9969 29.5411 24.1154 29.2506 24.3351C28.9602 24.5548 28.7497 24.8636 28.6514 25.2143L26.693 32.181C26.6804 32.2242 26.6541 32.2623 26.618 32.2893C26.582 32.3164 26.5381 32.331 26.493 32.331C26.448 32.331 26.4041 32.3164 26.368 32.2893C26.332 32.2623 26.3057 32.2242 26.293 32.181L21.693 15.8143C21.6804 15.771 21.6541 15.733 21.618 15.706C21.582 15.6789 21.5381 15.6643 21.493 15.6643C21.448 15.6643 21.4041 15.6789 21.368 15.706C21.332 15.733 21.3057 15.771 21.293 15.8143L19.3347 22.781C19.2368 23.1303 19.0275 23.4381 18.7388 23.6577C18.45 23.8772 18.0975 23.9966 17.7347 23.9976H15.6597" stroke="#A78BFA" stroke-width="1.66667" stroke-linecap="round" stroke-linejoin="round"/>
</g>
<defs>
<clipPath id="clip0_193_2396">
<rect width="20" height="20" fill="white" transform="translate(13.993 13.9976)"/>
</clipPath>
</defs>
</svg>
