<svg width="74" height="74" viewBox="0 0 74 74" fill="none" xmlns="http://www.w3.org/2000/svg">
<path d="M80.662 43.9975H71.5692C69.9669 43.9941 68.4075 44.5156 67.1296 45.4823C65.8517 46.449 64.9256 47.8077 64.493 49.3505L55.8768 80.002C55.8213 80.1924 55.7055 80.3597 55.5468 80.4787C55.3882 80.5977 55.1952 80.662 54.9969 80.662C54.7985 80.662 54.6056 80.5977 54.4469 80.4787C54.2882 80.3597 54.1724 80.1924 54.1169 80.002L33.8781 7.99297C33.8226 7.80257 33.7068 7.63533 33.5481 7.51633C33.3895 7.39733 33.1965 7.33301 32.9982 7.33301C32.7998 7.33301 32.6069 7.39733 32.4482 7.51633C32.2895 7.63533 32.1737 7.80257 32.1182 7.99297L23.5021 38.6445C23.0711 40.1813 22.1505 41.5355 20.88 42.5016C19.6096 43.4677 18.0585 43.9929 16.4625 43.9975H7.33301" stroke="#A78BFA" stroke-width="5.49967" stroke-linecap="round" stroke-linejoin="round"/>
</svg>
