<svg width="74" height="74" viewBox="0 0 74 74" fill="none" xmlns="http://www.w3.org/2000/svg">
<path d="M14.8015 17.1883C14.6568 16.8544 14.6158 16.4846 14.6839 16.1271C14.752 15.7696 14.9261 15.4408 15.1834 15.1834C15.4408 14.9261 15.7696 14.752 16.1271 14.6839C16.4846 14.6158 16.8544 14.6568 17.1883 14.8015L75.8515 38.6334C76.2082 38.7787 76.5101 39.0327 76.7143 39.3593C76.9185 39.6859 77.0146 40.0685 76.989 40.4528C76.9635 40.8371 76.8175 41.2036 76.5718 41.5003C76.3262 41.797 75.9933 42.0087 75.6205 42.1055L53.1672 47.8985C51.8986 48.2247 50.7405 48.8847 49.8133 49.8099C48.8861 50.7352 48.2236 51.8919 47.8948 53.1599L42.1055 75.6205C42.0087 75.9933 41.797 76.3262 41.5003 76.5718C41.2036 76.8175 40.8371 76.9635 40.4528 76.989C40.0685 77.0146 39.6859 76.9185 39.3593 76.7143C39.0327 76.5101 38.7787 76.2082 38.6334 75.8515L14.8015 17.1883Z" stroke="#6366F1" stroke-width="5.49967" stroke-linecap="round" stroke-linejoin="round"/>
</svg>
