<svg width="48" height="48" viewBox="0 0 48 48" fill="none" xmlns="http://www.w3.org/2000/svg">
<path d="M0 16C0 7.16346 7.16345 0 16 0H31.9948C40.8313 0 47.9948 7.16345 47.9948 16V31.9948C47.9948 40.8313 40.8313 47.9948 31.9948 47.9948H16C7.16346 47.9948 0 40.8313 0 31.9948V16Z" fill="#F97316" fill-opacity="0.1"/>
<path d="M17.3572 17.9041C17.3243 17.8282 17.315 17.7442 17.3305 17.6629C17.346 17.5817 17.3855 17.5069 17.444 17.4485C17.5025 17.39 17.5772 17.3504 17.6585 17.3349C17.7397 17.3194 17.8238 17.3288 17.8997 17.3616L31.233 22.7783C31.3141 22.8113 31.3827 22.8691 31.4291 22.9433C31.4755 23.0175 31.4974 23.1045 31.4916 23.1918C31.4857 23.2792 31.4526 23.3625 31.3967 23.4299C31.3409 23.4973 31.2653 23.5455 31.1805 23.5675L26.0772 24.8841C25.7888 24.9583 25.5256 25.1083 25.3149 25.3186C25.1041 25.5289 24.9536 25.7918 24.8789 26.08L23.563 31.185C23.541 31.2697 23.4929 31.3454 23.4255 31.4012C23.358 31.457 23.2747 31.4902 23.1874 31.496C23.1 31.5018 23.0131 31.48 22.9388 31.4336C22.8646 31.3872 22.8069 31.3185 22.7739 31.2375L17.3572 17.9041Z" stroke="#F97316" stroke-width="1.66667" stroke-linecap="round" stroke-linejoin="round"/>
</svg>
