<svg width="74" height="74" viewBox="0 0 74 74" fill="none" xmlns="http://www.w3.org/2000/svg">
<path d="M10.9993 25.6653V18.3324C10.9993 16.3876 11.7718 14.5225 13.147 13.1473C14.5222 11.7721 16.3874 10.9995 18.3322 10.9995H25.6651" stroke="#EAB308" stroke-width="5.49967" stroke-linecap="round" stroke-linejoin="round"/>
<path d="M62.3296 10.9995H69.6625C71.6073 10.9995 73.4724 11.7721 74.8476 13.1473C76.2228 14.5225 76.9954 16.3876 76.9954 18.3324V25.6653" stroke="#EAB308" stroke-width="5.49967" stroke-linecap="round" stroke-linejoin="round"/>
<path d="M76.9954 62.3296V69.6625C76.9954 71.6073 76.2228 73.4724 74.8476 74.8476C73.4724 76.2228 71.6073 76.9954 69.6625 76.9954H62.3296" stroke="#EAB308" stroke-width="5.49967" stroke-linecap="round" stroke-linejoin="round"/>
<path d="M25.6651 76.9954H18.3322C16.3874 76.9954 14.5222 76.2228 13.147 74.8476C11.7718 73.4724 10.9993 71.6073 10.9993 69.6625V62.3296" stroke="#EAB308" stroke-width="5.49967" stroke-linecap="round" stroke-linejoin="round"/>
</svg>
