<svg width="48" height="48" viewBox="0 0 48 48" fill="none" xmlns="http://www.w3.org/2000/svg">
<path d="M0 16C0 7.16346 7.16345 0 16 0H31.9948C40.8313 0 47.9948 7.16345 47.9948 16V31.9948C47.9948 40.8313 40.8313 47.9948 31.9948 47.9948H16C7.16346 47.9948 0 40.8313 0 31.9948V16Z" fill="#EAB308" fill-opacity="0.1"/>
<path d="M16.493 19.8309V18.1642C16.493 17.7222 16.6686 17.2983 16.9812 16.9857C17.2938 16.6732 17.7177 16.4976 18.1597 16.4976H19.8264" stroke="#EAB308" stroke-width="1.66667" stroke-linecap="round" stroke-linejoin="round"/>
<path d="M28.1597 16.4976H29.8264C30.2684 16.4976 30.6923 16.6732 31.0049 16.9857C31.3175 17.2983 31.493 17.7222 31.493 18.1642V19.8309" stroke="#EAB308" stroke-width="1.66667" stroke-linecap="round" stroke-linejoin="round"/>
<path d="M31.493 28.1643V29.831C31.493 30.273 31.3175 30.6969 31.0049 31.0095C30.6923 31.322 30.2684 31.4976 29.8264 31.4976H28.1597" stroke="#EAB308" stroke-width="1.66667" stroke-linecap="round" stroke-linejoin="round"/>
<path d="M19.8264 31.4976H18.1597C17.7177 31.4976 17.2938 31.322 16.9812 31.0095C16.6686 30.6969 16.493 30.273 16.493 29.831V28.1643" stroke="#EAB308" stroke-width="1.66667" stroke-linecap="round" stroke-linejoin="round"/>
</svg>
