<svg width="16" height="16" viewBox="0 0 16 16" fill="none" xmlns="http://www.w3.org/2000/svg">
<g clip-path="url(#clip0_645_2650)">
<path d="M2.57514 9.01279C2.45332 9.01321 2.33389 8.97905 2.23071 8.91428C2.12753 8.84952 2.04484 8.75681 1.99226 8.64692C1.93968 8.53704 1.91935 8.41448 1.93365 8.29351C1.94794 8.17253 1.99627 8.05809 2.07302 7.96348L8.44613 1.39725C8.49394 1.34207 8.55908 1.30478 8.63087 1.2915C8.70267 1.27822 8.77684 1.28975 8.84122 1.32418C8.9056 1.35862 8.95636 1.41392 8.98516 1.481C9.01397 1.54809 9.01912 1.62298 8.99975 1.69337L7.76376 5.56874C7.72731 5.66628 7.71507 5.77121 7.72809 5.87452C7.7411 5.97784 7.77899 6.07645 7.83849 6.1619C7.89799 6.24736 7.97734 6.3171 8.06971 6.36516C8.16209 6.41321 8.26475 6.43814 8.36888 6.4378H12.8751C12.9969 6.43738 13.1164 6.47154 13.2196 6.53631C13.3227 6.60107 13.4054 6.69378 13.458 6.80367C13.5106 6.91356 13.5309 7.03611 13.5166 7.15709C13.5023 7.27806 13.454 7.3925 13.3772 7.48711L7.00413 14.0533C6.95633 14.1085 6.89118 14.1458 6.81939 14.1591C6.7476 14.1724 6.67342 14.1608 6.60905 14.1264C6.54467 14.092 6.49391 14.0367 6.4651 13.9696C6.43629 13.9025 6.43115 13.8276 6.45051 13.7572L7.68651 9.88185C7.72295 9.78431 7.73519 9.67938 7.72218 9.57607C7.70916 9.47276 7.67128 9.37414 7.61177 9.28869C7.55227 9.20323 7.47293 9.13349 7.38055 9.08543C7.28817 9.03738 7.18551 9.01245 7.08138 9.01279H2.57514Z" stroke="#F97316" stroke-width="1.2875" stroke-linecap="round" stroke-linejoin="round"/>
</g>
<defs>
<clipPath id="clip0_645_2650">
<rect width="15.45" height="15.45" fill="white"/>
</clipPath>
</defs>
</svg>
