<svg width="21" height="5" viewBox="0 0 21 5" fill="none" xmlns="http://www.w3.org/2000/svg">
<path d="M0.0375977 4.68262V3.96826H1.36719V0.922852C1.27832 1.1097 1.10059 1.26693 0.833984 1.39453C0.569661 1.52214 0.291667 1.58594 0 1.58594V0.854492C0.316732 0.854492 0.600423 0.784993 0.851074 0.645996C1.10173 0.506999 1.29085 0.315592 1.41846 0.0717773H2.32764V3.96826H3.43164V4.68262H0.0375977ZM4.2417 4.68262V3.96826H5.57129V0.922852C5.48242 1.1097 5.30469 1.26693 5.03809 1.39453C4.77376 1.52214 4.49577 1.58594 4.2041 1.58594V0.854492C4.52083 0.854492 4.80452 0.784993 5.05518 0.645996C5.30583 0.506999 5.49495 0.315592 5.62256 0.0717773H6.53174V3.96826H7.63574V4.68262H4.2417ZM11.7339 2.37549C11.7339 3.14795 11.5881 3.73698 11.2964 4.14258C11.0047 4.54818 10.5809 4.75098 10.0249 4.75098C9.46663 4.75098 9.04508 4.54932 8.76025 4.146C8.4777 3.7404 8.33643 3.15023 8.33643 2.37549C8.33643 1.5734 8.47428 0.977539 8.75 0.587891C9.02799 0.195964 9.46208 0 10.0522 0C10.6219 0 11.0446 0.198242 11.3203 0.594727C11.596 0.991211 11.7339 1.5848 11.7339 2.37549ZM10.77 2.37549C10.77 1.97445 10.7461 1.65771 10.6982 1.42529C10.6504 1.19059 10.5763 1.01969 10.4761 0.912598C10.3758 0.805501 10.2323 0.751953 10.0454 0.751953C9.84945 0.751953 9.69906 0.805501 9.59424 0.912598C9.48942 1.01969 9.41309 1.19059 9.36523 1.42529C9.31966 1.65771 9.29688 1.97445 9.29688 2.37549C9.29688 2.77197 9.3208 3.08757 9.36865 3.32227C9.41878 3.55697 9.49512 3.72786 9.59766 3.83496C9.7002 3.94206 9.84489 3.99561 10.0317 3.99561C10.2961 3.99561 10.4852 3.87142 10.5991 3.62305C10.7131 3.37467 10.77 2.95882 10.77 2.37549ZM9.66602 2.78564V1.93457H10.4009V2.78564H9.66602ZM15.938 2.37549C15.938 3.14795 15.7922 3.73698 15.5005 4.14258C15.2088 4.54818 14.785 4.75098 14.229 4.75098C13.6707 4.75098 13.2492 4.54932 12.9644 4.146C12.6818 3.7404 12.5405 3.15023 12.5405 2.37549C12.5405 1.5734 12.6784 0.977539 12.9541 0.587891C13.2321 0.195964 13.6662 0 14.2563 0C14.826 0 15.2487 0.198242 15.5244 0.594727C15.8001 0.991211 15.938 1.5848 15.938 2.37549ZM14.9741 2.37549C14.9741 1.97445 14.9502 1.65771 14.9023 1.42529C14.8545 1.19059 14.7804 1.01969 14.6802 0.912598C14.5799 0.805501 14.4364 0.751953 14.2495 0.751953C14.0535 0.751953 13.9032 0.805501 13.7983 0.912598C13.6935 1.01969 13.6172 1.19059 13.5693 1.42529C13.5238 1.65771 13.501 1.97445 13.501 2.37549C13.501 2.77197 13.5249 3.08757 13.5728 3.32227C13.6229 3.55697 13.6992 3.72786 13.8018 3.83496C13.9043 3.94206 14.049 3.99561 14.2358 3.99561C14.5002 3.99561 14.6893 3.87142 14.8032 3.62305C14.9172 3.37467 14.9741 2.95882 14.9741 2.37549ZM13.8701 2.78564V1.93457H14.605V2.78564H13.8701ZM16.854 4.68262V3.96826H18.1836V0.922852C18.0947 1.1097 17.917 1.26693 17.6504 1.39453C17.3861 1.52214 17.1081 1.58594 16.8164 1.58594V0.854492C17.1331 0.854492 17.4168 0.784993 17.6675 0.645996C17.9181 0.506999 18.1073 0.315592 18.2349 0.0717773H19.144V3.96826H20.248V4.68262H16.854Z" fill="#A78BFA"/>
</svg>
