<svg xmlns="http://www.w3.org/2000/svg" fill="none" viewBox="33.59420849420849 82.3892 223.5868725868726 110.152" style="max-height: 500px" width="223.5868725868726" height="110.152">
<g opacity="0.7">
<mask fill="white" id="path-1-inside-1_668_773">
<path d="M34.8872 98.2881C34.8872 90.5561 41.1552 84.2881 48.8872 84.2881H241.877C249.609 84.2881 255.877 90.5561 255.877 98.2881V177.05C255.877 184.782 249.609 191.05 241.877 191.05H48.8872C41.1552 191.05 34.8872 184.782 34.8872 177.05V98.2881Z"/>
</mask>
<path fill-opacity="0.02" fill="#F97316" d="M34.8872 98.2881C34.8872 90.5561 41.1552 84.2881 48.8872 84.2881H241.877C249.609 84.2881 255.877 90.5561 255.877 98.2881V177.05C255.877 184.782 249.609 191.05 241.877 191.05H48.8872C41.1552 191.05 34.8872 184.782 34.8872 177.05V98.2881Z"/>
<path mask="url(#path-1-inside-1_668_773)" fill-opacity="0.19" fill="#F97316" d="M48.8872 84.2881V85.3992H241.877V84.2881V83.177H48.8872V84.2881ZM255.877 98.2881H254.766V177.05H255.877H256.988V98.2881H255.877ZM241.877 191.05V189.939H48.8872V191.05V192.161H241.877V191.05ZM34.8872 177.05H35.9983V98.2881H34.8872H33.7761V177.05H34.8872ZM48.8872 191.05V189.939C41.7689 189.939 35.9983 184.169 35.9983 177.05H34.8872H33.7761C33.7761 185.396 40.5416 192.161 48.8872 192.161V191.05ZM255.877 177.05H254.766C254.766 184.169 248.995 189.939 241.877 189.939V191.05V192.161C250.222 192.161 256.988 185.396 256.988 177.05H255.877ZM241.877 84.2881V85.3992C248.995 85.3992 254.766 91.1697 254.766 98.2881H255.877H256.988C256.988 89.9425 250.222 83.177 241.877 83.177V84.2881ZM48.8872 84.2881V83.177C40.5416 83.177 33.7761 89.9424 33.7761 98.2881H34.8872H35.9983C35.9983 91.1697 41.7689 85.3992 48.8872 85.3992V84.2881Z"/>
<g opacity="0.8">
<path fill="url(#paint0_linear_668_773)" d="M35.9983 114.626C35.9983 114.214 36.3325 113.88 36.7448 113.88H254.019C254.431 113.88 254.766 114.214 254.766 114.626C254.766 115.039 254.431 115.373 254.019 115.373H36.7448C36.3325 115.373 35.9983 115.039 35.9983 114.626Z"/>
</g>
<g opacity="0.132644">
<g clip-path="url(#clip0_668_773)">
<path stroke-width="1.19981" stroke-opacity="0.5" stroke="#F97316" d="M145.382 147.668C150.904 147.668 155.381 143.191 155.381 137.669C155.381 132.147 150.904 127.671 145.382 127.671C139.86 127.671 135.384 132.147 135.384 137.669C135.384 143.191 139.86 147.668 145.382 147.668Z"/>
<path fill-opacity="0.5" fill="#F97316" d="M143.382 134.17L150.381 137.669L143.382 141.169V134.17Z"/>
</g>
</g>
</g>
<g clip-path="url(#clip1_668_773)">
<path fill-opacity="0.082" fill="#F97316" d="M34.8872 217.17C34.8872 216.068 35.7811 215.174 36.8837 215.174H253.88C254.983 215.174 255.877 216.068 255.877 217.17C255.877 218.273 254.983 219.167 253.88 219.167H36.8837C35.7811 219.167 34.8872 218.273 34.8872 217.17Z"/>
<path fill="url(#paint1_linear_668_773)" d="M34.8872 217.17C34.8872 216.068 35.7811 215.174 36.8837 215.174H250.2C251.302 215.174 252.196 216.068 252.196 217.17C252.196 218.273 251.302 219.167 250.2 219.167H36.8837C35.7811 219.167 34.8872 218.273 34.8872 217.17Z"/>
</g>
<g opacity="0.837925">
<mask fill="white" id="path-8-inside-2_668_773">
<path d="M231.367 23.4995C231.367 19.3167 234.758 15.9258 238.941 15.9258H267.216C271.399 15.9258 274.79 19.3167 274.79 23.4995C274.79 27.6824 271.399 31.0732 267.216 31.0732H238.941C234.758 31.0732 231.367 27.6824 231.367 23.4995Z"/>
</mask>
<path fill-opacity="0.07" fill="#F97316" d="M231.367 23.4995C231.367 19.3167 234.758 15.9258 238.941 15.9258H267.216C271.399 15.9258 274.79 19.3167 274.79 23.4995C274.79 27.6824 271.399 31.0732 267.216 31.0732H238.941C234.758 31.0732 231.367 27.6824 231.367 23.4995Z"/>
<path mask="url(#path-8-inside-2_668_773)" fill-opacity="0.19" fill="#F97316" d="M231.367 23.4995M274.79 23.4995M274.79 23.4995M231.367 23.4995M238.941 15.9258V16.4813H267.216V15.9258V15.3702H238.941V15.9258ZM274.79 23.4995M267.216 31.0732V30.5177H238.941V31.0732V31.6288H267.216V31.0732ZM231.367 23.4995M238.941 31.0732V30.5177C235.065 30.5177 231.923 27.3755 231.923 23.4995H231.367H230.812C230.812 27.9892 234.451 31.6288 238.941 31.6288V31.0732ZM274.79 23.4995H274.235C274.235 27.3755 271.092 30.5177 267.216 30.5177V31.0732V31.6288C271.706 31.6288 275.346 27.9892 275.346 23.4995H274.79ZM267.216 15.9258V16.4813C271.092 16.4813 274.235 19.6235 274.235 23.4995H274.79H275.346C275.346 19.0098 271.706 15.3702 267.216 15.3702V15.9258ZM238.941 15.9258V15.3702C234.451 15.3702 230.812 19.0098 230.812 23.4995H231.367H231.923C231.923 19.6235 235.065 16.4813 238.941 16.4813V15.9258Z"/>
<rect fill="#F97316" transform="translate(239.164 20.1699)" height="6.6597" width="6.6597"/>
<path fill="#F97316" d="M252.553 24.168C252.553 24.4198 252.49 24.6589 252.363 24.8853C252.236 25.1095 252.038 25.2915 251.77 25.4312C251.503 25.5708 251.158 25.6406 250.735 25.6406C250.523 25.6406 250.337 25.6311 250.176 25.6121C250.018 25.593 249.869 25.5623 249.732 25.52C249.594 25.4756 249.452 25.4185 249.303 25.3486V24.2314C249.555 24.3584 249.809 24.4557 250.065 24.5234C250.321 24.589 250.553 24.6218 250.76 24.6218C250.885 24.6218 250.987 24.607 251.065 24.5774C251.145 24.5478 251.205 24.5076 251.243 24.4568C251.281 24.4039 251.3 24.3436 251.3 24.2759C251.3 24.1955 251.271 24.1278 251.214 24.0728C251.159 24.0156 251.07 23.9564 250.948 23.895C250.825 23.8337 250.663 23.7575 250.462 23.6665C250.291 23.5861 250.135 23.5036 249.995 23.4189C249.858 23.3343 249.739 23.238 249.64 23.1301C249.543 23.0201 249.467 22.8921 249.415 22.7461C249.362 22.6001 249.335 22.4277 249.335 22.2288C249.335 21.9304 249.408 21.6807 249.554 21.4797C249.702 21.2766 249.908 21.1243 250.17 21.0227C250.434 20.9211 250.739 20.8704 251.084 20.8704C251.387 20.8704 251.658 20.9042 251.9 20.9719C252.143 21.0396 252.361 21.1169 252.553 21.2036L252.169 22.1716C251.971 22.0806 251.775 22.0087 251.582 21.9558C251.39 21.9008 251.211 21.8733 251.046 21.8733C250.938 21.8733 250.849 21.887 250.779 21.9146C250.712 21.9399 250.661 21.9749 250.627 22.0193C250.595 22.0637 250.579 22.1145 250.579 22.1716C250.579 22.2436 250.607 22.3081 250.662 22.3652C250.719 22.4224 250.813 22.4848 250.944 22.5525C251.078 22.6181 251.259 22.7038 251.487 22.8096C251.713 22.9111 251.906 23.0212 252.065 23.1396C252.223 23.256 252.344 23.3967 252.427 23.5618C252.511 23.7247 252.553 23.9268 252.553 24.168ZM256.508 25.5771L256.279 24.7075H254.772L254.537 25.5771H253.159L254.673 20.918H256.346L257.879 25.5771H256.508ZM256.019 23.6792L255.819 22.9175C255.798 22.835 255.767 22.7175 255.727 22.5652C255.687 22.4107 255.647 22.252 255.606 22.0891C255.568 21.9241 255.539 21.7887 255.517 21.6829C255.498 21.7887 255.471 21.9198 255.435 22.0764C255.401 22.2309 255.365 22.3843 255.327 22.5366C255.291 22.689 255.259 22.8159 255.232 22.9175L255.032 23.6792H256.019ZM260.008 25.5771H258.773V20.937H261.516V21.9431H260.008V22.8286H261.398V23.8347H260.008V25.5771ZM265.422 25.5771H262.667V20.937H265.422V21.9431H263.921V22.6731H265.311V23.6792H263.921V24.5552H265.422V25.5771Z"/>
</g>
<g opacity="0.0165011">
<mask fill="white" id="path-11-inside-3_668_773">
<path d="M121.966 154.49C121.966 133.819 138.724 117.062 159.395 117.062C180.066 117.062 196.824 133.819 196.824 154.49C196.824 175.162 180.066 191.919 159.395 191.919C138.724 191.919 121.966 175.162 121.966 154.49Z"/>
</mask>
<path mask="url(#path-11-inside-3_668_773)" fill="#F97316" d="M121.966 154.49M196.824 154.49M196.824 154.49M121.966 154.49M159.395 117.062M196.824 154.49M159.395 191.919M121.966 154.49M159.395 191.919V191.363C139.031 191.363 122.522 174.855 122.522 154.49H121.966H121.411C121.411 175.468 138.417 192.475 159.395 192.475V191.919ZM196.824 154.49H196.268C196.268 174.855 179.76 191.363 159.395 191.363V191.919V192.475C180.373 192.475 197.379 175.468 197.379 154.49H196.824ZM159.395 117.062V117.617C179.76 117.617 196.268 134.126 196.268 154.49H196.824H197.379C197.379 133.512 180.373 116.506 159.395 116.506V117.062ZM159.395 117.062V116.506C138.417 116.506 121.411 133.512 121.411 154.49H121.966H122.522C122.522 134.126 139.031 117.617 159.395 117.617V117.062Z"/>
</g>
<mask fill="white" id="path-13-inside-4_668_773">
<path d="M131.016 154.488C131.016 138.816 143.721 126.111 159.393 126.111C175.065 126.111 187.77 138.816 187.77 154.488C187.77 170.161 175.065 182.865 159.393 182.865C143.721 182.865 131.016 170.161 131.016 154.488Z"/>
</mask>
<path mask="url(#path-13-inside-4_668_773)" fill="#F97316" d="M131.016 154.488M187.77 154.488M187.77 154.488M131.016 154.488M159.393 126.111M187.77 154.488M159.393 182.865M131.016 154.488M159.393 182.865V182.31C144.028 182.31 131.572 169.854 131.572 154.488H131.016H130.461C130.461 170.467 143.414 183.421 159.393 183.421V182.865ZM187.77 154.488H187.215C187.215 169.854 174.759 182.31 159.393 182.31V182.865V183.421C175.372 183.421 188.326 170.467 188.326 154.488H187.77ZM159.393 126.111V126.667C174.759 126.667 187.215 139.123 187.215 154.488H187.77H188.326C188.326 138.509 175.372 125.556 159.393 125.556V126.111ZM159.393 126.111V125.556C143.414 125.556 130.461 138.509 130.461 154.488H131.016H131.572C131.572 139.123 144.028 126.667 159.393 126.667V126.111Z"/>
<mask fill="white" id="path-15-inside-5_668_773">
<path d="M144.831 154.486C144.831 146.445 151.35 139.927 159.391 139.927C167.432 139.927 173.95 146.445 173.95 154.486C173.95 162.527 167.432 169.046 159.391 169.046C151.35 169.046 144.831 162.527 144.831 154.486Z"/>
</mask>
<path mask="url(#path-15-inside-5_668_773)" fill="#F97316" d="M144.831 154.486M173.95 154.486M173.95 154.486M144.831 154.486M159.391 139.927M173.95 154.486M159.391 169.046M144.831 154.486M159.391 169.046V168.49C151.656 168.49 145.387 162.221 145.387 154.486H144.831H144.275C144.275 162.834 151.043 169.601 159.391 169.601V169.046ZM173.95 154.486H173.395C173.395 162.221 167.125 168.49 159.391 168.49V169.046V169.601C167.738 169.601 174.506 162.834 174.506 154.486H173.95ZM159.391 139.927V140.482C167.125 140.482 173.395 146.752 173.395 154.486H173.95H174.506C174.506 146.138 167.738 139.371 159.391 139.371V139.927ZM159.391 139.927V139.371C151.043 139.371 144.275 146.138 144.275 154.486H144.831H145.387C145.387 146.752 151.656 140.482 159.391 140.482V139.927Z"/>
<defs>
<linearGradient gradientUnits="userSpaceOnUse" y2="114.626" x2="254.766" y1="114.626" x1="35.9983" id="paint0_linear_668_773">
<stop stop-opacity="0"/>
<stop stop-opacity="0.376" stop-color="#F97316" offset="0.5"/>
<stop stop-opacity="0" offset="1"/>
</linearGradient>
<linearGradient gradientUnits="userSpaceOnUse" y2="217.17" x2="252.196" y1="217.17" x1="34.8872" id="paint1_linear_668_773">
<stop stop-opacity="0.5" stop-color="#F97316"/>
<stop stop-color="#F97316" offset="1"/>
</linearGradient>
<clipPath id="clip0_668_773">
<rect transform="translate(134.384 126.671)" fill="white" height="21.9965" width="21.9965"/>
</clipPath>
<clipPath id="clip1_668_773">
<path fill="white" d="M34.8872 217.17C34.8872 216.068 35.7811 215.174 36.8837 215.174H253.88C254.983 215.174 255.877 216.068 255.877 217.17C255.877 218.273 254.983 219.167 253.88 219.167H36.8837C35.7811 219.167 34.8872 218.273 34.8872 217.17Z"/>
</clipPath>
</defs>
</svg>