<svg width="64" height="64" viewBox="0 0 64 64" fill="none" xmlns="http://www.w3.org/2000/svg">
<path d="M44 15.998H20C17.7909 15.998 16 17.7887 16 19.9976V43.995C16 46.2039 17.7909 47.9946 20 47.9946H44C46.2091 47.9946 48 46.2039 48 43.995V19.9976C48 17.7887 46.2091 15.998 44 15.998Z" fill="#A78BFA" fill-opacity="0.03" stroke="#A78BFA" stroke-width="1.49984"/>
<path d="M6 21.998H16" stroke="#A78BFA" stroke-opacity="0.5" stroke-width="1.19987"/>
<path d="M48 21.998H58" stroke="#A78BFA" stroke-opacity="0.5" stroke-width="1.19987"/>
<path d="M6 29.9971H16" stroke="#A78BFA" stroke-opacity="0.5" stroke-width="1.19987"/>
<path d="M48 29.9971H58" stroke="#A78BFA" stroke-opacity="0.5" stroke-width="1.19987"/>
<path d="M6 37.9961H16" stroke="#A78BFA" stroke-opacity="0.5" stroke-width="1.19987"/>
<path d="M48 37.9961H58" stroke="#A78BFA" stroke-opacity="0.5" stroke-width="1.19987"/>
<path d="M22 5.99902V15.9979" stroke="#A78BFA" stroke-opacity="0.5" stroke-width="1.19987"/>
<path d="M22 47.9941V57.9931" stroke="#A78BFA" stroke-opacity="0.5" stroke-width="1.19987"/>
<path d="M30 5.99902V15.9979" stroke="#A78BFA" stroke-opacity="0.5" stroke-width="1.19987"/>
<path d="M30 47.9941V57.9931" stroke="#A78BFA" stroke-opacity="0.5" stroke-width="1.19987"/>
<path d="M38 5.99902V15.9979" stroke="#A78BFA" stroke-opacity="0.5" stroke-width="1.19987"/>
<path d="M38 47.9941V57.9931" stroke="#A78BFA" stroke-opacity="0.5" stroke-width="1.19987"/>
<path d="M30.1915 29.9067H31.2553V33.456C31.2553 33.7841 31.1815 34.0691 31.0341 34.3111C30.8882 34.553 30.6853 34.7394 30.4251 34.8703C30.165 35.0012 29.8626 35.0667 29.5179 35.0667C29.2113 35.0667 28.933 35.0128 28.6828 34.9051C28.4342 34.7957 28.237 34.63 28.0912 34.408C27.9454 34.1843 27.8733 33.9034 27.875 33.5654H28.9462C28.9495 33.6996 28.9769 33.8148 29.0282 33.9109C29.0813 34.0053 29.1533 34.0783 29.2445 34.1296C29.3373 34.1793 29.4466 34.2042 29.5726 34.2042C29.7051 34.2042 29.817 34.176 29.9081 34.1197C30.0009 34.0617 30.0713 33.9772 30.1194 33.8662C30.1674 33.7551 30.1915 33.6184 30.1915 33.456V29.9067ZM34.9065 31.3707C34.8866 31.1702 34.8013 31.0144 34.6505 30.9034C34.4997 30.7924 34.2951 30.7369 34.0366 30.7369C33.8609 30.7369 33.7126 30.7617 33.5917 30.8114C33.4707 30.8595 33.3779 30.9266 33.3133 31.0128C33.2503 31.0989 33.2188 31.1967 33.2188 31.3061C33.2155 31.3972 33.2346 31.4767 33.276 31.5447C33.3191 31.6126 33.3779 31.6714 33.4525 31.7211C33.527 31.7692 33.6132 31.8115 33.711 31.8479C33.8087 31.8827 33.9131 31.9125 34.0242 31.9374L34.4815 32.0468C34.7035 32.0965 34.9073 32.1627 35.0929 32.2456C35.2785 32.3284 35.4392 32.4304 35.5751 32.5513C35.711 32.6723 35.8162 32.8148 35.8908 32.9788C35.967 33.1429 36.0059 33.3309 36.0076 33.543C36.0059 33.8546 35.9264 34.1247 35.769 34.3533C35.6132 34.5803 35.3879 34.7568 35.0929 34.8827C34.7996 35.007 34.4459 35.0692 34.0316 35.0692C33.6207 35.0692 33.2628 35.0062 32.9579 34.8803C32.6546 34.7543 32.4177 34.5679 32.247 34.321C32.078 34.0725 31.9893 33.7651 31.981 33.3989H33.0225C33.0341 33.5695 33.083 33.7121 33.1691 33.8264C33.257 33.9391 33.3738 34.0244 33.5196 34.0824C33.6671 34.1387 33.8336 34.1669 34.0192 34.1669C34.2015 34.1669 34.3597 34.1404 34.4939 34.0874C34.6298 34.0343 34.735 33.9606 34.8096 33.8662C34.8841 33.7717 34.9214 33.6632 34.9214 33.5406C34.9214 33.4262 34.8875 33.3301 34.8195 33.2522C34.7532 33.1744 34.6555 33.1081 34.5262 33.0534C34.3986 32.9987 34.242 32.949 34.0565 32.9043L33.5022 32.7651C33.073 32.6607 32.7342 32.4975 32.4856 32.2754C32.2371 32.0534 32.1136 31.7543 32.1153 31.3781C32.1136 31.0699 32.1956 30.8007 32.3613 30.5703C32.5287 30.34 32.7582 30.1602 33.0498 30.031C33.3415 29.9017 33.6729 29.8371 34.044 29.8371C34.4218 29.8371 34.7516 29.9017 35.0333 30.031C35.3166 30.1602 35.537 30.34 35.6944 30.5703C35.8518 30.8007 35.933 31.0675 35.938 31.3707H34.9065Z" fill="#A78BFA" fill-opacity="0.4"/>
</svg>
