<svg width="29" height="6" viewBox="0 0 29 6" fill="none" xmlns="http://www.w3.org/2000/svg">
<path d="M0 3.33594V2.07812L4.01172 0.550781V1.44141L0.757812 2.71094L4.01172 3.97656V4.86328L0 3.33594ZM13.6016 3.57812C13.6016 3.94271 13.5195 4.26562 13.3555 4.54688C13.194 4.82552 12.9583 5.04297 12.6484 5.19922C12.3411 5.35286 11.9792 5.42969 11.5625 5.42969C11.0104 5.42969 10.5677 5.30599 10.2344 5.05859C9.90365 4.80859 9.69922 4.44792 9.62109 3.97656L10.7188 3.88672C10.776 4.12109 10.8776 4.29167 11.0234 4.39844C11.1693 4.50521 11.3529 4.55859 11.5742 4.55859C11.8555 4.55859 12.0755 4.47526 12.2344 4.30859C12.3932 4.14193 12.4727 3.90625 12.4727 3.60156C12.4727 3.33073 12.3958 3.11458 12.2422 2.95312C12.0885 2.78906 11.8737 2.70703 11.5977 2.70703C11.293 2.70703 11.0443 2.82552 10.8516 3.0625H9.78125L9.97266 0.0820312H13.2812V0.898438H10.9688L10.8789 2.17188C11.1445 1.9375 11.4766 1.82031 11.875 1.82031C12.3984 1.82031 12.8164 1.98177 13.1289 2.30469C13.444 2.625 13.6016 3.04948 13.6016 3.57812ZM18.3594 2.71484C18.3594 3.59766 18.1927 4.27083 17.8594 4.73438C17.526 5.19792 17.0417 5.42969 16.4062 5.42969C15.7682 5.42969 15.2865 5.19922 14.9609 4.73828C14.638 4.27474 14.4766 3.60026 14.4766 2.71484C14.4766 1.79818 14.6341 1.11719 14.9492 0.671875C15.2669 0.223958 15.763 0 16.4375 0C17.0885 0 17.5716 0.226562 17.8867 0.679688C18.2018 1.13281 18.3594 1.8112 18.3594 2.71484ZM17.2578 2.71484C17.2578 2.25651 17.2305 1.89453 17.1758 1.62891C17.1211 1.36068 17.0365 1.16536 16.9219 1.04297C16.8073 0.920573 16.6432 0.859375 16.4297 0.859375C16.2057 0.859375 16.0339 0.920573 15.9141 1.04297C15.7943 1.16536 15.707 1.36068 15.6523 1.62891C15.6003 1.89453 15.5742 2.25651 15.5742 2.71484C15.5742 3.16797 15.6016 3.52865 15.6562 3.79688C15.7135 4.0651 15.8008 4.26042 15.918 4.38281C16.0352 4.50521 16.2005 4.56641 16.4141 4.56641C16.7161 4.56641 16.9323 4.42448 17.0625 4.14062C17.1927 3.85677 17.2578 3.38151 17.2578 2.71484ZM15.9961 3.18359V2.21094H16.8359V3.18359H15.9961ZM22.2656 5.35156L21.0039 3.17578L20.5078 3.73047V5.35156H19.3555V0.0820312H20.5078V2.42188L22.2109 0.0820312H23.5508L21.7539 2.34375L23.625 5.35156H22.2656ZM28.2617 3.84766C28.2617 4.31901 28.1003 4.6875 27.7773 4.95312C27.4544 5.21875 27.0078 5.35156 26.4375 5.35156H24.1641V0.0820312H26.2148C26.7826 0.0820312 27.2122 0.196615 27.5039 0.425781C27.7982 0.652344 27.9453 0.979167 27.9453 1.40625C27.9453 1.70573 27.8594 1.95833 27.6875 2.16406C27.5156 2.36719 27.2513 2.50651 26.8945 2.58203C27.3398 2.62891 27.6784 2.76172 27.9102 2.98047C28.1445 3.19922 28.2617 3.48828 28.2617 3.84766ZM26.7852 1.5625C26.7852 1.14583 26.5677 0.9375 26.1328 0.9375H25.3164V2.18359H26.1406C26.5703 2.18359 26.7852 1.97656 26.7852 1.5625ZM27.1016 3.75C27.1016 3.52083 27.0326 3.34505 26.8945 3.22266C26.7565 3.09766 26.556 3.03516 26.293 3.03516H25.3164V4.49609H26.3203C26.8411 4.49609 27.1016 4.2474 27.1016 3.75Z" fill="#A78BFA"/>
</svg>
