<svg width="28" height="48" viewBox="0 0 28 48" fill="none" xmlns="http://www.w3.org/2000/svg">
<path d="M21.5 1.50195H6.5C3.73858 1.50195 1.5 3.74011 1.5 6.50102V41.4945C1.5 44.2554 3.73858 46.4936 6.5 46.4936H21.5C24.2614 46.4936 26.5 44.2554 26.5 41.4945V6.50102C26.5 3.74011 24.2614 1.50195 21.5 1.50195Z" fill="#4F46E5" fill-opacity="0.024" stroke="#4F46E5" stroke-width="1.49972"/>
<path d="M18 4.00098H10C9.44772 4.00098 9 4.44861 9 5.00079C9 5.55297 9.44772 6.0006 10 6.0006H18C18.5523 6.0006 19 5.55297 19 5.00079C19 4.44861 18.5523 4.00098 18 4.00098Z" fill="#4F46E5" fill-opacity="0.4"/>
<path d="M14 44.9941C15.1046 44.9941 16 44.0987 16 42.9941C16 41.8896 15.1046 40.9941 14 40.9941C12.8954 40.9941 12 41.8896 12 42.9941C12 44.0987 12.8954 44.9941 14 44.9941Z" fill="#4F46E5" fill-opacity="0.35"/>
<path d="M21.5 10H6.5C5.67157 10 5 10.6714 5 11.4997V34.4954C5 35.3237 5.67157 35.9952 6.5 35.9952H21.5C22.3284 35.9952 23 35.3237 23 34.4954V11.4997C23 10.6714 22.3284 10 21.5 10Z" fill="#4F46E5" fill-opacity="0.06"/>
</svg>
