<svg width="80" height="58" viewBox="0 0 80 58" fill="none" xmlns="http://www.w3.org/2000/svg">
<path d="M73.997 2H6.00306C3.79412 2 2.00342 3.7907 2.00342 5.99964V43.9962C2.00342 46.2052 3.79412 47.9959 6.00306 47.9959H73.997C76.2059 47.9959 77.9966 46.2052 77.9966 43.9962V5.99964C77.9966 3.7907 76.2059 2 73.997 2Z" fill="#4F46E5" fill-opacity="0.03" stroke="#4F46E5" stroke-width="1.79984"/>
<path d="M48.9993 47.9961H31.0009C30.4487 47.9961 30.001 48.4438 30.001 48.996V51.9957C30.001 52.548 30.4487 52.9956 31.0009 52.9956H48.9993C49.5515 52.9956 49.9992 52.548 49.9992 51.9957V48.996C49.9992 48.4438 49.5515 47.9961 48.9993 47.9961Z" fill="#4F46E5" fill-opacity="0.35"/>
<path d="M58.4983 52.9951H21.5016C20.6732 52.9951 20.0017 53.6666 20.0017 54.495C20.0017 55.3233 20.6732 55.9948 21.5016 55.9948H58.4983C59.3266 55.9948 59.9981 55.3233 59.9981 54.495C59.9981 53.6666 59.3266 52.9951 58.4983 52.9951Z" fill="#4F46E5" fill-opacity="0.25"/>
<path d="M69.9974 7.99902H10.0028C8.89828 7.99902 8.00293 8.89437 8.00293 9.99884V39.9962C8.00293 41.1006 8.89828 41.996 10.0028 41.996H69.9974C71.1018 41.996 71.9972 41.1006 71.9972 39.9962V9.99884C71.9972 8.89437 71.1018 7.99902 69.9974 7.99902Z" fill="#4F46E5" fill-opacity="0.06"/>
</svg>
