<svg width="65" height="65" viewBox="0 0 65 65" fill="none" xmlns="http://www.w3.org/2000/svg">
<path d="M53.9974 35.0982C53.9974 48.5976 44.5478 55.3473 33.3164 59.2621C32.7282 59.4614 32.0894 59.4518 31.5074 59.2351C20.249 55.3473 10.7994 48.5976 10.7994 35.0982V16.1991C10.7994 15.4831 11.0839 14.7964 11.5902 14.29C12.0965 13.7837 12.7833 13.4993 13.4993 13.4993C18.899 13.4993 25.6487 10.2594 30.3465 6.15561C30.9185 5.66693 31.6461 5.39844 32.3984 5.39844C33.1507 5.39844 33.8783 5.66693 34.4503 6.15561C39.1751 10.2864 45.8978 13.4993 51.2975 13.4993C52.0135 13.4993 52.7003 13.7837 53.2066 14.29C53.7129 14.7964 53.9974 15.4831 53.9974 16.1991V35.0982Z" stroke="#F97316" stroke-width="5.39974" stroke-linecap="round" stroke-linejoin="round"/>
</svg>
