<svg width="52" height="38" viewBox="0 0 52 38" fill="none" xmlns="http://www.w3.org/2000/svg">
<path d="M46.4985 1.5H5.50143C3.29244 1.5 1.50171 3.29062 1.50171 5.49945V32.4958C1.50171 34.7046 3.29244 36.4952 5.50143 36.4952H46.4985C48.7075 36.4952 50.4983 34.7046 50.4983 32.4958V5.49945C50.4983 3.29062 48.7075 1.5 46.4985 1.5Z" fill="#4F46E5" fill-opacity="0.024" stroke="#4F46E5" stroke-width="1.39981"/>
<path d="M46.4985 1.5H5.50143C3.29244 1.5 1.50171 3.29062 1.50171 5.49945C1.50171 7.70829 3.29244 9.4989 5.50143 9.4989H46.4985C48.7075 9.4989 50.4983 7.70829 50.4983 5.49945C50.4983 3.29062 48.7075 1.5 46.4985 1.5Z" fill="#4F46E5" fill-opacity="0.08"/>
<path d="M7.00146 6.99902C7.82989 6.99902 8.50146 6.32745 8.50146 5.49902C8.50146 4.6706 7.82989 3.99902 7.00146 3.99902C6.17304 3.99902 5.50146 4.6706 5.50146 5.49902C5.50146 6.32745 6.17304 6.99902 7.00146 6.99902Z" fill="#4F46E5" fill-opacity="0.4"/>
<path d="M12.001 6.99902C12.8294 6.99902 13.501 6.32745 13.501 5.49902C13.501 4.6706 12.8294 3.99902 12.001 3.99902C11.1725 3.99902 10.501 4.6706 10.501 5.49902C10.501 6.32745 11.1725 6.99902 12.001 6.99902Z" fill="#4F46E5" fill-opacity="0.4"/>
<path d="M17.0007 6.99902C17.8292 6.99902 18.5007 6.32745 18.5007 5.49902C18.5007 4.6706 17.8292 3.99902 17.0007 3.99902C16.1723 3.99902 15.5007 4.6706 15.5007 5.49902C15.5007 6.32745 16.1723 6.99902 17.0007 6.99902Z" fill="#4F46E5" fill-opacity="0.4"/>
<path d="M43.9987 3.5H24.0001C22.8956 3.5 22.0002 4.39531 22.0002 5.49973C22.0002 6.60414 22.8956 7.49945 24.0001 7.49945H43.9987C45.1032 7.49945 45.9986 6.60414 45.9986 5.49973C45.9986 4.39531 45.1032 3.5 43.9987 3.5Z" fill="#4F46E5" fill-opacity="0.15"/>
<path d="M45.4986 11.998H6.50136C5.67299 11.998 5.00146 12.6695 5.00146 13.4978V30.4955C5.00146 31.3238 5.67299 31.9953 6.50136 31.9953H45.4986C46.327 31.9953 46.9985 31.3238 46.9985 30.4955V13.4978C46.9985 12.6695 46.327 11.998 45.4986 11.998Z" fill="#4F46E5" fill-opacity="0.04"/>
</svg>
