<svg width="32" height="32" viewBox="0 0 32 32" fill="none" xmlns="http://www.w3.org/2000/svg">
<mask id="path-1-inside-1_193_7932" fill="white">
<path d="M0 10C0 4.47715 4.47715 0 10 0H21.9965C27.5194 0 31.9965 4.47715 31.9965 10V21.9965C31.9965 27.5194 27.5194 31.9965 21.9965 31.9965H10C4.47715 31.9965 0 27.5194 0 21.9965V10Z"/>
</mask>
<path d="M0 10C0 4.47715 4.47715 0 10 0H21.9965C27.5194 0 31.9965 4.47715 31.9965 10V21.9965C31.9965 27.5194 27.5194 31.9965 21.9965 31.9965H10C4.47715 31.9965 0 27.5194 0 21.9965V10Z" fill="#18181B"/>
<path d="M10 0V0.555556H21.9965V0V-0.555556H10V0ZM31.9965 10H31.441V21.9965H31.9965H32.5521V10H31.9965ZM21.9965 31.9965V31.441H10V31.9965V32.5521H21.9965V31.9965ZM0 21.9965H0.555556V10H0H-0.555556V21.9965H0ZM10 31.9965V31.441C4.78398 31.441 0.555556 27.2125 0.555556 21.9965H0H-0.555556C-0.555556 27.8262 4.17033 32.5521 10 32.5521V31.9965ZM31.9965 21.9965H31.441C31.441 27.2125 27.2125 31.441 21.9965 31.441V31.9965V32.5521C27.8262 32.5521 32.5521 27.8262 32.5521 21.9965H31.9965ZM21.9965 0V0.555556C27.2125 0.555556 31.441 4.78398 31.441 10H31.9965H32.5521C32.5521 4.17033 27.8262 -0.555556 21.9965 -0.555556V0ZM10 0V-0.555556C4.17033 -0.555556 -0.555556 4.17033 -0.555556 10H0H0.555556C0.555556 4.78398 4.78398 0.555556 10 0.555556V0Z" fill="white" fill-opacity="0.06" mask="url(#path-1-inside-1_193_7932)"/>
<g clip-path="url(#clip0_193_7932)">
<path d="M20.6625 10.7509H11.3338C10.6898 10.7509 10.1677 11.2729 10.1677 11.9169V20.0796C10.1677 20.7236 10.6898 21.2456 11.3338 21.2456H20.6625C21.3065 21.2456 21.8286 20.7236 21.8286 20.0796V11.9169C21.8286 11.2729 21.3065 10.7509 20.6625 10.7509Z" stroke="white" stroke-width="1.16609" stroke-linecap="round" stroke-linejoin="round"/>
<path opacity="0.4" d="M10.1677 13.666H21.8286" stroke="white" stroke-width="1.16609" stroke-linecap="round" stroke-linejoin="round"/>
<path opacity="0.4" d="M14.832 13.666V21.2456" stroke="white" stroke-width="1.16609" stroke-linecap="round" stroke-linejoin="round"/>
<path opacity="0.55" d="M11.334 15.4152H13.6662M11.334 17.1643H13.6662M11.334 18.9134H13.6662" stroke="white" stroke-width="0.874566" stroke-linecap="round" stroke-linejoin="round"/>
<path opacity="0.5" d="M20.0796 15.4152H16.5813C16.2593 15.4152 15.9983 15.6762 15.9983 15.9982V17.1643C15.9983 17.4863 16.2593 17.7473 16.5813 17.7473H20.0796C20.4016 17.7473 20.6626 17.4863 20.6626 17.1643V15.9982C20.6626 15.6762 20.4016 15.4152 20.0796 15.4152Z" stroke="white" stroke-width="1.16609" stroke-linecap="round" stroke-linejoin="round"/>
<path opacity="0.5" d="M15.9983 18.9135H20.6626" stroke="white" stroke-width="0.874566" stroke-linecap="round" stroke-linejoin="round"/>
</g>
<defs>
<clipPath id="clip0_193_7932">
<rect width="13.9931" height="13.9931" fill="white" transform="translate(9.00171 9.00171)"/>
</clipPath>
</defs>
</svg>
