<svg width="32" height="32" viewBox="0 0 32 32" fill="none" xmlns="http://www.w3.org/2000/svg">
<mask id="path-1-inside-1_193_7885" fill="white">
<path d="M0 10C0 4.47715 4.47715 0 10 0H21.9965C27.5194 0 31.9965 4.47715 31.9965 10V21.9965C31.9965 27.5194 27.5194 31.9965 21.9965 31.9965H10C4.47715 31.9965 0 27.5194 0 21.9965V10Z"/>
</mask>
<path d="M0 10C0 4.47715 4.47715 0 10 0H21.9965C27.5194 0 31.9965 4.47715 31.9965 10V21.9965C31.9965 27.5194 27.5194 31.9965 21.9965 31.9965H10C4.47715 31.9965 0 27.5194 0 21.9965V10Z" fill="#18181B"/>
<path d="M10 0V0.555556H21.9965V0V-0.555556H10V0ZM31.9965 10H31.441V21.9965H31.9965H32.5521V10H31.9965ZM21.9965 31.9965V31.441H10V31.9965V32.5521H21.9965V31.9965ZM0 21.9965H0.555556V10H0H-0.555556V21.9965H0ZM10 31.9965V31.441C4.78398 31.441 0.555556 27.2125 0.555556 21.9965H0H-0.555556C-0.555556 27.8262 4.17033 32.5521 10 32.5521V31.9965ZM31.9965 21.9965H31.441C31.441 27.2125 27.2125 31.441 21.9965 31.441V31.9965V32.5521C27.8262 32.5521 32.5521 27.8262 32.5521 21.9965H31.9965ZM21.9965 0V0.555556C27.2125 0.555556 31.441 4.78398 31.441 10H31.9965H32.5521C32.5521 4.17033 27.8262 -0.555556 21.9965 -0.555556V0ZM10 0V-0.555556C4.17033 -0.555556 -0.555556 4.17033 -0.555556 10H0H0.555556C0.555556 4.78398 4.78398 0.555556 10 0.555556V0Z" fill="white" fill-opacity="0.06" mask="url(#path-1-inside-1_193_7885)"/>
<path opacity="0.45" d="M16.8727 11.3339H11.0423C10.5593 11.3339 10.1677 11.7254 10.1677 12.2084V16.2897C10.1677 16.7727 10.5593 17.1643 11.0423 17.1643H16.8727C17.3557 17.1643 17.7473 16.7727 17.7473 16.2897V12.2084C17.7473 11.7254 17.3557 11.3339 16.8727 11.3339Z" stroke="white" stroke-width="1.16609" stroke-linecap="round" stroke-linejoin="round"/>
<path d="M20.371 14.2491H14.5406C14.0576 14.2491 13.666 14.6407 13.666 15.1237V19.205C13.666 19.688 14.0576 20.0796 14.5406 20.0796H20.371C20.854 20.0796 21.2456 19.688 21.2456 19.205V15.1237C21.2456 14.6407 20.854 14.2491 20.371 14.2491Z" stroke="white" stroke-width="1.16609" stroke-linecap="round" stroke-linejoin="round"/>
<path opacity="0.8" d="M17.1643 17.1643L18.0389 19.4965L18.9134 18.6219L19.788 19.4965" stroke="white" stroke-width="0.874566" stroke-linecap="round" stroke-linejoin="round"/>
</svg>
