<svg width="32" height="32" viewBox="0 0 32 32" fill="none" xmlns="http://www.w3.org/2000/svg">
<mask id="path-1-inside-1_193_7947" fill="white">
<path d="M0 10C0 4.47715 4.47715 0 10 0H21.9965C27.5194 0 31.9965 4.47715 31.9965 10V21.9965C31.9965 27.5194 27.5194 31.9965 21.9965 31.9965H10C4.47715 31.9965 0 27.5194 0 21.9965V10Z"/>
</mask>
<path d="M0 10C0 4.47715 4.47715 0 10 0H21.9965C27.5194 0 31.9965 4.47715 31.9965 10V21.9965C31.9965 27.5194 27.5194 31.9965 21.9965 31.9965H10C4.47715 31.9965 0 27.5194 0 21.9965V10Z" fill="#18181B"/>
<path d="M10 0V0.555556H21.9965V0V-0.555556H10V0ZM31.9965 10H31.441V21.9965H31.9965H32.5521V10H31.9965ZM21.9965 31.9965V31.441H10V31.9965V32.5521H21.9965V31.9965ZM0 21.9965H0.555556V10H0H-0.555556V21.9965H0ZM10 31.9965V31.441C4.78398 31.441 0.555556 27.2125 0.555556 21.9965H0H-0.555556C-0.555556 27.8262 4.17033 32.5521 10 32.5521V31.9965ZM31.9965 21.9965H31.441C31.441 27.2125 27.2125 31.441 21.9965 31.441V31.9965V32.5521C27.8262 32.5521 32.5521 27.8262 32.5521 21.9965H31.9965ZM21.9965 0V0.555556C27.2125 0.555556 31.441 4.78398 31.441 10H31.9965H32.5521C32.5521 4.17033 27.8262 -0.555556 21.9965 -0.555556V0ZM10 0V-0.555556C4.17033 -0.555556 -0.555556 4.17033 -0.555556 10H0H0.555556C0.555556 4.78398 4.78398 0.555556 10 0.555556V0Z" fill="white" fill-opacity="0.06" mask="url(#path-1-inside-1_193_7947)"/>
<path d="M15.9981 17.1643C16.6421 17.1643 17.1642 16.6423 17.1642 15.9982C17.1642 15.3542 16.6421 14.8322 15.9981 14.8322C15.3541 14.8322 14.832 15.3542 14.832 15.9982C14.832 16.6423 15.3541 17.1643 15.9981 17.1643Z" stroke="white" stroke-width="1.16609" stroke-linecap="round" stroke-linejoin="round"/>
<path opacity="0.55" d="M13.9576 13.9576C13.4235 14.5026 13.1243 15.2352 13.1243 15.9983C13.1243 16.7614 13.4235 17.494 13.9576 18.0389" stroke="white" stroke-width="1.16609" stroke-linecap="round" stroke-linejoin="round"/>
<path opacity="0.55" d="M18.0388 13.9576C18.573 14.5026 18.8722 15.2352 18.8722 15.9983C18.8722 16.7614 18.573 17.494 18.0388 18.0389" stroke="white" stroke-width="1.16609" stroke-linecap="round" stroke-linejoin="round"/>
<path opacity="0.3" d="M12.2086 12.2085C11.6971 12.6983 11.2901 13.2866 11.012 13.9379C10.7339 14.5892 10.5906 15.2901 10.5906 15.9983C10.5906 16.7065 10.7339 17.4073 11.012 18.0586C11.2901 18.71 11.6971 19.2982 12.2086 19.7881" stroke="white" stroke-width="1.16609" stroke-linecap="round" stroke-linejoin="round"/>
<path opacity="0.3" d="M19.7881 12.2085C20.2996 12.6983 20.7066 13.2866 20.9846 13.9379C21.2627 14.5892 21.4061 15.2901 21.4061 15.9983C21.4061 16.7065 21.2627 17.4073 20.9846 18.0586C20.7066 18.71 20.2996 19.2982 19.7881 19.7881" stroke="white" stroke-width="1.16609" stroke-linecap="round" stroke-linejoin="round"/>
</svg>
