<svg width="32" height="32" viewBox="0 0 32 32" fill="none" xmlns="http://www.w3.org/2000/svg">
<mask id="path-1-inside-1_193_7916" fill="white">
<path d="M0 10C0 4.47715 4.47715 0 10 0H21.9965C27.5194 0 31.9965 4.47715 31.9965 10V21.9965C31.9965 27.5194 27.5194 31.9965 21.9965 31.9965H10C4.47715 31.9965 0 27.5194 0 21.9965V10Z"/>
</mask>
<path d="M0 10C0 4.47715 4.47715 0 10 0H21.9965C27.5194 0 31.9965 4.47715 31.9965 10V21.9965C31.9965 27.5194 27.5194 31.9965 21.9965 31.9965H10C4.47715 31.9965 0 27.5194 0 21.9965V10Z" fill="#18181B"/>
<path d="M10 0V0.555556H21.9965V0V-0.555556H10V0ZM31.9965 10H31.441V21.9965H31.9965H32.5521V10H31.9965ZM21.9965 31.9965V31.441H10V31.9965V32.5521H21.9965V31.9965ZM0 21.9965H0.555556V10H0H-0.555556V21.9965H0ZM10 31.9965V31.441C4.78398 31.441 0.555556 27.2125 0.555556 21.9965H0H-0.555556C-0.555556 27.8262 4.17033 32.5521 10 32.5521V31.9965ZM31.9965 21.9965H31.441C31.441 27.2125 27.2125 31.441 21.9965 31.441V31.9965V32.5521C27.8262 32.5521 32.5521 27.8262 32.5521 21.9965H31.9965ZM21.9965 0V0.555556C27.2125 0.555556 31.441 4.78398 31.441 10H31.9965H32.5521C32.5521 4.17033 27.8262 -0.555556 21.9965 -0.555556V0ZM10 0V-0.555556C4.17033 -0.555556 -0.555556 4.17033 -0.555556 10H0H0.555556C0.555556 4.78398 4.78398 0.555556 10 0.555556V0Z" fill="white" fill-opacity="0.06" mask="url(#path-1-inside-1_193_7916)"/>
<g clip-path="url(#clip0_193_7916)">
<path d="M20.6625 10.7509H11.3338C10.6898 10.7509 10.1677 11.2729 10.1677 11.9169V17.7474C10.1677 18.3914 10.6898 18.9135 11.3338 18.9135H20.6625C21.3065 18.9135 21.8286 18.3914 21.8286 17.7474V11.9169C21.8286 11.2729 21.3065 10.7509 20.6625 10.7509Z" stroke="white" stroke-width="1.16609" stroke-linecap="round" stroke-linejoin="round"/>
<path d="M13.666 21.2456H18.3304M15.9982 18.9135V21.2456" stroke="white" stroke-width="1.16609" stroke-linecap="round" stroke-linejoin="round"/>
<path opacity="0.6" d="M13.8119 12.5H12.3543C12.1128 12.5 11.917 12.6958 11.917 12.9373V13.8118C11.917 14.0534 12.1128 14.2491 12.3543 14.2491H13.8119C14.0534 14.2491 14.2492 14.0534 14.2492 13.8118V12.9373C14.2492 12.6958 14.0534 12.5 13.8119 12.5Z" stroke="white" stroke-width="1.16609" stroke-linecap="round" stroke-linejoin="round"/>
<path opacity="0.6" d="M16.7269 12.5H15.2693C15.0278 12.5 14.832 12.6958 14.832 12.9373V13.8118C14.832 14.0534 15.0278 14.2491 15.2693 14.2491H16.7269C16.9684 14.2491 17.1642 14.0534 17.1642 13.8118V12.9373C17.1642 12.6958 16.9684 12.5 16.7269 12.5Z" stroke="white" stroke-width="1.16609" stroke-linecap="round" stroke-linejoin="round"/>
<path opacity="0.6" d="M19.0592 12.5H18.1846C17.9431 12.5 17.7473 12.6958 17.7473 12.9373V13.8118C17.7473 14.0534 17.9431 14.2491 18.1846 14.2491H19.0592C19.3007 14.2491 19.4964 14.0534 19.4964 13.8118V12.9373C19.4964 12.6958 19.3007 12.5 19.0592 12.5Z" stroke="white" stroke-width="1.16609" stroke-linecap="round" stroke-linejoin="round"/>
<path opacity="0.45" d="M13.8119 14.8322H12.3543C12.1128 14.8322 11.917 15.0279 11.917 15.2694V16.144C11.917 16.3855 12.1128 16.5813 12.3543 16.5813H13.8119C14.0534 16.5813 14.2492 16.3855 14.2492 16.144V15.2694C14.2492 15.0279 14.0534 14.8322 13.8119 14.8322Z" stroke="white" stroke-width="1.16609" stroke-linecap="round" stroke-linejoin="round"/>
<path opacity="0.45" d="M16.7269 14.8322H15.2693C15.0278 14.8322 14.832 15.0279 14.832 15.2694V16.144C14.832 16.3855 15.0278 16.5813 15.2693 16.5813H16.7269C16.9684 16.5813 17.1642 16.3855 17.1642 16.144V15.2694C17.1642 15.0279 16.9684 14.8322 16.7269 14.8322Z" stroke="white" stroke-width="1.16609" stroke-linecap="round" stroke-linejoin="round"/>
</g>
<defs>
<clipPath id="clip0_193_7916">
<rect width="13.9931" height="13.9931" fill="white" transform="translate(9.00171 9.00171)"/>
</clipPath>
</defs>
</svg>
