<svg width="48" height="48" viewBox="0 0 48 48" fill="none" xmlns="http://www.w3.org/2000/svg">
<path d="M0 16C0 7.16346 7.16345 0 16 0H31.9948C40.8313 0 47.9948 7.16345 47.9948 16V31.9948C47.9948 40.8313 40.8313 47.9948 31.9948 47.9948H16C7.16346 47.9948 0 40.8313 0 31.9948V16Z" fill="#F97316" fill-opacity="0.1"/>
<path d="M18.4939 33.1625V16.6651C18.4939 16.1789 18.687 15.7127 19.0308 15.3689C19.3745 15.0252 19.8408 14.832 20.3269 14.832H27.6591C28.1453 14.832 28.6115 15.0252 28.9553 15.3689C29.299 15.7127 29.4922 16.1789 29.4922 16.6651V33.1625H18.4939Z" stroke="#F97316" stroke-width="1.83304" stroke-linecap="round" stroke-linejoin="round"/>
<path d="M18.4939 23.9973H16.6609C16.1747 23.9973 15.7085 24.1904 15.3647 24.5342C15.0209 24.878 14.8278 25.3442 14.8278 25.8304V31.3295C14.8278 31.8156 15.0209 32.2819 15.3647 32.6256C15.7085 32.9694 16.1747 33.1625 16.6609 33.1625H18.4939" stroke="#F97316" stroke-width="1.83304" stroke-linecap="round" stroke-linejoin="round"/>
<path d="M29.4921 21.2478H31.3252C31.8113 21.2478 32.2776 21.4409 32.6213 21.7847C32.9651 22.1285 33.1582 22.5947 33.1582 23.0808V31.3295C33.1582 31.8157 32.9651 32.2819 32.6213 32.6257C32.2776 32.9695 31.8113 33.1626 31.3252 33.1626H29.4921" stroke="#F97316" stroke-width="1.83304" stroke-linecap="round" stroke-linejoin="round"/>
<path d="M22.16 18.498H25.8261" stroke="#F97316" stroke-width="1.83304" stroke-linecap="round" stroke-linejoin="round"/>
<path d="M22.16 22.1643H25.8261" stroke="#F97316" stroke-width="1.83304" stroke-linecap="round" stroke-linejoin="round"/>
<path d="M22.16 25.8303H25.8261" stroke="#F97316" stroke-width="1.83304" stroke-linecap="round" stroke-linejoin="round"/>
<path d="M22.16 29.4963H25.8261" stroke="#F97316" stroke-width="1.83304" stroke-linecap="round" stroke-linejoin="round"/>
</svg>
