<svg width="48" height="48" viewBox="0 0 48 48" fill="none" xmlns="http://www.w3.org/2000/svg">
<path d="M0 16C0 7.16346 7.16345 0 16 0H31.9948C40.8313 0 47.9948 7.16345 47.9948 16V31.9948C47.9948 40.8313 40.8313 47.9948 31.9948 47.9948H16C7.16346 47.9948 0 40.8313 0 31.9948V16Z" fill="#A78BFA" fill-opacity="0.1"/>
<path d="M21.2435 15.7485H16.6609C16.1547 15.7485 15.7444 16.1589 15.7444 16.6651V21.2477C15.7444 21.7538 16.1547 22.1642 16.6609 22.1642H21.2435C21.7497 22.1642 22.16 21.7538 22.16 21.2477V16.6651C22.16 16.1589 21.7497 15.7485 21.2435 15.7485Z" stroke="#A78BFA" stroke-width="1.83304" stroke-linecap="round" stroke-linejoin="round"/>
<path d="M31.3253 15.7485H26.7426C26.2365 15.7485 25.8261 16.1589 25.8261 16.6651V21.2477C25.8261 21.7538 26.2365 22.1642 26.7426 22.1642H31.3253C31.8314 22.1642 32.2418 21.7538 32.2418 21.2477V16.6651C32.2418 16.1589 31.8314 15.7485 31.3253 15.7485Z" stroke="#A78BFA" stroke-width="1.83304" stroke-linecap="round" stroke-linejoin="round"/>
<path d="M31.3253 25.8303H26.7426C26.2365 25.8303 25.8261 26.2407 25.8261 26.7468V31.3295C25.8261 31.8356 26.2365 32.246 26.7426 32.246H31.3253C31.8314 32.246 32.2418 31.8356 32.2418 31.3295V26.7468C32.2418 26.2407 31.8314 25.8303 31.3253 25.8303Z" stroke="#A78BFA" stroke-width="1.83304" stroke-linecap="round" stroke-linejoin="round"/>
<path d="M21.2435 25.8303H16.6609C16.1547 25.8303 15.7444 26.2407 15.7444 26.7468V31.3295C15.7444 31.8356 16.1547 32.246 16.6609 32.246H21.2435C21.7497 32.246 22.16 31.8356 22.16 31.3295V26.7468C22.16 26.2407 21.7497 25.8303 21.2435 25.8303Z" stroke="#A78BFA" stroke-width="1.83304" stroke-linecap="round" stroke-linejoin="round"/>
</svg>
