<svg width="48" height="48" viewBox="0 0 48 48" fill="none" xmlns="http://www.w3.org/2000/svg">
<path d="M0 16C0 7.16346 7.16345 0 16 0H31.9948C40.8313 0 47.9948 7.16345 47.9948 16V31.9948C47.9948 40.8313 40.8313 47.9948 31.9948 47.9948H16C7.16346 47.9948 0 40.8313 0 31.9948V16Z" fill="#4F46E5" fill-opacity="0.1"/>
<path d="M31.3252 19.4148H16.6609C15.6485 19.4148 14.8279 20.2355 14.8279 21.2478V31.3296C14.8279 32.3419 15.6485 33.1626 16.6609 33.1626H31.3252C32.3376 33.1626 33.1583 32.3419 33.1583 31.3296V21.2478C33.1583 20.2355 32.3376 19.4148 31.3252 19.4148Z" stroke="#4F46E5" stroke-width="1.83304" stroke-linecap="round" stroke-linejoin="round"/>
<path d="M28.5757 14.832L23.9931 19.4146L19.4105 14.832" stroke="#4F46E5" stroke-width="1.83304" stroke-linecap="round" stroke-linejoin="round"/>
</svg>
