<svg width="15" height="15" viewBox="0 0 15 15" fill="none" xmlns="http://www.w3.org/2000/svg">
<g clip-path="url(#clip0_244_3039)">
<path d="M2.50018 8.74968C2.38191 8.75008 2.26595 8.71691 2.16577 8.65404C2.0656 8.59116 1.98532 8.50115 1.93427 8.39446C1.88322 8.28777 1.86349 8.16879 1.87737 8.05134C1.89124 7.93388 1.93817 7.82277 2.01268 7.73093L8.20018 1.35592C8.24659 1.30235 8.30984 1.26615 8.37954 1.25326C8.44924 1.24037 8.52126 1.25156 8.58376 1.28499C8.64626 1.31842 8.69554 1.37211 8.72351 1.43724C8.75148 1.50237 8.75648 1.57508 8.73768 1.64342L7.53768 5.40592C7.50229 5.50063 7.49041 5.6025 7.50305 5.7028C7.51569 5.80311 7.55247 5.89885 7.61024 5.98182C7.668 6.06478 7.74504 6.1325 7.83473 6.17915C7.92441 6.2258 8.02408 6.25 8.12518 6.24968H12.5002C12.6185 6.24927 12.7344 6.28244 12.8346 6.34531C12.9348 6.40819 13.015 6.4982 13.0661 6.60489C13.1171 6.71158 13.1369 6.83056 13.123 6.94801C13.1091 7.06547 13.0622 7.17658 12.9877 7.26843L6.80018 13.6434C6.75377 13.697 6.69052 13.7332 6.62082 13.7461C6.55111 13.759 6.4791 13.7478 6.4166 13.7144C6.35409 13.6809 6.30481 13.6272 6.27684 13.5621C6.24888 13.497 6.24388 13.4243 6.26268 13.3559L7.46268 9.59343C7.49806 9.49872 7.50995 9.39685 7.49731 9.29655C7.48467 9.19624 7.44789 9.1005 7.39012 9.01753C7.33235 8.93457 7.25532 8.86685 7.16563 8.8202C7.07594 8.77355 6.97628 8.74935 6.87518 8.74968H2.50018Z" stroke="#A78BFA" stroke-width="1.25" stroke-linecap="round" stroke-linejoin="round"/>
</g>
<defs>
<clipPath id="clip0_244_3039">
<rect width="15" height="15" fill="white"/>
</clipPath>
</defs>
</svg>
