<svg width="15" height="15" viewBox="0 0 15 15" fill="none" xmlns="http://www.w3.org/2000/svg">
<g clip-path="url(#clip0_244_2997)">
<path d="M8.01854 1.36272C7.85569 1.28844 7.67879 1.25 7.49979 1.25C7.3208 1.25 7.1439 1.28844 6.98104 1.36272L1.62479 3.80022C1.51389 3.84913 1.41959 3.92922 1.3534 4.03076C1.2872 4.13229 1.25195 4.25089 1.25195 4.3721C1.25195 4.49331 1.2872 4.6119 1.3534 4.71344C1.41959 4.81497 1.51389 4.89507 1.62479 4.94397L6.98729 7.38772C7.15015 7.46201 7.32705 7.50045 7.50604 7.50045C7.68504 7.50045 7.86194 7.46201 8.02479 7.38772L13.3873 4.95022C13.4982 4.90132 13.5925 4.82122 13.6587 4.71969C13.7249 4.61815 13.7601 4.49956 13.7601 4.37835C13.7601 4.25714 13.7249 4.13854 13.6587 4.03701C13.5925 3.93547 13.4982 3.85538 13.3873 3.80647L8.01854 1.36272Z" stroke="#4F46E5" stroke-width="1.25" stroke-linecap="round" stroke-linejoin="round"/>
<path d="M1.25 7.5C1.24971 7.61954 1.2837 7.73666 1.34795 7.83747C1.4122 7.93828 1.50401 8.01854 1.6125 8.06875L6.9875 10.5125C7.1495 10.5859 7.32529 10.6238 7.50313 10.6238C7.68096 10.6238 7.85675 10.5859 8.01875 10.5125L13.3813 8.075C13.4919 8.02527 13.5857 7.94443 13.6511 7.84233C13.7166 7.74023 13.751 7.62129 13.75 7.5" stroke="#4F46E5" stroke-width="1.25" stroke-linecap="round" stroke-linejoin="round"/>
<path d="M1.25 10.625C1.24971 10.7445 1.2837 10.8617 1.34795 10.9625C1.4122 11.0633 1.50401 11.1435 1.6125 11.1937L6.9875 13.6375C7.1495 13.7109 7.32529 13.7488 7.50313 13.7488C7.68096 13.7488 7.85675 13.7109 8.01875 13.6375L13.3813 11.2C13.4919 11.1503 13.5857 11.0694 13.6511 10.9673C13.7166 10.8652 13.751 10.7463 13.75 10.625" stroke="#4F46E5" stroke-width="1.25" stroke-linecap="round" stroke-linejoin="round"/>
</g>
<defs>
<clipPath id="clip0_244_2997">
<rect width="15" height="15" fill="white"/>
</clipPath>
</defs>
</svg>
