<svg width="40" height="40" viewBox="0 0 40 40" fill="none" xmlns="http://www.w3.org/2000/svg">
<path d="M0 14C0 6.26801 6.26801 0 14 0H26C33.732 0 40 6.26801 40 14V26C40 33.732 33.732 40 26 40H14C6.26801 40 0 33.732 0 26V14Z" fill="#18181B"/>
<path opacity="0.3" d="M13.2476 25.9982H26.7437" stroke="white" stroke-width="1.49957" stroke-linecap="round" stroke-linejoin="round"/>
<path opacity="0.5" d="M15.4969 20H14.7471C14.333 20 13.9973 20.3357 13.9973 20.7498V25.2485C13.9973 25.6626 14.333 25.9983 14.7471 25.9983H15.4969C15.911 25.9983 16.2467 25.6626 16.2467 25.2485V20.7498C16.2467 20.3357 15.911 20 15.4969 20Z" stroke="white" stroke-width="1.49957" stroke-linecap="round" stroke-linejoin="round"/>
<path opacity="0.7" d="M19.9957 16.2511H19.2459C18.8318 16.2511 18.4961 16.5868 18.4961 17.0009V25.2485C18.4961 25.6626 18.8318 25.9983 19.2459 25.9983H19.9957C20.4098 25.9983 20.7454 25.6626 20.7454 25.2485V17.0009C20.7454 16.5868 20.4098 16.2511 19.9957 16.2511Z" stroke="white" stroke-width="1.49957" stroke-linecap="round" stroke-linejoin="round"/>
<path d="M24.4944 14.0017H23.7447C23.3306 14.0017 22.9949 14.3374 22.9949 14.7515V25.2485C22.9949 25.6625 23.3306 25.9982 23.7447 25.9982H24.4944C24.9085 25.9982 25.2442 25.6625 25.2442 25.2485V14.7515C25.2442 14.3374 24.9085 14.0017 24.4944 14.0017Z" stroke="white" stroke-width="1.49957" stroke-linecap="round" stroke-linejoin="round"/>
<path opacity="0.65" d="M13.2476 22.9991L16.2467 20.7497L19.2458 22.2493L22.245 18.5004L25.2441 19.2501" stroke="white" stroke-width="1.12467" stroke-linecap="round" stroke-linejoin="round"/>
</svg>
