<svg width="16" height="16" viewBox="0 0 16 16" fill="none" xmlns="http://www.w3.org/2000/svg">
<g clip-path="url(#clip0_244_2744)">
<path d="M6.62373 10.3322C6.56421 10.1015 6.44397 9.89098 6.27551 9.72252C6.10705 9.55406 5.89652 9.43381 5.66583 9.3743L1.57627 8.31975C1.5065 8.29995 1.4451 8.25792 1.40137 8.20006C1.35764 8.14219 1.33398 8.07164 1.33398 7.99912C1.33398 7.92659 1.35764 7.85604 1.40137 7.79818C1.4451 7.74031 1.5065 7.69829 1.57627 7.67849L5.66583 6.62327C5.89644 6.56381 6.10691 6.44367 6.27537 6.27533C6.44382 6.10699 6.56411 5.8966 6.62373 5.66604L7.67828 1.57648C7.69788 1.50643 7.73986 1.44472 7.79781 1.40076C7.85576 1.3568 7.92651 1.33301 7.99924 1.33301C8.07198 1.33301 8.14272 1.3568 8.20068 1.40076C8.25863 1.44472 8.30061 1.50643 8.32021 1.57648L9.3741 5.66604C9.43361 5.89673 9.55385 6.10725 9.72231 6.27572C9.89077 6.44418 10.1013 6.56442 10.332 6.62393L14.4215 7.67782C14.4919 7.69722 14.5539 7.73915 14.5981 7.79719C14.6423 7.85523 14.6662 7.92617 14.6662 7.99912C14.6662 8.07207 14.6423 8.14301 14.5981 8.20104C14.5539 8.25908 14.4919 8.30102 14.4215 8.32042L10.332 9.3743C10.1013 9.43381 9.89077 9.55406 9.72231 9.72252C9.55385 9.89098 9.43361 10.1015 9.3741 10.3322L8.31954 14.4218C8.29994 14.4918 8.25796 14.5535 8.20001 14.5975C8.14206 14.6414 8.07132 14.6652 7.99858 14.6652C7.92584 14.6652 7.8551 14.6414 7.79715 14.5975C7.7392 14.5535 7.69722 14.4918 7.67761 14.4218L6.62373 10.3322Z" stroke="#4F46E5" stroke-width="1.33319" stroke-linecap="round" stroke-linejoin="round"/>
<path d="M13.332 2V4.66638" stroke="#4F46E5" stroke-width="1.33319" stroke-linecap="round" stroke-linejoin="round"/>
<path d="M14.6654 3.33301H11.999" stroke="#4F46E5" stroke-width="1.33319" stroke-linecap="round" stroke-linejoin="round"/>
<path d="M2.66602 11.332V12.6652" stroke="#4F46E5" stroke-width="1.33319" stroke-linecap="round" stroke-linejoin="round"/>
<path d="M3.33319 11.999H2" stroke="#4F46E5" stroke-width="1.33319" stroke-linecap="round" stroke-linejoin="round"/>
</g>
<defs>
<clipPath id="clip0_244_2744">
<rect width="15.9983" height="15.9983" fill="white"/>
</clipPath>
</defs>
</svg>
