<svg width="16" height="16" viewBox="0 0 16 16" fill="none" xmlns="http://www.w3.org/2000/svg">
<g clip-path="url(#clip0_244_2733)">
<path d="M8.55285 1.45323C8.37916 1.37401 8.19048 1.33301 7.99958 1.33301C7.80867 1.33301 7.61999 1.37401 7.4463 1.45323L1.73359 4.05295C1.6153 4.10511 1.51473 4.19053 1.44413 4.29883C1.37353 4.40712 1.33594 4.53361 1.33594 4.66288C1.33594 4.79216 1.37353 4.91865 1.44413 5.02694C1.51473 5.13523 1.6153 5.22066 1.73359 5.27282L7.45297 7.8792C7.62666 7.95843 7.81534 7.99943 8.00624 7.99943C8.19715 7.99943 8.38583 7.95843 8.55952 7.8792L14.2789 5.27948C14.3972 5.22733 14.4978 5.1419 14.5684 5.03361C14.639 4.92531 14.6766 4.79883 14.6766 4.66955C14.6766 4.54027 14.639 4.41379 14.5684 4.30549C14.4978 4.1972 14.3972 4.11177 14.2789 4.05962L8.55285 1.45323Z" stroke="#4F46E5" stroke-width="1.33319" stroke-linecap="round" stroke-linejoin="round"/>
<path d="M1.33301 7.99902C1.33269 8.12652 1.36895 8.25143 1.43748 8.35895C1.506 8.46647 1.60393 8.55208 1.71963 8.60562L7.45235 11.212C7.62513 11.2902 7.81262 11.3307 8.00229 11.3307C8.19196 11.3307 8.37944 11.2902 8.55223 11.212L14.2716 8.61229C14.3896 8.55926 14.4896 8.47303 14.5594 8.36414C14.6293 8.25524 14.6659 8.12838 14.6649 7.99902" stroke="#4F46E5" stroke-width="1.33319" stroke-linecap="round" stroke-linejoin="round"/>
<path d="M1.33301 11.332C1.33269 11.4595 1.36895 11.5844 1.43748 11.692C1.506 11.7995 1.60393 11.8851 1.71963 11.9386L7.45235 14.545C7.62513 14.6233 7.81262 14.6637 8.00229 14.6637C8.19196 14.6637 8.37944 14.6233 8.55223 14.545L14.2716 11.9453C14.3896 11.8923 14.4896 11.806 14.5594 11.6971C14.6293 11.5883 14.6659 11.4614 14.6649 11.332" stroke="#4F46E5" stroke-width="1.33319" stroke-linecap="round" stroke-linejoin="round"/>
</g>
<defs>
<clipPath id="clip0_244_2733">
<rect width="15.9983" height="15.9983" fill="white"/>
</clipPath>
</defs>
</svg>
