<svg width="16" height="16" viewBox="0 0 16 16" fill="none" xmlns="http://www.w3.org/2000/svg">
<g clip-path="url(#clip0_244_2757)">
<path d="M2.66594 9.33192C2.53979 9.33235 2.41612 9.29698 2.30928 9.22992C2.20244 9.16286 2.11682 9.06686 2.06237 8.95307C2.00792 8.83928 1.98687 8.71238 2.00168 8.58711C2.01648 8.46184 2.06652 8.34334 2.14599 8.24537L8.74528 1.44611C8.79478 1.38897 8.86224 1.35036 8.93658 1.33661C9.01092 1.32286 9.08772 1.3348 9.15439 1.37046C9.22105 1.40611 9.27361 1.46337 9.30344 1.53284C9.33327 1.60231 9.3386 1.67985 9.31855 1.75275L8.03869 5.76564C8.00095 5.86665 7.98827 5.9753 8.00175 6.08228C8.01523 6.18926 8.05446 6.29137 8.11607 6.37986C8.17769 6.46835 8.25985 6.54057 8.3555 6.59033C8.45116 6.64009 8.55746 6.6659 8.66529 6.66555H13.3314C13.4576 6.66512 13.5813 6.70049 13.6881 6.76755C13.7949 6.83461 13.8806 6.93061 13.935 7.0444C13.9895 7.15819 14.0105 7.28509 13.9957 7.41036C13.9809 7.53563 13.9309 7.65413 13.8514 7.75209L7.25211 14.5514C7.2026 14.6085 7.13515 14.6471 7.06081 14.6609C6.98647 14.6746 6.90966 14.6627 6.843 14.627C6.77633 14.5914 6.72377 14.5341 6.69394 14.4646C6.66411 14.3952 6.65879 14.3176 6.67884 14.2447L7.9587 10.2318C7.99644 10.1308 8.00911 10.0222 7.99563 9.91519C7.98215 9.80821 7.94293 9.7061 7.88131 9.61761C7.8197 9.52912 7.73754 9.4569 7.64188 9.40714C7.54622 9.35738 7.43992 9.33157 7.3321 9.33192H2.66594Z" stroke="#4F46E5" stroke-width="1.33319" stroke-linecap="round" stroke-linejoin="round"/>
</g>
<defs>
<clipPath id="clip0_244_2757">
<rect width="15.9983" height="15.9983" fill="white"/>
</clipPath>
</defs>
</svg>
