<svg width="40" height="40" viewBox="0 0 40 40" fill="none" xmlns="http://www.w3.org/2000/svg">
<mask id="path-1-inside-1_244_3971" fill="white">
<path d="M0 14C0 6.26801 6.26801 0 14 0H26C33.732 0 40 6.26801 40 14V26C40 33.732 33.732 40 26 40H14C6.26801 40 0 33.732 0 26V14Z"/>
</mask>
<path d="M0 14C0 6.26801 6.26801 0 14 0H26C33.732 0 40 6.26801 40 14V26C40 33.732 33.732 40 26 40H14C6.26801 40 0 33.732 0 26V14Z" fill="#4F46E5" fill-opacity="0.1"/>
<path d="M14 0V0.555556H26V0V-0.555556H14V0ZM40 14H39.4444V26H40H40.5556V14H40ZM26 40V39.4444H14V40V40.5556H26V40ZM0 26H0.555556V14H0H-0.555556V26H0ZM14 40V39.4444C6.57484 39.4444 0.555556 33.4252 0.555556 26H0H-0.555556C-0.555556 34.0388 5.96119 40.5556 14 40.5556V40ZM40 26H39.4444C39.4444 33.4252 33.4252 39.4444 26 39.4444V40V40.5556C34.0388 40.5556 40.5556 34.0388 40.5556 26H40ZM26 0V0.555556C33.4252 0.555556 39.4444 6.57484 39.4444 14H40H40.5556C40.5556 5.96119 34.0388 -0.555556 26 -0.555556V0ZM14 0V-0.555556C5.96119 -0.555556 -0.555556 5.96119 -0.555556 14H0H0.555556C0.555556 6.57484 6.57484 0.555556 14 0.555556V0Z" fill="#4F46E5" fill-opacity="0.2" mask="url(#path-1-inside-1_244_3971)"/>
<path d="M13.2476 13.252V25.2485C13.2476 25.6462 13.4055 26.0276 13.6868 26.3088C13.968 26.5901 14.3494 26.748 14.7471 26.748H26.7437" stroke="#4F46E5" stroke-width="1.49957" stroke-linecap="round" stroke-linejoin="round"/>
<path d="M24.4944 23.7489V17.7506" stroke="#4F46E5" stroke-width="1.49957" stroke-linecap="round" stroke-linejoin="round"/>
<path d="M20.7454 23.7489V14.7515" stroke="#4F46E5" stroke-width="1.49957" stroke-linecap="round" stroke-linejoin="round"/>
<path d="M16.9966 23.7489V21.4995" stroke="#4F46E5" stroke-width="1.49957" stroke-linecap="round" stroke-linejoin="round"/>
</svg>
