<svg width="396" height="259" viewBox="0 0 396 259" fill="none" xmlns="http://www.w3.org/2000/svg">
<g clip-path="url(#clip0_417_8057)">
<path d="M7.89917 217.312C7.89917 215.656 9.24232 214.312 10.8992 214.312H36.8992C38.556 214.312 39.8992 215.656 39.8992 217.312V258.219H7.89917V217.312Z" fill="url(#paint0_linear_417_8057)"/>
<path d="M47.4133 90.1501C47.4133 88.4933 48.7565 87.1501 50.4133 87.1501H76.4133C78.0702 87.1501 79.4133 88.4933 79.4133 90.1501V258.089H47.4133V90.1501Z" fill="url(#paint1_linear_417_8057)"/>
<path d="M86.9185 223.722C86.9185 222.065 88.2616 220.722 89.9185 220.722H115.918C117.575 220.722 118.918 222.065 118.918 223.722V258.225H86.9185V223.722Z" fill="url(#paint2_linear_417_8057)"/>
<path d="M126.432 156.735C126.432 155.079 127.776 153.735 129.432 153.735H155.432C157.089 153.735 158.432 155.079 158.432 156.735V258.157H126.432V156.735Z" fill="url(#paint3_linear_417_8057)"/>
<path d="M165.946 148.041C165.946 146.384 167.289 145.041 168.946 145.041H194.946C196.603 145.041 197.946 146.384 197.946 148.041V258.148H165.946V148.041Z" fill="url(#paint4_linear_417_8057)"/>
<path d="M205.451 234.878C205.451 233.221 206.795 231.878 208.451 231.878H234.451C236.108 231.878 237.451 233.221 237.451 234.878V258.237H205.451V234.878Z" fill="url(#paint5_linear_417_8057)"/>
<path d="M244.965 222.837C244.965 221.18 246.308 219.837 247.965 219.837H273.965C275.622 219.837 276.965 221.18 276.965 222.837V258.225H244.965V222.837Z" fill="url(#paint6_linear_417_8057)"/>
<path d="M284.479 220.865C284.479 219.208 285.822 217.865 287.479 217.865H313.479C315.136 217.865 316.479 219.208 316.479 220.865V258.223H284.479V220.865Z" fill="url(#paint7_linear_417_8057)"/>
<path d="M323.984 243.433C323.984 241.776 325.328 240.433 326.984 240.433H352.984C354.641 240.433 355.984 241.776 355.984 243.433V258.246H323.984V243.433Z" fill="url(#paint8_linear_417_8057)"/>
<path d="M363.498 181.702C363.498 180.045 364.841 178.702 366.498 178.702H392.498C394.155 178.702 395.498 180.045 395.498 181.702V258.182H363.498V181.702Z" fill="url(#paint9_linear_417_8057)"/>
</g>
<defs>
<linearGradient id="paint0_linear_417_8057" x1="23.8992" y1="258.219" x2="23.8992" y2="214.312" gradientUnits="userSpaceOnUse">
<stop stop-color="#4F46E5" stop-opacity="0.333"/>
<stop offset="1" stop-color="#4F46E5" stop-opacity="0.07"/>
</linearGradient>
<linearGradient id="paint1_linear_417_8057" x1="63.4133" y1="258.089" x2="63.4133" y2="87.1501" gradientUnits="userSpaceOnUse">
<stop stop-color="#4F46E5" stop-opacity="0.333"/>
<stop offset="1" stop-color="#4F46E5" stop-opacity="0.07"/>
</linearGradient>
<linearGradient id="paint2_linear_417_8057" x1="102.918" y1="258.225" x2="102.918" y2="220.722" gradientUnits="userSpaceOnUse">
<stop stop-color="#4F46E5" stop-opacity="0.333"/>
<stop offset="1" stop-color="#4F46E5" stop-opacity="0.07"/>
</linearGradient>
<linearGradient id="paint3_linear_417_8057" x1="142.432" y1="258.157" x2="142.432" y2="153.735" gradientUnits="userSpaceOnUse">
<stop stop-color="#4F46E5" stop-opacity="0.333"/>
<stop offset="1" stop-color="#4F46E5" stop-opacity="0.07"/>
</linearGradient>
<linearGradient id="paint4_linear_417_8057" x1="181.946" y1="258.148" x2="181.946" y2="145.041" gradientUnits="userSpaceOnUse">
<stop stop-color="#4F46E5" stop-opacity="0.333"/>
<stop offset="1" stop-color="#4F46E5" stop-opacity="0.07"/>
</linearGradient>
<linearGradient id="paint5_linear_417_8057" x1="221.451" y1="258.237" x2="221.451" y2="231.878" gradientUnits="userSpaceOnUse">
<stop stop-color="#4F46E5" stop-opacity="0.333"/>
<stop offset="1" stop-color="#4F46E5" stop-opacity="0.07"/>
</linearGradient>
<linearGradient id="paint6_linear_417_8057" x1="260.965" y1="258.225" x2="260.965" y2="219.837" gradientUnits="userSpaceOnUse">
<stop stop-color="#4F46E5" stop-opacity="0.333"/>
<stop offset="1" stop-color="#4F46E5" stop-opacity="0.07"/>
</linearGradient>
<linearGradient id="paint7_linear_417_8057" x1="300.479" y1="258.223" x2="300.479" y2="217.865" gradientUnits="userSpaceOnUse">
<stop stop-color="#4F46E5" stop-opacity="0.333"/>
<stop offset="1" stop-color="#4F46E5" stop-opacity="0.07"/>
</linearGradient>
<linearGradient id="paint8_linear_417_8057" x1="339.984" y1="258.246" x2="339.984" y2="240.433" gradientUnits="userSpaceOnUse">
<stop stop-color="#4F46E5" stop-opacity="0.333"/>
<stop offset="1" stop-color="#4F46E5" stop-opacity="0.07"/>
</linearGradient>
<linearGradient id="paint9_linear_417_8057" x1="379.498" y1="258.182" x2="379.498" y2="178.702" gradientUnits="userSpaceOnUse">
<stop stop-color="#4F46E5" stop-opacity="0.333"/>
<stop offset="1" stop-color="#4F46E5" stop-opacity="0.07"/>
</linearGradient>
<clipPath id="clip0_417_8057">
<rect width="395.113" height="258.264" fill="white"/>
</clipPath>
</defs>
</svg>
