<svg width="40" height="40" viewBox="0 0 40 40" fill="none" xmlns="http://www.w3.org/2000/svg">
<mask id="path-1-inside-1_244_3950" fill="white">
<path d="M0 14C0 6.26801 6.26801 0 14 0H26C33.732 0 40 6.26801 40 14V26C40 33.732 33.732 40 26 40H14C6.26801 40 0 33.732 0 26V14Z"/>
</mask>
<path d="M0 14C0 6.26801 6.26801 0 14 0H26C33.732 0 40 6.26801 40 14V26C40 33.732 33.732 40 26 40H14C6.26801 40 0 33.732 0 26V14Z" fill="#F97316" fill-opacity="0.1"/>
<path d="M14 0V0.555556H26V0V-0.555556H14V0ZM40 14H39.4444V26H40H40.5556V14H40ZM26 40V39.4444H14V40V40.5556H26V40ZM0 26H0.555556V14H0H-0.555556V26H0ZM14 40V39.4444C6.57484 39.4444 0.555556 33.4252 0.555556 26H0H-0.555556C-0.555556 34.0388 5.96119 40.5556 14 40.5556V40ZM40 26H39.4444C39.4444 33.4252 33.4252 39.4444 26 39.4444V40V40.5556C34.0388 40.5556 40.5556 34.0388 40.5556 26H40ZM26 0V0.555556C33.4252 0.555556 39.4444 6.57484 39.4444 14H40H40.5556C40.5556 5.96119 34.0388 -0.555556 26 -0.555556V0ZM14 0V-0.555556C5.96119 -0.555556 -0.555556 5.96119 -0.555556 14H0H0.555556C0.555556 6.57484 6.57484 0.555556 14 0.555556V0Z" fill="#F97316" fill-opacity="0.2" mask="url(#path-1-inside-1_244_3950)"/>
<g clip-path="url(#clip0_244_3950)">
<path d="M19.0457 14.8084C20.7922 14.6003 22.5588 14.9695 24.0759 15.8597C25.5929 16.7498 26.7768 18.112 27.447 19.7383C27.5095 19.9066 27.5095 20.0918 27.447 20.2601C27.1714 20.9282 26.8073 21.5561 26.3643 22.1271" stroke="#F97316" stroke-width="1.49957" stroke-linecap="round" stroke-linejoin="round"/>
<path d="M21.5582 21.618C21.134 22.0277 20.5658 22.2544 19.976 22.2493C19.3862 22.2442 18.8221 22.0076 18.405 21.5906C17.988 21.1735 17.7514 20.6093 17.7463 20.0196C17.7412 19.4298 17.9679 18.8616 18.3776 18.4374" stroke="#F97316" stroke-width="1.49957" stroke-linecap="round" stroke-linejoin="round"/>
<path d="M24.1037 24.1231C23.1091 24.7122 21.9994 25.0805 20.8499 25.203C19.7004 25.3255 18.538 25.1993 17.4416 24.833C16.3452 24.4667 15.3404 23.8688 14.4954 23.0799C13.6504 22.291 12.985 21.3296 12.5443 20.2609C12.4818 20.0926 12.4818 19.9074 12.5443 19.7391C13.2091 18.1269 14.3788 16.7739 15.8778 15.8829" stroke="#F97316" stroke-width="1.49957" stroke-linecap="round" stroke-linejoin="round"/>
<path d="M12.4978 12.5021L27.4935 27.4977" stroke="#F97316" stroke-width="1.49957" stroke-linecap="round" stroke-linejoin="round"/>
</g>
<defs>
<clipPath id="clip0_244_3950">
<rect width="17.9948" height="17.9948" fill="white" transform="translate(10.9983 11.0026)"/>
</clipPath>
</defs>
</svg>
