<svg width="240" height="133" viewBox="0 0 240 133" fill="none" xmlns="http://www.w3.org/2000/svg">
<path d="M9.60291 66.7182C83.201 25.9193 156.799 25.9193 230.397 66.7182C156.799 107.517 83.201 107.517 9.60291 66.7182Z" fill="#F97316" fill-opacity="0.07" stroke="#F97316" stroke-opacity="0.22" stroke-width="1.79995"/>
<path d="M120 100.317C138.556 100.317 153.599 85.2745 153.599 66.7183C153.599 48.162 138.556 33.1191 120 33.1191C101.444 33.1191 86.4009 48.162 86.4009 66.7183C86.4009 85.2745 101.444 100.317 120 100.317Z" fill="#F97316" fill-opacity="0.11" stroke="#F97316" stroke-opacity="0.2" stroke-width="1.19997"/>
<path d="M120 82.3178C128.615 82.3178 135.6 75.3337 135.6 66.7182C135.6 58.1028 128.615 51.1187 120 51.1187C111.385 51.1187 104.4 58.1028 104.4 66.7182C104.4 75.3337 111.385 82.3178 120 82.3178Z" fill="#F97316" fill-opacity="0.28"/>
<path d="M133.2 62.5184C136.845 62.5184 139.8 59.5635 139.8 55.9186C139.8 52.2736 136.845 49.3187 133.2 49.3187C129.555 49.3187 126.6 52.2736 126.6 55.9186C126.6 59.5635 129.555 62.5184 133.2 62.5184Z" fill="white" fill-opacity="0.35"/>
<path d="M74.4012 20.9274L70.7533 8.92773" stroke="#F97316" stroke-opacity="0.18" stroke-width="1.43996" stroke-linecap="round"/>
<path d="M98.4006 16.6076L96.6726 4.60791" stroke="#F97316" stroke-opacity="0.18" stroke-width="1.43996" stroke-linecap="round"/>
<path d="M120 12.7197V0.719971" stroke="#F97316" stroke-opacity="0.18" stroke-width="1.43996" stroke-linecap="round"/>
<path d="M141.599 16.6076L143.327 4.60791" stroke="#F97316" stroke-opacity="0.18" stroke-width="1.43996" stroke-linecap="round"/>
<path d="M165.599 20.9274L169.247 8.92773" stroke="#F97316" stroke-opacity="0.18" stroke-width="1.43996" stroke-linecap="round"/>
</svg>
