<svg width="40" height="40" viewBox="0 0 40 40" fill="none" xmlns="http://www.w3.org/2000/svg">
<mask id="path-1-inside-1_244_3992" fill="white">
<path d="M0 14C0 6.26801 6.26801 0 14 0H26C33.732 0 40 6.26801 40 14V26C40 33.732 33.732 40 26 40H14C6.26801 40 0 33.732 0 26V14Z"/>
</mask>
<path d="M0 14C0 6.26801 6.26801 0 14 0H26C33.732 0 40 6.26801 40 14V26C40 33.732 33.732 40 26 40H14C6.26801 40 0 33.732 0 26V14Z" fill="#A78BFA" fill-opacity="0.1"/>
<path d="M14 0V0.555556H26V0V-0.555556H14V0ZM40 14H39.4444V26H40H40.5556V14H40ZM26 40V39.4444H14V40V40.5556H26V40ZM0 26H0.555556V14H0H-0.555556V26H0ZM14 40V39.4444C6.57484 39.4444 0.555556 33.4252 0.555556 26H0H-0.555556C-0.555556 34.0388 5.96119 40.5556 14 40.5556V40ZM40 26H39.4444C39.4444 33.4252 33.4252 39.4444 26 39.4444V40V40.5556C34.0388 40.5556 40.5556 34.0388 40.5556 26H40ZM26 0V0.555556C33.4252 0.555556 39.4444 6.57484 39.4444 14H40H40.5556C40.5556 5.96119 34.0388 -0.555556 26 -0.555556V0ZM14 0V-0.555556C5.96119 -0.555556 -0.555556 5.96119 -0.555556 14H0H0.555556C0.555556 6.57484 6.57484 0.555556 14 0.555556V0Z" fill="#A78BFA" fill-opacity="0.2" mask="url(#path-1-inside-1_244_3992)"/>
<g clip-path="url(#clip0_244_3992)">
<path d="M13.9975 21.4995C13.8556 21.5 13.7165 21.4602 13.5963 21.3847C13.4761 21.3093 13.3798 21.2013 13.3186 21.0733C13.2573 20.9454 13.2336 20.8026 13.2503 20.6617C13.2669 20.5208 13.3232 20.3875 13.4126 20.2773L20.8355 12.6295C20.8912 12.5653 20.967 12.5218 21.0507 12.5064C21.1343 12.4909 21.2207 12.5043 21.2956 12.5444C21.3706 12.5845 21.4297 12.649 21.4633 12.7271C21.4969 12.8052 21.5028 12.8924 21.4803 12.9744L20.0407 17.4881C19.9983 17.6017 19.984 17.724 19.9992 17.8443C20.0143 17.9646 20.0584 18.0795 20.1278 18.179C20.1971 18.2785 20.2895 18.3598 20.3971 18.4157C20.5047 18.4717 20.6242 18.5007 20.7455 18.5003H25.994C26.1359 18.4999 26.275 18.5396 26.3952 18.6151C26.5153 18.6905 26.6116 18.7985 26.6729 18.9265C26.7341 19.0545 26.7578 19.1972 26.7411 19.3381C26.7245 19.479 26.6682 19.6123 26.5788 19.7225L19.156 27.3703C19.1003 27.4345 19.0244 27.478 18.9408 27.4934C18.8572 27.5089 18.7708 27.4955 18.6958 27.4554C18.6208 27.4153 18.5617 27.3509 18.5281 27.2727C18.4946 27.1946 18.4886 27.1074 18.5112 27.0254L19.9507 22.5117C19.9932 22.3981 20.0074 22.2759 19.9923 22.1555C19.9771 22.0352 19.933 21.9203 19.8637 21.8208C19.7944 21.7213 19.702 21.64 19.5944 21.5841C19.4868 21.5281 19.3672 21.4991 19.2459 21.4995H13.9975Z" stroke="#A78BFA" stroke-width="1.49957" stroke-linecap="round" stroke-linejoin="round"/>
</g>
<defs>
<clipPath id="clip0_244_3992">
<rect width="17.9948" height="17.9948" fill="white" transform="translate(10.9983 11.0026)"/>
</clipPath>
</defs>
</svg>
