<svg width="16" height="16" viewBox="0 0 16 16" fill="none" xmlns="http://www.w3.org/2000/svg">
<path d="M2.66594 9.33241C2.53979 9.33284 2.41612 9.29747 2.30928 9.23041C2.20244 9.16334 2.11682 9.06734 2.06237 8.95356C2.00792 8.83977 1.98687 8.71287 2.00168 8.5876C2.01648 8.46233 2.06652 8.34382 2.14599 8.24586L8.74528 1.4466C8.79478 1.38946 8.86224 1.35085 8.93658 1.3371C9.01092 1.32335 9.08772 1.33529 9.15439 1.37094C9.22105 1.4066 9.27361 1.46386 9.30344 1.53333C9.33327 1.6028 9.3386 1.68034 9.31855 1.75323L8.03869 5.76613C8.00095 5.86714 7.98827 5.97579 8.00175 6.08277C8.01523 6.18975 8.05446 6.29186 8.11607 6.38035C8.17769 6.46884 8.25985 6.54106 8.3555 6.59082C8.45116 6.64057 8.55746 6.66638 8.66529 6.66603H13.3314C13.4576 6.6656 13.5813 6.70097 13.6881 6.76804C13.7949 6.8351 13.8806 6.9311 13.935 7.04489C13.9895 7.15867 14.0105 7.28558 13.9957 7.41085C13.9809 7.53612 13.9309 7.65462 13.8514 7.75258L7.25211 14.5518C7.2026 14.609 7.13515 14.6476 7.06081 14.6613C6.98647 14.6751 6.90966 14.6632 6.843 14.6275C6.77633 14.5918 6.72377 14.5346 6.69394 14.4651C6.66411 14.3956 6.65879 14.3181 6.67884 14.2452L7.9587 10.2323C7.99644 10.1313 8.00911 10.0227 7.99563 9.91568C7.98215 9.8087 7.94293 9.70658 7.88131 9.6181C7.8197 9.52961 7.73754 9.45739 7.64188 9.40763C7.54622 9.35787 7.43992 9.33206 7.3321 9.33241H2.66594Z" stroke="#8B5CF6" stroke-width="1.33319" stroke-linecap="round" stroke-linejoin="round"/>
</svg>
