<svg width="48" height="48" viewBox="0 0 48 48" fill="none" xmlns="http://www.w3.org/2000/svg">
<mask id="path-1-inside-1_244_7442" fill="white">
<path d="M0 16C0 7.16346 7.16345 0 16 0H31.9948C40.8313 0 47.9948 7.16345 47.9948 16V31.9948C47.9948 40.8313 40.8313 47.9948 31.9948 47.9948H16C7.16346 47.9948 0 40.8313 0 31.9948V16Z"/>
</mask>
<path d="M0 16C0 7.16346 7.16345 0 16 0H31.9948C40.8313 0 47.9948 7.16345 47.9948 16V31.9948C47.9948 40.8313 40.8313 47.9948 31.9948 47.9948H16C7.16346 47.9948 0 40.8313 0 31.9948V16Z" fill="#A78BFA" fill-opacity="0.07"/>
<path d="M16 0V1.11111H31.9948V0V-1.11111H16V0ZM47.9948 16H46.8837V31.9948H47.9948H49.1059V16H47.9948ZM31.9948 47.9948V46.8837H16V47.9948V49.1059H31.9948V47.9948ZM0 31.9948H1.11111V16H0H-1.11111V31.9948H0ZM16 47.9948V46.8837C7.77711 46.8837 1.11111 40.2177 1.11111 31.9948H0H-1.11111C-1.11111 41.445 6.54981 49.1059 16 49.1059V47.9948ZM47.9948 31.9948H46.8837C46.8837 40.2177 40.2177 46.8837 31.9948 46.8837V47.9948V49.1059C41.445 49.1059 49.1059 41.445 49.1059 31.9948H47.9948ZM31.9948 0V1.11111C40.2177 1.11111 46.8837 7.7771 46.8837 16H47.9948H49.1059C49.1059 6.5498 41.445 -1.11111 31.9948 -1.11111V0ZM16 0V-1.11111C6.5498 -1.11111 -1.11111 6.54981 -1.11111 16H0H1.11111C1.11111 7.77711 7.7771 1.11111 16 1.11111V0Z" fill="#A78BFA" fill-opacity="0.133" mask="url(#path-1-inside-1_244_7442)"/>
<path d="M33.1586 19.415L25.3681 27.2055L20.7855 22.6229L14.8281 28.5803" stroke="#A78BFA" stroke-width="1.83304" stroke-linecap="round" stroke-linejoin="round"/>
<path d="M27.6592 19.415H33.1583V24.9142" stroke="#A78BFA" stroke-width="1.83304" stroke-linecap="round" stroke-linejoin="round"/>
</svg>
