<svg width="48" height="48" viewBox="0 0 48 48" fill="none" xmlns="http://www.w3.org/2000/svg">
<mask id="path-1-inside-1_244_7430" fill="white">
<path d="M0 16C0 7.16346 7.16345 0 16 0H31.9948C40.8313 0 47.9948 7.16345 47.9948 16V31.9948C47.9948 40.8313 40.8313 47.9948 31.9948 47.9948H16C7.16346 47.9948 0 40.8313 0 31.9948V16Z"/>
</mask>
<path d="M0 16C0 7.16346 7.16345 0 16 0H31.9948C40.8313 0 47.9948 7.16345 47.9948 16V31.9948C47.9948 40.8313 40.8313 47.9948 31.9948 47.9948H16C7.16346 47.9948 0 40.8313 0 31.9948V16Z" fill="#4F46E5" fill-opacity="0.07"/>
<path d="M16 0V1.11111H31.9948V0V-1.11111H16V0ZM47.9948 16H46.8837V31.9948H47.9948H49.1059V16H47.9948ZM31.9948 47.9948V46.8837H16V47.9948V49.1059H31.9948V47.9948ZM0 31.9948H1.11111V16H0H-1.11111V31.9948H0ZM16 47.9948V46.8837C7.77711 46.8837 1.11111 40.2177 1.11111 31.9948H0H-1.11111C-1.11111 41.445 6.54981 49.1059 16 49.1059V47.9948ZM47.9948 31.9948H46.8837C46.8837 40.2177 40.2177 46.8837 31.9948 46.8837V47.9948V49.1059C41.445 49.1059 49.1059 41.445 49.1059 31.9948H47.9948ZM31.9948 0V1.11111C40.2177 1.11111 46.8837 7.7771 46.8837 16H47.9948H49.1059C49.1059 6.5498 41.445 -1.11111 31.9948 -1.11111V0ZM16 0V-1.11111C6.5498 -1.11111 -1.11111 6.54981 -1.11111 16H0H1.11111C1.11111 7.77711 7.7771 1.11111 16 1.11111V0Z" fill="#4F46E5" fill-opacity="0.133" mask="url(#path-1-inside-1_244_7430)"/>
<path d="M31.3255 24.9142C31.3255 29.4968 28.1177 31.7881 24.3049 33.1171C24.1053 33.1847 23.8884 33.1815 23.6909 33.1079C19.869 31.7881 16.6611 29.4968 16.6611 24.9142V18.4985C16.6611 18.2555 16.7577 18.0223 16.9296 17.8505C17.1015 17.6786 17.3346 17.582 17.5777 17.582C19.4107 17.582 21.702 16.4822 23.2968 15.0891C23.4909 14.9232 23.7379 14.832 23.9933 14.832C24.2487 14.832 24.4957 14.9232 24.6899 15.0891C26.2938 16.4913 28.5759 17.582 30.409 17.582C30.652 17.582 30.8852 17.6786 31.057 17.8505C31.2289 18.0223 31.3255 18.2555 31.3255 18.4985V24.9142Z" stroke="#4F46E5" stroke-width="1.83304" stroke-linecap="round" stroke-linejoin="round"/>
</svg>
