<svg width="48" height="48" viewBox="0 0 48 48" fill="none" xmlns="http://www.w3.org/2000/svg">
<mask id="path-1-inside-1_244_7417" fill="white">
<path d="M0 16C0 7.16346 7.16345 0 16 0H31.9948C40.8313 0 47.9948 7.16345 47.9948 16V31.9948C47.9948 40.8313 40.8313 47.9948 31.9948 47.9948H16C7.16346 47.9948 0 40.8313 0 31.9948V16Z"/>
</mask>
<path d="M0 16C0 7.16346 7.16345 0 16 0H31.9948C40.8313 0 47.9948 7.16345 47.9948 16V31.9948C47.9948 40.8313 40.8313 47.9948 31.9948 47.9948H16C7.16346 47.9948 0 40.8313 0 31.9948V16Z" fill="#F97316" fill-opacity="0.07"/>
<path d="M16 0V1.11111H31.9948V0V-1.11111H16V0ZM47.9948 16H46.8837V31.9948H47.9948H49.1059V16H47.9948ZM31.9948 47.9948V46.8837H16V47.9948V49.1059H31.9948V47.9948ZM0 31.9948H1.11111V16H0H-1.11111V31.9948H0ZM16 47.9948V46.8837C7.77711 46.8837 1.11111 40.2177 1.11111 31.9948H0H-1.11111C-1.11111 41.445 6.54981 49.1059 16 49.1059V47.9948ZM47.9948 31.9948H46.8837C46.8837 40.2177 40.2177 46.8837 31.9948 46.8837V47.9948V49.1059C41.445 49.1059 49.1059 41.445 49.1059 31.9948H47.9948ZM31.9948 0V1.11111C40.2177 1.11111 46.8837 7.7771 46.8837 16H47.9948H49.1059C49.1059 6.5498 41.445 -1.11111 31.9948 -1.11111V0ZM16 0V-1.11111C6.5498 -1.11111 -1.11111 6.54981 -1.11111 16H0H1.11111C1.11111 7.77711 7.7771 1.11111 16 1.11111V0Z" fill="#F97316" fill-opacity="0.133" mask="url(#path-1-inside-1_244_7417)"/>
<path d="M27.1804 24.8135L28.569 32.6277C28.5845 32.7198 28.5716 32.8143 28.532 32.8988C28.4923 32.9833 28.4278 33.0536 28.3471 33.1005C28.2664 33.1473 28.1733 33.1684 28.0803 33.1609C27.9873 33.1534 27.8987 33.1177 27.8266 33.0585L24.5454 30.5958C24.387 30.4775 24.1946 30.4135 23.9969 30.4135C23.7992 30.4135 23.6067 30.4775 23.4483 30.5958L20.1617 33.0576C20.0896 33.1166 20.0012 33.1523 19.9083 33.1598C19.8154 33.1673 19.7224 33.1463 19.6417 33.0996C19.5611 33.0529 19.4966 32.9827 19.4568 32.8984C19.4171 32.8141 19.404 32.7197 19.4193 32.6277L20.8069 24.8135" stroke="#F97316" stroke-width="1.83304" stroke-linecap="round" stroke-linejoin="round"/>
<path d="M23.9933 25.8303C27.0304 25.8303 29.4924 23.3682 29.4924 20.3312C29.4924 17.2941 27.0304 14.832 23.9933 14.832C20.9562 14.832 18.4941 17.2941 18.4941 20.3312C18.4941 23.3682 20.9562 25.8303 23.9933 25.8303Z" stroke="#F97316" stroke-width="1.83304" stroke-linecap="round" stroke-linejoin="round"/>
</svg>
