<svg width="65" height="65" viewBox="0 0 65 65" fill="none" xmlns="http://www.w3.org/2000/svg">
<path d="M15.833 9.49976V53.8321L26.9161 42.749L36.4159 61.7486L42.7491 58.582L33.2493 39.5824H47.499L15.833 9.49976Z" stroke="#F97316" stroke-width="4.74989" stroke-linecap="round" stroke-linejoin="round"/>
<path opacity="0.55" d="M52.2488 23.7495C54.8226 26.8694 56.2303 30.7879 56.2303 34.8325C56.2303 38.8771 54.8226 42.7956 52.2488 45.9156" stroke="#F97316" stroke-width="4.2749" stroke-linecap="round" stroke-linejoin="round"/>
<path opacity="0.28" d="M61.7485 14.2497C66.6545 19.9854 69.3504 27.2849 69.3504 34.8326C69.3504 42.3802 66.6545 49.6797 61.7485 55.4154" stroke="#F97316" stroke-width="3.32492" stroke-linecap="round" stroke-linejoin="round"/>
<path opacity="0.9" d="M15.833 13.6164C18.1065 13.6164 19.9496 11.7733 19.9496 9.49981C19.9496 7.22629 18.1065 5.38324 15.833 5.38324C13.5595 5.38324 11.7164 7.22629 11.7164 9.49981C11.7164 11.7733 13.5595 13.6164 15.833 13.6164Z" fill="#F97316"/>
</svg>
