<svg width="65" height="65" viewBox="0 0 65 65" fill="none" xmlns="http://www.w3.org/2000/svg">
<path opacity="0.5" d="M37.999 12.6664V6.33319" stroke="#4F46E5" stroke-width="4.74989" stroke-linecap="round" stroke-linejoin="round"/>
<path opacity="0.5" d="M31.666 6.33319H44.3324" stroke="#4F46E5" stroke-width="4.74989" stroke-linecap="round" stroke-linejoin="round"/>
<path opacity="0.4" d="M60.1653 25.3328L64.9152 20.5829" stroke="#4F46E5" stroke-width="4.74989" stroke-linecap="round" stroke-linejoin="round"/>
<path d="M37.999 69.6651C51.9899 69.6651 63.3318 58.3232 63.3318 44.3323C63.3318 30.3414 51.9899 18.9996 37.999 18.9996C24.0081 18.9996 12.6663 30.3414 12.6663 44.3323C12.6663 58.3232 24.0081 69.6651 37.999 69.6651Z" stroke="#4F46E5" stroke-width="4.74989" stroke-linecap="round" stroke-linejoin="round"/>
<path opacity="0.25" d="M37.999 18.9996C42.4463 18.9986 46.8155 20.1684 50.6674 22.3914C54.5193 24.6144 57.718 27.8123 59.9421 31.6635C62.1662 35.5147 63.3372 39.8836 63.3375 44.3309C63.3377 48.7782 62.1672 53.1472 59.9435 56.9987" stroke="#4F46E5" stroke-width="5.69987" stroke-linecap="round" stroke-linejoin="round"/>
<path d="M37.999 44.3323V30.0826" stroke="#4F46E5" stroke-width="4.74989" stroke-linecap="round" stroke-linejoin="round"/>
<path opacity="0.65" d="M37.999 44.3323L49.0821 50.6655" stroke="#4F46E5" stroke-width="4.03741" stroke-linecap="round" stroke-linejoin="round"/>
<path opacity="0.28" d="M37.999 25.3328V30.0827M63.3318 44.3323H58.5819M37.999 63.3319V58.582M12.6663 44.3323H17.4162" stroke="#4F46E5" stroke-width="3.32492" stroke-linecap="round" stroke-linejoin="round"/>
<path d="M37.9991 48.4489C40.2727 48.4489 42.1157 46.6059 42.1157 44.3323C42.1157 42.0588 40.2727 40.2158 37.9991 40.2158C35.7256 40.2158 33.8826 42.0588 33.8826 44.3323C33.8826 46.6059 35.7256 48.4489 37.9991 48.4489Z" fill="#4F46E5"/>
</svg>
