<svg width="65" height="65" viewBox="0 0 65 65" fill="none" xmlns="http://www.w3.org/2000/svg">
<path opacity="0.38" d="M14.2498 53.8321H7.91659C6.16773 53.8321 4.75 55.2498 4.75 56.9987V66.4985C4.75 68.2473 6.16773 69.6651 7.91659 69.6651H14.2498C15.9986 69.6651 17.4164 68.2473 17.4164 66.4985V56.9987C17.4164 55.2498 15.9986 53.8321 14.2498 53.8321Z" stroke="#EAB308" stroke-width="4.74989" stroke-linecap="round" stroke-linejoin="round"/>
<path opacity="0.55" d="M31.666 41.1657H25.3329C23.584 41.1657 22.1663 42.5834 22.1663 44.3323V66.4985C22.1663 68.2473 23.584 69.6651 25.3329 69.6651H31.666C33.4149 69.6651 34.8326 68.2473 34.8326 66.4985V44.3323C34.8326 42.5834 33.4149 41.1657 31.666 41.1657Z" stroke="#EAB308" stroke-width="4.74989" stroke-linecap="round" stroke-linejoin="round"/>
<path opacity="0.75" d="M49.0823 25.3328H42.7491C41.0003 25.3328 39.5825 26.7505 39.5825 28.4994V66.4985C39.5825 68.2474 41.0003 69.6651 42.7491 69.6651H49.0823C50.8312 69.6651 52.2489 68.2474 52.2489 66.4985V28.4994C52.2489 26.7505 50.8312 25.3328 49.0823 25.3328Z" stroke="#EAB308" stroke-width="4.74989" stroke-linecap="round" stroke-linejoin="round"/>
<path d="M68.0819 9.49976H60.1654C58.4165 9.49976 56.9988 10.9175 56.9988 12.6664V66.4985C56.9988 68.2473 58.4165 69.6651 60.1654 69.6651H68.0819C69.8307 69.6651 71.2485 68.2473 71.2485 66.4985V12.6664C71.2485 10.9175 69.8307 9.49976 68.0819 9.49976Z" stroke="#EAB308" stroke-width="4.74989" stroke-linecap="round" stroke-linejoin="round"/>
<path opacity="0.3" d="M9.49976 45.9156L25.3327 30.0826L41.1657 41.1657L56.9987 17.4163" stroke="#EAB308" stroke-width="3.32492" stroke-linecap="round" stroke-linejoin="round"/>
<path opacity="0.9" d="M58.5819 18.0496C60.6805 18.0496 62.3818 16.3483 62.3818 14.2497C62.3818 12.151 60.6805 10.4498 58.5819 10.4498C56.4833 10.4498 54.782 12.151 54.782 14.2497C54.782 16.3483 56.4833 18.0496 58.5819 18.0496Z" fill="#EAB308"/>
</svg>
